<?xml version="1.0" standalone="no"?>
<!DOCTYPE svg PUBLIC "-//W3C//DTD SVG 1.1//EN" "http://www.w3.org/Graphics/SVG/1.1/DTD/svg11.dtd" >
<svg xmlns="http://www.w3.org/2000/svg" xmlns:xlink="http://www.w3.org/1999/xlink" version="1.1">
<metadata>
Created by FontForge 20170731 at Tue Feb 20 18:25:48 2018
 By Aleksey,,,
Copyright (c) 2018 by Connary Fagen. All rights reserved.
</metadata>
<defs>
<font id="" horiz-adv-x="1218" >
  <font-face 
    font-family=""
    font-weight="400"
    font-stretch="normal"
    units-per-em="2048"
    panose-1="0 0 5 0 0 0 0 0 0 0"
    ascent="1638"
    descent="-410"
    x-height="993"
    cap-height="1434"
    bbox="-1444 -575 2607 2042"
    underline-thickness="0"
    underline-position="0"
    unicode-range="U+0020-FB02"
  />
<missing-glyph horiz-adv-x="1024" 
d="M840 1638v-2048h-650v2048h650zM682 1501h-338v-67h133v-76h-135v-68h340v68h-135v76h135v67zM547 1237h-205v-213h340v70h-135v143zM477 1167v-73h-67v73h67zM682 969h-340v-68h135v-76h-135v-67h205v143h135v68zM682 846h-68v-135h-272v-70h340v205zM682 596h-205v-115
h70v47h67v-96h-204v164h-68v-231h340v231zM682 242h-340v-232h340v232zM614 174v-96h-204v96h204zM682 -37h-340v-67h143l-143 -97v-67h340v67h-209l143 97h66v67z" />
    <glyph glyph-name="uniFB01" unicode="fi" horiz-adv-x="1179" 
d="M1036 190q0 -82 16.5 -120.5t63.5 -69.5h-278l10 141v787l-193 16h-280v-745q0 -92 25.5 -133t111.5 -58v-8h-358l32 127v727q0 27 -8 45.5t-16 27.5t-36 13t-40 4h-55l10 49h145v49q0 242 174.5 387.5t405.5 145.5q152 0 352 -98l-164 -144q-66 70 -164 122t-186 52
q-229 0 -229 -401v-113h411l250 11v-814z" />
    <glyph glyph-name="uniFB02" unicode="fl" horiz-adv-x="1265" 
d="M1118 199q0 -90 22.5 -132t94.5 -59v-8h-317l12 121v1237q-70 61 -158 105t-168 44q-229 0 -229 -401v-113h332l-11 -49h-321v-745q0 -92 25.5 -133t111.5 -58v-8h-358l32 127v727q0 27 -8 45.5t-16 27.5t-36 13t-40 4h-55l10 49h145v49q0 242 174.5 387.5t405.5 145.5
q152 0 352 -98v-1278z" />
    <glyph glyph-name="f_f.liga" unicode="ff" horiz-adv-x="1415" 
d="M1432 1595q152 0 352 -98l-164 -143q-66 68 -165 121t-187 53q-227 0 -228 -402v-133h342l-10 -49h-332v-745q0 -92 26 -133t112 -58v-8h-359l33 127v817h-477v-745q0 -92 25.5 -133t111.5 -58v-8h-358l32 127v727q0 27 -8 45.5t-16 27.5t-36 13t-40 4h-55l10 49h145v29
q0 242 173 387t405 145q131 0 301 -73q158 114 367 114zM375 993h477v70q0 154 78 276q-70 61 -159 104.5t-169 43.5q-227 0 -227 -402v-92z" />
    <glyph glyph-name="f_f_i.liga" unicode="ffi" horiz-adv-x="1855" 
d="M1513 0l11 141v787l-193 16h-291v-745q0 -92 26 -133t112 -58v-8h-359l33 127v817h-477v-745q0 -92 25.5 -133t111.5 -58v-8h-358l32 127v727q0 27 -8 45.5t-16 27.5t-36 13t-40 4h-55l10 49h145v29q0 242 173 387t405 145q131 0 301 -73q158 115 367 114q152 0 352 -98
l-164 -143q-66 68 -165 121t-187 53q-227 0 -228 -402v-133h422l250 11v-814q0 -82 16.5 -120.5t63.5 -69.5h-279zM375 993h477v70q0 154 78 276q-70 61 -159 104.5t-169 43.5q-227 0 -227 -402v-92z" />
    <glyph glyph-name="f_f_l.liga" unicode="ffl" horiz-adv-x="1931" 
d="M1784 199q0 -90 22.5 -132t94.5 -59v-8h-318l12 121v1257q-68 61 -157.5 105.5t-169.5 44.5q-227 0 -228 -402v-133h342l-10 -49h-332v-745q0 -92 26 -133t112 -58v-8h-359l33 127v817h-477v-745q0 -92 25.5 -133t111.5 -58v-8h-358l32 127v727q0 27 -8 45.5t-16 27.5
t-36 13t-40 4h-55l10 49h145v29q0 242 173 387t405 145q131 0 301 -73q158 115 367 114q152 0 352 -98v-1298zM375 993h477v70q0 154 78 276q-70 61 -159 104.5t-169 43.5q-227 0 -227 -402v-92z" />
    <glyph glyph-name="f_b.liga" unicode="fb" horiz-adv-x="1992" 
d="M1407 1006q231 0 367.5 -133.5t136.5 -350.5q0 -233 -164 -384.5t-477 -151.5q-217 0 -439 69v2q55 10 77 49t22 136v1116q-70 61 -158 105t-168 44q-229 0 -229 -401v-113h332l-11 -49h-321v-745q0 -92 25.5 -133t111.5 -58v-8h-358l32 127v727q0 27 -8 45.5t-16 27.5
t-36 13t-40 4h-55l10 49h145v49q0 242 174.5 387.5t405.5 145.5q152 0 352 -98v-549q113 78 289 78zM1384 27q328 0 328 381q0 238 -109.5 393t-283.5 155q-115 0 -201 -71v-764q108 -94 266 -94z" />
    <glyph glyph-name="f_f_b.liga" unicode="ffb" horiz-adv-x="2656" 
d="M2073 1006q231 0 366 -133.5t135 -350.5q0 -236 -162.5 -386t-476.5 -150q-217 0 -438 69v2q55 10 76.5 49t21.5 136v1136q-68 61 -157.5 105.5t-169.5 44.5q-227 0 -228 -402v-133h342l-10 -49h-332v-745q0 -92 26 -133t112 -58v-8h-359l33 127v817h-477v-745
q0 -92 25.5 -133t111.5 -58v-8h-358l32 127v727q0 27 -8 45.5t-16 27.5t-36 13t-40 4h-55l10 49h145v29q0 242 173 387t405 145q131 0 301 -73q158 115 367 114q152 0 352 -98v-569q113 78 289 78zM375 993h477v70q0 154 78 276q-70 61 -159 104.5t-169 43.5
q-227 0 -227 -402v-92zM2050 27q324 0 324 383q0 238 -107.5 392t-281.5 154q-115 0 -201 -71v-764q108 -94 266 -94z" />
    <glyph glyph-name="f_f_h.liga" unicode="ffh" horiz-adv-x="2668" 
d="M2327 0l12 141v488q0 289 -221 289q-31 0 -65 -7.5t-55.5 -14.5t-58 -27.5t-50 -29t-55.5 -37t-50 -34.5v-569q0 -90 22.5 -132t94.5 -59v-8h-324l18 127v1251q-68 61 -157.5 105.5t-169.5 44.5q-227 0 -228 -402v-133h342l-10 -49h-332v-745q0 -92 26 -133t112 -58v-8
h-359l33 127v817h-477v-745q0 -92 25.5 -133t111.5 -58v-8h-358l32 127v727q0 27 -8 45.5t-16 27.5t-36 13t-40 4h-55l10 49h145v29q0 242 173 387t405 145q131 0 301 -73q158 115 367 114q152 0 352 -98v-684q4 2 42 28.5t50 34t50 30t57.5 31.5t56.5 25.5t64.5 23.5
t62.5 13.5t67 6.5q123 0 208 -82t85 -291v-443q0 -82 16.5 -120.5t63.5 -69.5h-280zM375 993h477v70q0 154 78 276q-70 61 -159 104.5t-169 43.5q-227 0 -227 -402v-92z" />
    <glyph glyph-name="f_f_k.liga" unicode="ffk" horiz-adv-x="2555" 
d="M2556 0h-320v35l-372 436h-80v-272q0 -90 22.5 -132t94.5 -59v-8h-318l12 121v1257q-68 61 -157.5 105.5t-169.5 44.5q-227 0 -228 -402v-133h342l-10 -49h-332v-745q0 -92 26 -133t112 -58v-8h-359l33 127v817h-477v-745q0 -92 25.5 -133t111.5 -58v-8h-358l32 127v727
q0 27 -8 45.5t-16 27.5t-36 13t-40 4h-55l10 49h145v29q0 242 173 387t405 145q131 0 301 -73q158 115 367 114q152 0 352 -98v-1024l414 410q78 78 -41 98l4 12h348l-4 -12q-182 -23 -396 -236l-145 -145l287 -330q106 -123 166.5 -177t138.5 -93zM375 993h477v70
q0 154 78 276q-70 61 -159 104.5t-169 43.5q-227 0 -227 -402v-92z" />
    <glyph glyph-name="f_h.liga" unicode="fh" horiz-adv-x="2002" 
d="M1661 0l12 141v488q0 158 -61.5 223.5t-149.5 65.5q-20 0 -40.5 -4.5t-38 -8.5t-38 -16t-34 -18.5t-36 -26t-31.5 -26.5t-32.5 -30.5l-29.5 -29.5t-33 -34t-31 -32v-493q0 -90 22.5 -132t94.5 -59v-8h-317l12 121v1237q-70 61 -158 105t-168 44q-229 0 -229 -401v-113
h332l-11 -49h-321v-745q0 -92 25.5 -133t111.5 -58v-8h-358l32 127v727q0 27 -8 45.5t-16 27.5t-36 13t-40 4h-55l10 49h145v49q0 242 174.5 387.5t405.5 145.5q152 0 352 -98v-740q55 57 94 92t102.5 82t130 71t134.5 24q51 0 96 -15.5t90 -53.5t71 -116t26 -188v-443
q0 -82 16 -120.5t64 -69.5h-281z" />
    <glyph glyph-name="f_j.liga" unicode="fj" horiz-adv-x="1220" 
d="M1077 1004v-898q0 -131 17 -249q-63 -104 -176 -180t-234 -95l-4 4q111 41 160 130t49 251v961q-8 4 -12 8l-19 -8l-192 16h-291v-745q0 -92 25.5 -133t111.5 -58v-8h-358l32 127v727q0 27 -8 45.5t-16 27.5t-36 13t-40 4h-55l10 49h145v49q0 242 174.5 387.5
t405.5 145.5q152 0 352 -98l-164 -144q-66 70 -164 122t-186 52q-229 0 -229 -401v-113h422l250 11l-11 -5z" />
    <glyph glyph-name="f_k.liga" unicode="fk" horiz-adv-x="1890" 
d="M1890 0h-319v35l-373 436h-80v-272q0 -90 22.5 -132t94.5 -59v-8h-317l12 121v1237q-70 61 -158 105t-168 44q-229 0 -229 -401v-113h332l-11 -49h-321v-745q0 -92 25.5 -133t111.5 -58v-8h-358l32 127v727q0 27 -8 45.5t-16 27.5t-36 13t-40 4h-55l10 49h145v49
q0 242 174.5 387.5t405.5 145.5q152 0 352 -98v-1004l408 410q78 78 -41 98l4 12h348l-4 -12q-180 -20 -389 -236l-144 -147l285 -328q106 -123 166.5 -177t138.5 -93z" />
    <glyph glyph-name=".notdef" horiz-adv-x="1024" 
d="M840 1638v-2048h-650v2048h650zM682 1501h-338v-67h133v-76h-135v-68h340v68h-135v76h135v67zM547 1237h-205v-213h340v70h-135v143zM477 1167v-73h-67v73h67zM682 969h-340v-68h135v-76h-135v-67h205v143h135v68zM682 846h-68v-135h-272v-70h340v205zM682 596h-205v-115
h70v47h67v-96h-204v164h-68v-231h340v231zM682 242h-340v-232h340v232zM614 174v-96h-204v96h204zM682 -37h-340v-67h143l-143 -97v-67h340v67h-209l143 97h66v67z" />
    <glyph glyph-name="glyph1" horiz-adv-x="0" 
 />
    <glyph glyph-name="glyph2" horiz-adv-x="681" 
 />
    <glyph glyph-name="space" unicode=" " horiz-adv-x="409" 
 />
    <glyph glyph-name="exclam" unicode="!" horiz-adv-x="450" 
d="M233 391l-88 823q-4 47 -17 63.5t-46 20.5v5l283 243l-17 -84l-100 -1071h-15zM240 -14q-55 0 -93 37.5t-38 93.5q0 53 37.5 91t93.5 38q53 0 91 -38t38 -91q0 -55 -38 -93t-91 -38z" />
    <glyph glyph-name="quotedbl" unicode="&#x22;" horiz-adv-x="716" 
d="M82 913l-10 7q45 193 43 368l241 199l11 -6q-138 -378 -285 -568zM360 913l-10 7q45 193 43 368l242 199l10 -6q-138 -378 -285 -568z" />
    <glyph glyph-name="numbersign" unicode="#" horiz-adv-x="1853" 
d="M1341 993q-70 -205 -120 -375q-53 -170 -115 -385q162 2 428 15l65 -96q-31 16 -133 20q-317 14 -374 16q-55 -190 -115 -419l-111 -33q27 27 62 129q12 37 34.5 103.5t41 120.5t34.5 101q-123 0 -207 -2q-229 -4 -286 -4q-88 -324 -113 -415l-110 -33q27 27 61 129
l109 317q-217 -4 -375 -10l-66 96q35 -18 142 -22q82 -2 192.5 -9.5t122.5 -7.5q113 348 125 387q72 231 110 375q-233 -4 -424 -12l-65 96q35 -18 141 -22q92 -4 207 -10.5t154 -8.5q39 137 112 424l111 33q-25 -25 -57 -121q-20 -57 -57.5 -171t-55.5 -167q125 0 209 2
q68 2 167 4t118 2q80 291 110 418l111 33q-25 -25 -58 -121l-108 -328q217 4 379 13l65 -97q-31 16 -133 21q-45 2 -161 7t-167 7zM1053 233l125 383q63 203 112 379q-102 2 -256 0q-188 -4 -239 -4l-119 -373q-74 -240 -117 -391q145 -4 256 0z" />
    <glyph glyph-name="dollar" unicode="$" horiz-adv-x="1249" 
d="M1167 399q0 -176 -135 -296.5t-377 -131.5l7 -127l-99 -63q23 43 23 143q0 31 2 47q-317 12 -506 193l178 285q-18 -166 77 -279t251 -150q12 430 16 598q-264 63 -372.5 184.5t-108.5 266.5q0 168 126 273.5t341 117.5l-6 129l98 64q-20 -37 -20 -133q0 -8 -1.5 -29
t-1.5 -29q295 -6 484 -186l-182 -289q18 168 -69 281.5t-233 146.5q-8 -305 -12 -584q18 -6 55 -14q465 -107 465 -418zM289 1169q0 -137 84 -210.5t233 -116.5q-4 317 -14 583q-12 2 -39 2q-137 0 -200.5 -71.5t-63.5 -186.5zM707 8q160 0 229.5 86t69.5 205
q0 135 -87.5 199.5t-273.5 109.5q0 -338 10 -598q17 -2 52 -2z" />
    <glyph glyph-name="percent" unicode="%" horiz-adv-x="1396" 
d="M371 1286q121 0 194.5 -67.5t73.5 -194.5t-73.5 -195.5t-194.5 -68.5q-119 0 -194 68.5t-75 195.5t75 194.5t194 67.5zM141 0q27 14 95 94q330 395 444 547q291 383 465 633h110q-27 -14 -94 -94q-299 -360 -444 -547q-229 -295 -465 -633h-111zM412 786q106 0 106 164
q0 143 -52 226.5t-136 83.5q-57 0 -82 -37t-25 -129q0 -137 52.5 -222.5t136.5 -85.5zM1026 514q121 0 194.5 -67.5t73.5 -194.5t-73.5 -195.5t-194.5 -68.5q-119 0 -193.5 68.5t-74.5 195.5t74.5 194.5t193.5 67.5zM1067 14q106 0 107 164q0 143 -52.5 226t-136.5 83
q-57 0 -81.5 -36.5t-24.5 -128.5q0 -137 52 -222.5t136 -85.5z" />
    <glyph glyph-name="ampersand" unicode="&#x26;" horiz-adv-x="2019" 
d="M1225 854q270 -59 440 -181t170 -304q0 -178 -161 -281.5t-392 -103.5q-147 0 -224 70.5t-198 305.5l-133 261q-41 74 -92 114.5t-135 40.5q-109 0 -172.5 -66.5t-63.5 -185.5q0 -180 126 -332.5t296 -152.5q164 0 225 121l7 -45q-147 -129 -373 -129q-203 0 -328 101
t-125 275q0 199 155.5 329t366.5 153l-65 127q-68 150 -29 272.5t169 199.5t302 77q133 0 249 -42t136 -100l-317 -385q80 125 94 223.5t-28 153.5t-104.5 83t-135.5 28q-156 0 -208 -124t30 -274l354 -688q104 -201 183 -286.5t179 -85.5q203 0 203 344q0 123 -25.5 205.5
t-72.5 134t-137.5 78t-192.5 35.5t-268 9q88 96 129 164h416q274 0 452 17q-115 -127 -147 -181h-140q-49 0 -183 10.5t-232 14.5z" />
    <glyph glyph-name="quotesingle" unicode="'" horiz-adv-x="438" 
d="M82 913l-10 7q45 193 43 368l241 199l11 -6q-138 -378 -285 -568z" />
    <glyph glyph-name="parenleft" unicode="(" horiz-adv-x="499" 
d="M449 1706q-281 -354 -281 -1008q0 -651 281 -1005h-17q-330 401 -330 1005q0 606 330 1008h17z" />
    <glyph glyph-name="parenright" unicode=")" horiz-adv-x="499" 
d="M51 1706h17q330 -401 329 -1008q0 -604 -329 -1005h-17q281 354 281 1005q0 654 -281 1008z" />
    <glyph glyph-name="asterisk" unicode="*" horiz-adv-x="784" 
d="M389 1124l-61 199q-16 57 4 84t59 27t60.5 -27t5.5 -84l-62 -199h-6zM383 1120l-2 -6l-203 47q-57 12 -71.5 47t8.5 64q20 35 51 39t76 -39zM401 1120l142 152q45 43 75.5 39t51.5 -39q23 -29 8.5 -63.5t-72.5 -47.5l-203 -47zM381 1108l2 -6l-141 -152q-47 -43 -77 -39
t-50 39q-23 29 -8.5 64t71.5 47zM403 1108l203 -47q57 -12 71.5 -47t-7.5 -64q-20 -35 -50 -39t-77 39l-142 152zM389 1100h6l62 -199q16 -57 -5.5 -83.5t-60.5 -26.5t-59.5 26.5t-3.5 83.5z" />
    <glyph glyph-name="plus" unicode="+" horiz-adv-x="829" 
d="M727 682v-37h-291v-311h-41v311h-293v37h293v311h41v-311h291z" />
    <glyph glyph-name="comma" unicode="," horiz-adv-x="444" 
d="M88 -279l-4 7q129 162 -12 280l290 250q10 -16 11 -57q0 -104 -64.5 -221t-163.5 -207z" />
    <glyph glyph-name="hyphen" unicode="-" horiz-adv-x="788" 
d="M102 485l74 164l133 -16q143 -20 241.5 -17.5t127.5 43.5h8l-74 -163l-133 16q-143 20 -241.5 17t-126.5 -44h-9z" />
    <glyph glyph-name="period" unicode="." horiz-adv-x="464" 
d="M233 -14q-55 0 -93 37.5t-38 93.5q0 53 38 91t93 38q53 0 91 -38t38 -91q0 -55 -38 -93t-91 -38z" />
    <glyph glyph-name="slash" unicode="/" horiz-adv-x="755" 
d="M715 1491q-27 -25 -58 -121q-215 -643 -266 -817q-29 -102 -83 -285.5t-98 -336t-79 -285.5l-111 -33q27 27 62 129q25 74 86 250t103 306t77 251q20 76 115.5 404.5t140.5 504.5z" />
    <glyph glyph-name="zero" unicode="0" horiz-adv-x="1374" 
d="M686 1462q268 0 432 -199.5t164 -552t-162 -546t-432 -193.5q-268 0 -432 200t-164 552t162 545.5t432 193.5zM780 6q150 0 225.5 134t75.5 380q0 227 -53 430t-168 340t-266 137q-150 0 -225.5 -134t-75.5 -382q0 -225 53 -427.5t167.5 -340t266.5 -137.5z" />
    <glyph glyph-name="one" unicode="1" horiz-adv-x="634" 
d="M418 221q0 -102 43 -148t174 -63v-10h-635v10q129 16 172 62.5t43 148.5v1008q0 27 -3 43t-15.5 24.5t-23.5 11.5t-39 -1t-51.5 -9.5t-68.5 -17.5v12l414 174l-10 -80v-1165z" />
    <glyph glyph-name="two" unicode="2" horiz-adv-x="1255" 
d="M1143 461l10 -4l-63 -502l-74 45h-881l-26 123l221 162q279 203 426 374.5t147 364.5q0 147 -85 270t-253 123q-127 0 -201.5 -80t-84 -201.5t15.5 -265.5h-6l-207 357q96 88 261 161.5t343 73.5q209 0 320.5 -101t111.5 -259q0 -53 -12 -105.5t-42 -103.5t-58.5 -94
t-84 -96.5t-92 -88t-110.5 -90t-114 -85t-125 -91t-122 -88.5l-104 -76h528q133 0 197.5 24.5t95.5 76t68 176.5z" />
    <glyph glyph-name="three" unicode="3" horiz-adv-x="1228" 
d="M737 782q172 0 286 -75.5t114 -245.5q0 -219 -181.5 -354.5t-420.5 -135.5q-147 0 -271.5 52.5t-185.5 130.5l12 12q59 -63 164.5 -102t214.5 -39q203 0 326 135t123 329q0 336 -404 234l-63 -18l-29 30q178 31 290.5 129.5t112.5 247.5q0 51 -14 100.5t-47 95.5
t-94.5 74.5t-145.5 28.5q-102 0 -166.5 -42t-87 -115.5t-22.5 -154.5t20 -175h-6l-190 307q94 88 260 159.5t344 71.5q197 0 279.5 -87t82.5 -199q0 -242 -368 -396q10 0 32.5 1t34.5 1z" />
    <glyph glyph-name="four" unicode="4" horiz-adv-x="1267" 
d="M1079 385q-111 4 -161 4v-170q0 -102 40.5 -148t165.5 -63v-8h-608v8q123 16 164 62.5t41 148.5v146q0 27 16 28q-356 4 -549 -6q-100 -4 -133 -16h-4l604 882l31 72l313 150v-9q-82 -47 -81 -139v-801q8 0 26.5 1t28.5 1q90 2 131 55.5t92 225.5l10 -4l-63 -434z
M186 526q236 -10 535 -4v760z" />
    <glyph glyph-name="five" unicode="5" horiz-adv-x="1148" 
d="M631 926q190 0 308 -124t118 -306q0 -219 -167 -372t-396 -153q-137 0 -252 59.5t-170 162.5l127 223h6q-16 -199 103.5 -303.5t266.5 -104.5q127 0 201 89t74 257q0 199 -99.5 334t-279.5 135q-160 0 -254 -108l-14 12l28 729q96 -23 218 -22h608l-107 -428h-8
q18 152 1 196.5t-73 44.5h-518q-31 0 -45 -2t-29.5 -15t-17.5 -40l-29 -432q63 66 170 117t230 51z" />
    <glyph glyph-name="six" unicode="6" horiz-adv-x="1243" 
d="M608 -29q-254 0 -390 172t-136 451q0 340 197.5 584.5t506.5 283.5l5 -22q-137 -27 -236.5 -97.5t-154 -173t-79 -216t-24.5 -246.5q0 -131 22.5 -251t67.5 -222.5t126 -163t187 -60.5q127 0 194 87t67 257q0 201 -91.5 335t-265.5 134q-147 0 -237 -104l-15 12
q53 70 163 132.5t245 62.5q184 0 292.5 -124t108.5 -310q0 -225 -157.5 -373t-395.5 -148z" />
    <glyph glyph-name="seven" unicode="7" horiz-adv-x="1126" 
d="M1085 1456l-536 -1415l-402 -129l15 6q147 117 295 315q184 256 489 957q4 23 7 34t-12 16t-24.5 6t-31.5 1h-8h-598q-84 0 -128.5 -43t-99.5 -198h-10l111 428h735q132 -1 198 22z" />
    <glyph glyph-name="eight" unicode="8" horiz-adv-x="1222" 
d="M772 805q217 -84 298 -179.5t81 -211.5q0 -193 -149.5 -318t-407.5 -125q-139 0 -253 36t-191.5 122t-77.5 211q0 137 90 233.5t244 147.5q-260 137 -261 360q0 178 134.5 279.5t347.5 101.5q197 0 319.5 -85t122.5 -224q0 -198 -297 -348zM315 1206q0 -76 28 -136
t82 -101t101 -65.5t115 -49.5l119 -45q123 100 119 278q-2 178 -92.5 262.5t-229.5 84.5q-119 0 -180.5 -58.5t-61.5 -169.5zM700 8q279 0 279 254q0 137 -78 216t-223 132l-131 49q-63 23 -133 60q-82 -61 -113 -128t-31 -157q0 -215 127 -320.5t303 -105.5z" />
    <glyph glyph-name="nine" unicode="9" horiz-adv-x="1243" 
d="M635 1462q254 0 390 -172t136 -450q0 -340 -197.5 -585t-506.5 -284l-4 23q137 27 236 97.5t153.5 173t79 216t24.5 246.5q0 131 -22.5 251t-67.5 222.5t-126 162.5t-187 60q-127 0 -193.5 -87t-66.5 -257q0 -201 91 -335t265 -134q147 0 238 105l14 -13
q-53 -70 -163 -132t-245 -62q-184 0 -292.5 124t-108.5 310q0 225 157.5 372.5t395.5 147.5z" />
    <glyph glyph-name="colon" unicode=":" horiz-adv-x="505" 
d="M254 745q-55 0 -93 38t-38 94q0 53 38 91t93 38q53 0 91 -38t38 -91q0 -55 -38 -93.5t-91 -38.5zM254 -14q-55 0 -93 37.5t-38 93.5q0 53 38 91t93 38q53 0 91 -38t38 -91q0 -55 -38 -93t-91 -38z" />
    <glyph glyph-name="semicolon" unicode=";" horiz-adv-x="444" 
d="M233 745q-55 0 -93 38t-38 94q0 53 38 91t93 38q53 0 91 -38t38 -91q0 -55 -38 -93.5t-91 -38.5zM88 -279l-4 7q129 162 -12 280l290 250q10 -16 11 -57q0 -104 -64.5 -221t-163.5 -207z" />
    <glyph glyph-name="less" unicode="&#x3c;" horiz-adv-x="778" 
d="M102 643v41l562 195l12 -35l-520 -180l520 -181l-12 -34z" />
    <glyph glyph-name="equal" unicode="=" horiz-adv-x="829" 
d="M727 788h-625v37h625v-37zM727 502h-625v37h625v-37z" />
    <glyph glyph-name="greater" unicode="&#x3e;" horiz-adv-x="778" 
d="M676 643l-561 -194l-13 34l521 181l-521 180l13 35l561 -195v-41z" />
    <glyph glyph-name="question" unicode="?" horiz-adv-x="866" 
d="M764 1057q0 -129 -68.5 -251t-189.5 -122q-23 0 -83.5 7t-90.5 7q-61 0 -104.5 -23.5t-58.5 -66.5t11.5 -109.5t98.5 -144.5h-17q-100 92 -138 188.5t-16.5 166t82 114.5t146.5 45q29 0 114 -9t130 -9q141 0 141 98q0 100 -93 183t-207 122t-206 39l164 150
q37 -6 79 -20.5t99 -45t101 -71.5t75 -106.5t31 -141.5zM342 -14q-55 0 -93 37.5t-38 93.5q0 53 38 91t93 38q53 0 91 -38t38 -91q0 -55 -38 -93t-91 -38z" />
    <glyph glyph-name="at" unicode="@" horiz-adv-x="1677" 
d="M1098 63q-217 0 -193 211l-301 -213q-84 35 -131 130.5t-47 207.5q0 215 163 372t351 157q135 0 281 -92l-170 -484q-23 -78 -22 -126t28.5 -75.5t54.5 -37t57 -9.5q127 0 247 139.5t120 331.5q0 244 -192.5 435.5t-507.5 191.5q-174 0 -328 -73.5t-256 -231.5t-102 -371
q0 -231 103 -405t262 -257t347 -83q217 0 395 139l9 -6q-147 -168 -428 -168q-311 0 -528.5 205t-217.5 541q0 309 229.5 527t536.5 218q301 0 514 -185.5t213 -445.5q0 -203 -147 -373t-340 -170zM698 162l213 149q12 53 27 97l117 329q-86 117 -236 113
q-117 -2 -194.5 -79t-77.5 -245q0 -129 44 -227t107 -137z" />
    <glyph glyph-name="A" unicode="A" horiz-adv-x="1646" 
d="M1403 258q55 -143 95 -192.5t108 -57.5v-8h-576v8q78 6 119 26.5t58.5 72t-23.5 139.5l-41 102h-801l-45 -102q-27 -63 -30 -107.5t19.5 -69t52.5 -38t79 -23.5v-8h-377v8q70 20 114 67.5t97 172.5l455 1048l-5 45l33 23l191 125q0 -29 45 -139zM356 385h772l-370 926z
" />
    <glyph glyph-name="B" unicode="B" horiz-adv-x="1402" 
d="M909 829q412 -47 412 -356q0 -205 -175 -339t-460 -134h-291h-364v10q156 57 155 148v1159q0 88 -155 106v11h573q582 0 582 -285q0 -113 -83 -200t-194 -120zM616 1401h-221v-565h383q96 0 150.5 47t54.5 176q0 156 -88.5 249t-278.5 93zM733 37q209 0 295 75.5
t86 288.5q0 84 -14.5 145.5t-56.5 124t-134 96.5t-229 34h-285v-719q172 -45 338 -45z" />
    <glyph glyph-name="C" unicode="C" horiz-adv-x="1503" 
d="M1411 227q-72 -113 -209 -184.5t-325 -71.5q-330 0 -557.5 210t-227.5 536q0 172 69.5 315.5t186.5 235.5t265.5 143t308.5 51q344 0 520 -215l-260 -360l-6 2q84 207 -19.5 368.5t-335.5 161.5q-215 0 -357 -153.5t-142 -429.5q0 -319 191.5 -544.5t463.5 -225.5
q119 0 237.5 46t182.5 126z" />
    <glyph glyph-name="D" unicode="D" horiz-adv-x="1525" 
d="M668 1434q371 0 573.5 -178.5t202.5 -501.5q0 -352 -231.5 -553t-585.5 -201h-596v10q156 57 155 148v1159q0 88 -155 106v11h637zM678 33q264 0 402.5 138t138.5 474q0 346 -155 551t-478 205h-191v-1305q131 -63 283 -63z" />
    <glyph glyph-name="E" unicode="E" horiz-adv-x="1300" 
d="M1262 399l8 -4l-101 -395l-12 -45l-70 45h-1056v10q156 57 155 148v1159q0 88 -155 106v11h1097l68 -326l-8 -4q-80 115 -129 168t-129 91t-191 38h-344v-668h287q158 0 223.5 44t104.5 163v-446q-39 119 -104.5 162.5t-223.5 43.5h-287v-667h385q84 0 146.5 20.5
t122 76.5t100.5 109.5t113 159.5z" />
    <glyph glyph-name="F" unicode="F" horiz-adv-x="1249" 
d="M1141 1434l67 -326l-8 -4q-80 115 -129 168t-129 91t-190 38h-357v-688h297q158 0 223.5 44t104.5 163v-447q-39 119 -104.5 163t-223.5 44h-297v-563q0 -88 156 -107v-10h-520v10q156 57 155 148v1159q0 88 -155 106v11h1110z" />
    <glyph glyph-name="G" unicode="G" horiz-adv-x="1636" 
d="M1616 618q-156 -18 -156 -108v-393q0 -88 156 -107v-10h-385l20 129q-147 -158 -407 -158q-303 0 -527.5 212t-224.5 534q0 172 69.5 315.5t186.5 235.5t265.5 143t308.5 51q186 0 326.5 -60.5t217.5 -154.5l-260 -362l-6 2q84 207 -28.5 369.5t-348.5 162.5
q-215 0 -358 -153.5t-143 -429.5q0 -322 192.5 -548.5t476.5 -226.5q178 0 260 105v344q0 53 -75.5 69.5t-346.5 24.5l41 25h746v-11z" />
    <glyph glyph-name="H" unicode="H" horiz-adv-x="1566" 
d="M1536 1423q-156 -18 -156 -106v-1200q0 -88 156 -107v-10h-520v10q156 18 155 107v573h-776v-573q0 -88 156 -107v-10h-520v10q156 18 155 107v1200q0 88 -155 106v11h520v-11q-156 -18 -156 -106v-592h776v592q0 88 -155 106v11h520v-11z" />
    <glyph glyph-name="I" unicode="I" horiz-adv-x="581" 
d="M31 0v10q156 18 155 107v1200q0 88 -155 106v11h520v-11q-156 -18 -156 -106v-1200q0 -88 156 -107v-10h-520z" />
    <glyph glyph-name="J" unicode="J" horiz-adv-x="634" 
d="M78 1434h526v-11q-156 -18 -155 -106v-1190q0 -178 12 -250q-68 -102 -191 -187t-276 -128l-4 4q139 68 194.5 163t55.5 259v1329q0 88 -162 106v11z" />
    <glyph glyph-name="K" unicode="K" horiz-adv-x="1433" 
d="M1423 0h-368v35l-525 631h-135v-549q0 -88 156 -107v-10h-520v10q156 18 155 107v1200q0 88 -155 106v11h520v-11q-156 -18 -156 -106v-649l676 655q84 80 -92 98l4 13h401l-4 -13q-178 -20 -397 -235l-350 -340l485 -576q104 -125 163.5 -177t141.5 -93z" />
    <glyph glyph-name="L" unicode="L" horiz-adv-x="1249" 
d="M1210 399l9 -4l-101 -395l-12 -45l-70 45h-1005v10q156 57 155 148v1159q0 88 -155 106v11h540v-11q-88 -8 -132 -31.5t-44 -74.5v-1284h283q104 0 179 21.5t138.5 75.5t106 109.5t108.5 159.5z" />
    <glyph glyph-name="M" unicode="M" horiz-adv-x="1779" 
d="M1749 1423q-156 -18 -156 -106v-1200q0 -88 156 -107v-10h-520v10q156 18 155 107v1210l-571 -1350l-586 1170v-785q0 -193 41 -268.5t115 -83.5v-10h-352v10q39 4 61.5 14.5t47 40t35.5 93t11 164.5v907q-66 129 -166 205h295l580 -1158l489 1158h365v-11z" />
    <glyph glyph-name="N" unicode="N" horiz-adv-x="1505" 
d="M1120 1434h355v-11q-39 -4 -61.5 -14t-47.5 -40t-36 -93.5t-11 -163.5v-772q0 -209 10 -393l-4 -4l-1077 1280v-861q0 -193 41 -268.5t114 -83.5v-10h-352v10q39 4 61.5 14.5t47 40t36 93t11.5 164.5v950q-102 119 -187 162h345q41 -72 75 -111l836 -995v743
q0 193 -41 268.5t-115 83.5v11z" />
    <glyph glyph-name="O" unicode="O" horiz-adv-x="1726" 
d="M864 1462q328 0 549 -203.5t221 -541.5t-221 -542t-549 -204q-330 0 -551 204t-221 542t221 541.5t551 203.5zM946 8q211 0 339 163t128 425q0 207 -80 396.5t-227.5 311t-325.5 121.5q-211 0 -339 -162.5t-128 -422.5q0 -207 80 -397.5t227.5 -312.5t325.5 -122z" />
    <glyph glyph-name="P" unicode="P" horiz-adv-x="1361" 
d="M760 1434q254 0 397 -102.5t143 -303.5q0 -223 -174 -362.5t-460 -139.5h-271v-409q0 -88 156 -107v-10h-520v10q156 18 155 107v1200q0 88 -155 106v11h729zM715 563q209 0 295 81t86 306q0 94 -16.5 166t-60.5 140.5t-137.5 106.5t-230.5 38h-256v-793q166 -45 320 -45
z" />
    <glyph glyph-name="Q" unicode="Q" horiz-adv-x="1730" 
d="M2542 -98h8q-61 -121 -233.5 -230.5t-424.5 -109.5q-238 0 -419 114.5t-353 339.5q-115 -45 -264 -45q-324 0 -544 205t-220 541q0 338 221.5 541.5t552.5 203.5q334 0 551 -201.5t217 -531.5q0 -211 -91 -344t-232 -197l-8 11q51 51 81.5 157.5t30.5 235.5
q0 211 -76.5 399.5t-224 311t-330.5 122.5q-213 0 -342 -162.5t-129 -422.5q0 -211 85 -406.5t231 -310.5q6 49 86 129l231 231q80 25 170 -100l230 -320q303 -422 696 -421q324 0 500 260zM946 8q84 0 158 29l-6 8l-123 166q-47 61 -88 81.5t-67.5 11.5t-61.5 -40
q-63 -57 -71.5 -115.5t44.5 -89.5q102 -51 215 -51z" />
    <glyph glyph-name="R" unicode="R" horiz-adv-x="1423" 
d="M1139 270q82 -113 146.5 -165t158.5 -99v-6h-371v35l-399 553h-19h-260v-471q0 -88 156 -107v-10h-520v10q156 18 155 107v1200q0 88 -155 106v11h719q254 0 397 -96.5t143 -280.5q0 -160 -108.5 -279t-296.5 -164zM395 670q160 -45 322 -45q199 0 283.5 74.5t84.5 281.5
q0 86 -16 152.5t-61 130t-138.5 98.5t-230.5 35h-244v-727z" />
    <glyph glyph-name="S" unicode="S" horiz-adv-x="1249" 
d="M702 817q465 -106 465 -418q0 -182 -145 -305t-406 -123q-334 0 -534 193l178 285q-23 -197 114.5 -319t332.5 -122q160 0 229.5 86t69.5 205q0 76 -26 128t-85 88t-121.5 57.5t-167.5 45.5q-266 63 -374.5 184.5t-108.5 266.5q0 178 141.5 285.5t380.5 107.5
q303 0 498 -186l-182 -289q23 199 -101.5 319.5t-306.5 120.5q-137 0 -200.5 -71.5t-63.5 -186.5q0 -84 31.5 -145t96 -100t128 -63t157.5 -44z" />
    <glyph glyph-name="T" unicode="T" horiz-adv-x="1413" 
d="M1393 1434l-131 -422h-9q37 391 -303 391h-149v-1266q0 -66 47 -92.5t149 -34.5v-10h-602v10q102 8 149.5 35t47.5 92v1266h-47q-154 0 -248 -43t-148.5 -119t-119.5 -229h-9l68 422h1305z" />
    <glyph glyph-name="U" unicode="U" horiz-adv-x="1464" 
d="M741 -29q-70 0 -138 13.5t-146 52.5t-136.5 100.5t-96.5 166t-38 239.5v774q0 88 -155 106v11h520v-11q-156 -18 -156 -106v-809q0 -129 41 -226.5t105.5 -148.5t131 -74.5t132.5 -23.5q68 0 139.5 26.5t139 80t109.5 149.5t42 221v557q0 195 -44 269.5t-132 82.5v11h375
v-11q-39 -4 -61.5 -14t-47.5 -40t-36 -93.5t-11 -163.5v-563q0 -279 -152 -427.5t-385 -148.5z" />
    <glyph glyph-name="V" unicode="V" horiz-adv-x="1583" 
d="M1165 1434h377v-9q-70 -20 -114 -67t-97 -172l-481 -1116l-193 -133l7 43l-523 1296q-45 111 -100 158h516v-9q-57 -4 -94 -16t-63.5 -39t-23.5 -71t25 -111l426 -1067l459 1067q27 63 30 107t-19.5 69t-52.5 38t-79 23v9z" />
    <glyph glyph-name="W" unicode="W" horiz-adv-x="2258" 
d="M1841 1434h377v-9q-72 -20 -117 -67t-94 -172l-436 -1116l-193 -133l6 43l-299 772l-260 -682l-192 -133l6 43l-508 1314q-35 92 -90 140h514v-9q-57 -4 -94 -16t-63.5 -39t-23.5 -70t25 -112l404 -1065l260 688l-186 483q-35 92 -91 140h514v-9q-57 -4 -94 -16
t-63.5 -39t-23.5 -70t26 -112l403 -1065l414 1065q25 66 28 108.5t-19.5 68.5t-51.5 38t-78 22v9z" />
    <glyph glyph-name="X" unicode="X" horiz-adv-x="1538" 
d="M1507 1425q-86 -18 -148.5 -60t-144.5 -140l-364 -443l403 -561q135 -188 228 -213v-8h-332l-135 221l-291 406l-346 -420q-41 -49 -49.5 -85t14.5 -58.5t57.5 -35t89.5 -20.5v-8h-458v8q86 18 148.5 60.5t144.5 140.5l372 455l-417 583q-115 160 -218 178v9h345
l112 -187l307 -428l336 408q41 49 49.5 85t-14 58.5t-57.5 34.5t-90 20v9h458v-9z" />
    <glyph glyph-name="Y" unicode="Y" horiz-adv-x="1576" 
d="M1094 1434h452v-9q-96 -20 -158.5 -60t-125.5 -140l-390 -607v-501q0 -51 44.5 -75t132.5 -32v-10h-562v10q88 8 132.5 32t44.5 75v461l-416 669q-96 156 -217 178v9h346l110 -187l361 -590l362 570q33 53 40 89t-14.5 57.5t-54 32.5t-87.5 19v9z" />
    <glyph glyph-name="Z" unicode="Z" horiz-adv-x="1331" 
d="M1290 1425q-45 -8 -86 -57t-129 -188l-708 -1147h352q258 0 371.5 71.5t191.5 303.5h8l-63 -408h-1186q84 35 256 311l676 1090h-303q-244 0 -354.5 -73t-188.5 -306h-8l63 412h1108v-9z" />
    <glyph glyph-name="bracketleft" unicode="[" horiz-adv-x="446" 
d="M395 1642h-252v-1886h252v-37h-293v1960h293v-37z" />
    <glyph glyph-name="backslash" unicode="\" horiz-adv-x="755" 
d="M41 1491l111 -33q45 -176 140 -504.5t116 -404.5q35 -121 76.5 -251t103 -306t86.5 -250q35 -102 61 -129l-110 33q-35 133 -79 285.5t-98.5 336t-82.5 285.5q-51 174 -267 817q-32 96 -57 121z" />
    <glyph glyph-name="bracketright" unicode="]" horiz-adv-x="446" 
d="M51 1642v37h293v-1960h-293v37h252v1886h-252z" />
    <glyph glyph-name="asciicircum" unicode="^" horiz-adv-x="962" 
d="M481 1520l379 -465l-6 -8l-373 342l-372 -342l-7 8z" />
    <glyph glyph-name="underscore" unicode="_" horiz-adv-x="1110" 
d="M51 -164l74 164l133 -16q207 -29 485.5 -22t307.5 48h8l-74 -164l-133 17q-207 29 -485.5 21.5t-307.5 -48.5h-8z" />
    <glyph glyph-name="a" unicode="a" 
d="M1057 168q0 -82 16.5 -119t63.5 -67v-7l-320 64q2 0 2 2q-104 -55 -244 -55q-219 0 -356 126t-137 345q0 236 165 392.5t470 156.5q188 0 340 -76v-762zM281 567q0 -221 118.5 -372.5t294.5 -151.5q104 0 170 72q4 41 4 80v659q-106 113 -254 113q-156 0 -244.5 -109
t-88.5 -291z" />
    <glyph glyph-name="b" unicode="b" horiz-adv-x="1206" 
d="M623 1006q231 0 366 -133.5t135 -350.5q0 -236 -162.5 -386t-476.5 -150q-217 0 -438 69v2q55 10 76.5 49t21.5 136v1108q0 57 -35.5 61t-129.5 -29v13l364 172l-10 -80v-559q113 78 289 78zM600 27q324 0 324 383q0 238 -107.5 392t-281.5 154q-115 0 -201 -71v-764
q108 -94 266 -94z" />
    <glyph glyph-name="c" unicode="c" horiz-adv-x="1077" 
d="M608 -14q-223 0 -374.5 132t-151.5 357q0 238 166 384.5t403 146.5q242 0 355 -138l-191 -286h-4q63 162 -3.5 276.5t-217.5 112.5q-139 0 -224 -105.5t-85 -290.5q0 -215 114.5 -357t298.5 -142q84 0 170 29.5t129 87.5l11 -9q-49 -88 -151 -143t-245 -55z" />
    <glyph glyph-name="d" unicode="d" horiz-adv-x="1208" 
d="M1057 168q0 -82 16.5 -119t63.5 -67v-7l-320 64q2 0 2 2q-104 -55 -244 -55q-219 0 -356 126t-137 345q0 236 165 392.5t470 156.5q80 0 151 -13v357q0 57 -34.5 61t-131.5 -29v13l365 172l-10 -80v-1319zM281 567q0 -221 118.5 -372.5t294.5 -151.5q104 0 170 72
q4 41 4 80v659q-106 113 -254 113q-156 0 -244.5 -109t-88.5 -291z" />
    <glyph glyph-name="e" unicode="e" horiz-adv-x="1099" 
d="M1028 205l10 -8q-49 -90 -167.5 -150.5t-270.5 -60.5q-221 0 -369.5 131t-148.5 356q0 240 167 386.5t400 146.5q225 0 328 -144q74 -104 35 -203q-37 -90 -146 -90h-585q2 -213 113.5 -353t293.5 -140q92 0 194.5 34t145.5 95zM575 969q-127 0 -206.5 -97.5
t-87.5 -269.5l503 6q59 0 62 84q2 106 -80 195q-76 82 -191 82z" />
    <glyph glyph-name="f" unicode="f" horiz-adv-x="749" 
d="M766 1575q152 0 352 -98l-164 -144q-66 70 -164 122t-186 52q-229 0 -229 -401v-113h332l-11 -49h-321v-745q0 -92 25.5 -133t111.5 -58v-8h-358l32 127v727q0 27 -8 45.5t-16 27.5t-36 13t-40 4h-55l10 49h145v49q0 242 174.5 387.5t405.5 145.5z" />
    <glyph glyph-name="g" unicode="g" horiz-adv-x="1169" 
d="M717 1006q188 0 340 -76v-1036q0 -49 -96.5 -126t-232.5 -136.5t-234 -59.5q-84 0 -174.5 45t-147.5 147l195 58q88 -180 272 -180q98 0 163.5 75.5t65.5 178.5v176q-113 -86 -293 -86q-219 0 -356 126t-137 345q0 236 165 392.5t470 156.5zM694 45q113 0 174 78v731
q-106 113 -254 113q-156 0 -244.5 -108.5t-88.5 -291.5q0 -221 118.5 -371.5t294.5 -150.5z" />
    <glyph glyph-name="h" unicode="h" 
d="M877 0l12 141v488q0 289 -221 289q-31 0 -65 -7.5t-55.5 -14.5t-58 -27.5t-50 -29t-55.5 -37t-50 -34.5v-569q0 -90 22.5 -132t94.5 -59v-8h-324l18 127v1223q0 57 -35.5 61t-129.5 -29v13l364 172l-10 -80v-674q4 2 42 28.5t50 34t50 30t57.5 31.5t56.5 25.5t64.5 23.5
t62.5 13.5t67 6.5q123 0 208 -82t85 -291v-443q0 -82 16.5 -120.5t63.5 -69.5h-280z" />
    <glyph glyph-name="i" unicode="i" horiz-adv-x="475" 
d="M227 1217q-51 0 -84.5 33.5t-33.5 84.5q0 49 33.5 83t84.5 34q49 0 83 -34t34 -83q0 -51 -34 -84.5t-83 -33.5zM133 0l12 141v787q-45 29 -125 37v8l324 31l-10 -152v-662q0 -82 16.5 -120.5t63.5 -69.5h-281z" />
    <glyph glyph-name="j" unicode="j" horiz-adv-x="454" 
d="M229 1217q-51 0 -84.5 33.5t-33.5 84.5q0 49 33.5 83t84.5 34q49 0 83 -34t34 -83q0 -51 -34 -84.5t-83 -33.5zM336 106q0 -131 16 -249q-63 -104 -176 -180t-233 -95l-4 4q111 41 159.5 130t48.5 251v961q-45 29 -124 37v8l313 31v-898z" />
    <glyph glyph-name="k" unicode="k" horiz-adv-x="1120" 
d="M334 199q0 -90 22.5 -132t94.5 -59v-8h-324l18 127v1223q0 57 -35.5 61t-129.5 -29v13l364 172l-10 -80v-1288zM1120 0h-319v35l-373 436h-82l416 412q78 78 -41 98l4 12h348l-4 -12q-182 -23 -395 -236l-146 -145l287 -330q106 -123 166.5 -177t138.5 -93z" />
    <glyph glyph-name="l" unicode="l" horiz-adv-x="481" 
d="M334 199q0 -90 22.5 -132t94.5 -59v-8h-324l18 127v1223q0 57 -35.5 61t-129.5 -29v13l364 172l-10 -80v-1288z" />
    <glyph glyph-name="m" unicode="m" horiz-adv-x="1839" 
d="M1497 0l12 141v488q0 289 -196 289q-20 0 -42 -4.5t-38 -8.5t-40 -16t-35 -18.5t-38.5 -25t-36 -24.5t-40 -29.5t-37.5 -29.5q10 -61 10 -129v-443q0 -82 16.5 -120.5t63.5 -69.5h-281l12 141v488q0 289 -196 289q-18 0 -34.5 -2.5t-35 -8.5t-32 -10t-34 -16.5
t-30.5 -17.5t-33.5 -21.5t-31 -21.5t-34 -25.5t-32.5 -24.5v-580q0 -82 16.5 -120.5t63.5 -69.5h-281l12 141v787q-45 29 -125 37v8l324 31l-10 -152v-37q88 66 125 91.5t124 62.5t160 37q201 0 254 -207v2q6 6 42 31.5t48.5 35t47 33t54 33.5t53.5 27.5t60.5 24.5
t59.5 13.5t63 6.5q115 0 194 -82t79 -291v-443q0 -82 16.5 -120.5t63.5 -69.5h-281z" />
    <glyph glyph-name="n" unicode="n" 
d="M877 0l12 141v488q0 289 -221 289q-31 0 -65 -7.5t-55.5 -14.5t-58 -27.5t-50 -29t-55.5 -37t-50 -34.5v-578q0 -82 16.5 -120.5t63.5 -69.5h-281l12 141v787q-45 29 -125 37v8l324 31l-10 -152v-39q4 2 42 28.5t50 34t50 30t57.5 31.5t56.5 25.5t64.5 23.5t62.5 13.5
t67 6.5q123 0 208 -82t85 -291v-443q0 -82 16.5 -120.5t63.5 -69.5h-280z" />
    <glyph glyph-name="o" unicode="o" horiz-adv-x="1224" 
d="M612.5 1006q233.5 0 382 -141.5t148.5 -368.5q0 -225 -148.5 -367.5t-382 -142.5t-382 141t-148.5 369q0 225 148.5 367.5t382 142.5zM692 20q121 0 189.5 91.5t68.5 250.5q0 227 -118.5 418t-299.5 191q-121 0 -189.5 -91.5t-68.5 -250.5q0 -227 119 -418t299 -191z" />
    <glyph glyph-name="p" unicode="p" horiz-adv-x="1216" 
d="M586 1006q268 0 408.5 -135.5t140.5 -354.5q0 -233 -154 -381.5t-414 -148.5q-106 0 -223 34v-266q0 -84 21.5 -122t89.5 -68v-6l-392 67v6q53 14 73 46t20 110v1092q-47 31 -136 36v9q290 82 566 82zM643 23q131 0 211 93t80 298q0 246 -110.5 404.5t-293.5 158.5
q-100 0 -186 -39v-805q156 -110 299 -110z" />
    <glyph glyph-name="q" unicode="q" horiz-adv-x="1230" 
d="M774 -315q94 25 94 141v246q-113 -86 -293 -86q-219 0 -356 126t-137 345q0 236 165 392.5t470 156.5q188 0 340 -76v-1153q0 -80 32.5 -131.5t110.5 -98.5zM694 45q113 0 174 78v731q-106 113 -254 113q-156 0 -244.5 -108.5t-88.5 -291.5q0 -221 118.5 -371.5
t294.5 -150.5z" />
    <glyph glyph-name="r" unicode="r" horiz-adv-x="798" 
d="M659 1004q57 0 109 -25l-176 -287h-8q35 102 15.5 149.5t-75.5 47.5q-74 0 -124 -79t-66 -196v-424q0 -82 16.5 -120.5t63.5 -69.5h-279l10 141v787q-45 29 -125 37v8l324 31l-10 -152v-66h26q35 98 116 158t183 60z" />
    <glyph glyph-name="s" unicode="s" horiz-adv-x="946" 
d="M465 -14q-240 0 -393 120l114 191h4q-2 -125 110 -203t243 -78q188 0 188 177q0 96 -64.5 144t-191.5 69q-113 18 -191.5 53t-117.5 80t-54.5 88t-15.5 90q0 133 110.5 211t278.5 78q111 0 211.5 -33t161.5 -84l-129 -193h-4q6 125 -95.5 202t-217.5 77q-92 0 -132 -50.5
t-40 -119.5q0 -98 74.5 -143.5t195.5 -63.5q365 -57 364 -297q0 -139 -110.5 -227t-298.5 -88z" />
    <glyph glyph-name="t" unicode="t" horiz-adv-x="649" 
d="M307 -33l-151 51l6 123v975q0 61 -36 66.5t-136 -27.5v12l377 174l-17 -84v-264h248l-10 -49h-238v-907l248 8v-8l-248 -70h-43z" />
    <glyph glyph-name="u" unicode="u" 
d="M1073 66q43 -29 115 -37v-9l-303 -30v196q-76 -57 -128 -92t-148.5 -71.5t-184.5 -36.5q-51 0 -96 15t-90 53t-71 116t-26 188v441q0 84 -21.5 121.5t-88.5 68.5v4h311l-12 -141v-490q0 -158 61.5 -223t149.5 -65q66 0 132 26.5t104 52t108 78.5v568q0 84 -21.5 121.5
t-89.5 68.5v4h311l-12 -141v-786z" />
    <glyph glyph-name="v" unicode="v" horiz-adv-x="1116" 
d="M764 993h311v-8q-53 -20 -94 -68.5t-96 -171.5l-338 -765h-10l-410 874l-76 139h426v-8q-205 -25 -106 -237l245 -529l230 529q27 63 31 107t-16.5 69.5t-41 37t-55.5 23.5v8z" />
    <glyph glyph-name="w" unicode="w" horiz-adv-x="1638" 
d="M1284 993h313v-8q-55 -20 -96 -68.5t-94 -171.5l-328 -765h-10l-274 602l-258 -602h-11l-399 874l-76 139h424v-8q-203 -25 -106 -237l237 -529l168 406l-104 229l-76 139h424v-8q-203 -25 -107 -237l238 -529l221 529q27 63 30 107t-18.5 69.5t-42 37t-55.5 23.5v8z" />
    <glyph glyph-name="x" unicode="x" horiz-adv-x="1095" 
d="M848 221q129 -186 217 -213v-8h-281l-127 203l-157 229l-242 -282q-90 -104 131 -150h-356q98 55 184 156l260 305l-239 346q-106 158 -207 178v8h295l112 -182l152 -219l215 252q90 104 -131 149h356q-96 -53 -182 -153l-238 -277z" />
    <glyph glyph-name="y" unicode="y" horiz-adv-x="1126" 
d="M770 993h315v-8q-55 -20 -96 -67.5t-94 -172.5l-360 -856q-27 -61 -40.5 -89.5t-44 -77t-61.5 -72t-80 -42t-110 -18.5l-78 91q281 0 375 219l30 71l-399 883l-76 139h420v-8q-201 -25 -106 -237l251 -564l240 564q27 63 30 107t-18.5 69.5t-42 37t-55.5 23.5v8z" />
    <glyph glyph-name="z" unicode="z" horiz-adv-x="1013" 
d="M973 985q-47 -10 -92 -61.5t-123 -184.5l-414 -708h193q166 0 258 58t157 216l-47 -305h-864q100 41 256 311l377 652h-164q-166 0 -258 -58.5t-158 -216.5l47 305h832v-8z" />
    <glyph glyph-name="braceleft" unicode="{" horiz-adv-x="462" 
d="M412 1618q-74 10 -101 -4q-47 -31 -47 -144q0 -100 52.5 -224t52.5 -208q0 -139 -65.5 -230t-139.5 -108q74 -18 139.5 -109t65.5 -231q0 -84 -52.5 -207.5t-52.5 -224.5q0 -78 22.5 -115.5t53.5 -36.5t59 3q8 2 13 2v-21q-236 0 -236 209q0 84 66.5 209t66.5 230
q0 127 -51 204.5t-106 77.5h-60v19h60q55 0 106 77.5t51 204.5q0 104 -66.5 229.5t-66.5 209.5q0 209 236 208v-20z" />
    <glyph glyph-name="bar" unicode="|" horiz-adv-x="299" 
d="M102 -403q18 39 31.5 443t7.5 583q-10 287 -18 966l74 64q-33 -66 -33 -1016q0 -604 12 -977z" />
    <glyph glyph-name="braceright" unicode="}" horiz-adv-x="462" 
d="M311 709h60v-19h-60q-55 0 -106 -77.5t-51 -204.5q0 -104 66.5 -229.5t66.5 -209.5q0 -209 -236 -209v21q74 -10 101 4q47 31 47 143q0 100 -52.5 224t-52.5 208q0 139 65.5 230.5t139.5 109.5q-74 16 -139.5 107.5t-65.5 230.5q0 84 52.5 208t52.5 224q0 78 -22.5 116
t-53.5 37t-60 -3q-8 -2 -12 -2v20q236 0 236 -208q0 -84 -66.5 -209t-66.5 -230q0 -127 51 -204.5t106 -77.5z" />
    <glyph glyph-name="asciitilde" unicode="~" horiz-adv-x="829" 
d="M102 682q86 43 152 43q57 0 160.5 -43t160.5 -43q66 0 152 43v-37q-86 -43 -152 -43q-57 0 -160.5 43t-160.5 43q-66 0 -152 -43v37z" />
    <glyph glyph-name="exclamdown" unicode="&#xa1;" horiz-adv-x="501" 
d="M266 1004q55 0 93 -38t38 -94q0 -53 -37.5 -91t-93.5 -38q-53 0 -91 38t-38 91q0 55 38 93.5t91 38.5zM272 598l88 -823q4 -47 17.5 -63.5t46.5 -20.5v-4l-283 -244l17 84l100 1071h14z" />
    <glyph glyph-name="cent" unicode="&#xa2;" horiz-adv-x="1077" 
d="M694 76q84 0 170 29.5t129 87.5l11 -9q-49 -88 -150.5 -143t-245.5 -55q-102 0 -184 26q-78 -285 -98 -362l-111 -33q27 27 61 129q82 240 97 285q-133 55 -212 169.5t-79 274.5q0 238 166 384.5t403 146.5h23q31 109 88 333l110 33q-25 -25 -57 -121q-57 -168 -84 -250
q186 -25 275 -133l-191 -286h-4q47 127 19.5 224t-117.5 140q-100 -307 -144 -446q-74 -238 -104 -348q98 -76 229 -76zM281 575q0 -246 145 -391q14 43 100 314q66 207 138 465q-31 8 -74 8q-139 0 -224 -106t-85 -290z" />
    <glyph glyph-name="sterling" unicode="&#xa3;" horiz-adv-x="1447" 
d="M1348 84l8 -4q-41 -158 -161 -261.5t-288 -103.5q-66 0 -131 17.5t-98 34t-100.5 56.5t-83.5 48q-78 -150 -240 -150q-82 0 -142.5 39t-60.5 121t61.5 143.5t178.5 61.5q72 0 180 -35l43 424q-164 0 -307 -10q-63 -4 -82 -19l39 97q170 -16 354 -27l39 375
q16 164 71.5 288t131.5 192.5t154.5 101t156.5 32.5q215 0 238 -217l-275 -274l-6 6q61 121 74.5 223.5t-16 157.5t-89.5 55q-25 0 -45 -10t-36.5 -36t-29 -48.5t-25.5 -69.5t-21.5 -78.5t-23.5 -96t-23 -101.5l-125 -504h6q195 -2 456 12q68 4 89 21l-39 -96
q-248 20 -516 24h-7l-110 -448q14 -6 61 -23.5t68.5 -25t64.5 -21.5t73 -21.5t70 -16.5t77.5 -12t76.5 -3q249 0 310 182zM258 -238q137 0 184 134q-78 37 -157 36q-145 0 -146 -82q0 -41 35 -64.5t84 -23.5z" />
    <glyph glyph-name="currency" unicode="&#xa4;" horiz-adv-x="1052" 
d="M840 748q111 -121 110 -285q0 -166 -108 -287l108 -106l-30 -31l-109 106q-125 -111 -285 -110q-164 0 -284 108l-107 -104l-31 31l107 106q-109 121 -109 287t111 287l-109 106l31 33l109 -109q119 109 282 109q166 0 283 -111l111 111l30 -33zM147 463
q0 -160 110 -272.5t269 -112.5q158 0 268.5 112.5t110.5 272.5t-110.5 271.5t-268.5 111.5q-160 0 -269.5 -111.5t-109.5 -271.5z" />
    <glyph glyph-name="yen" unicode="&#xa5;" horiz-adv-x="1576" 
d="M1094 1434h452v-9q-96 -20 -158.5 -60t-125.5 -140l-390 -607q160 0 365 13q68 4 88 20l-39 -96q-188 14 -414 23v-164q156 0 363 12q68 4 90 20l-41 -96q-190 14 -412 23v-256q0 -51 44.5 -75t132.5 -32v-10h-562v10q88 8 132.5 32t44.5 75v260q-186 0 -353 -10
q-63 -4 -82 -19l39 96q180 -18 396 -28v162l-2 4q-184 0 -349 -11q-66 -4 -84 -18l41 96q240 -23 365 -26l-387 624q-96 156 -217 178v9h346l110 -187l361 -590l362 570q33 53 40 89t-14.5 57.5t-54 32.5t-87.5 19v9z" />
    <glyph glyph-name="brokenbar" unicode="&#xa6;" horiz-adv-x="282" 
d="M102 670q12 18 20.5 197.5t8.5 293.5q0 131 -22 461l71 31q-8 -8 -12 -39t-6 -87.5t-3 -103.5t-1 -130v-126q-4 -303 16 -465zM102 -403q12 18 20.5 197t8.5 294q0 131 -22 461l71 31q-8 -8 -12 -39t-6 -87.5t-3 -103.5t-1 -130v-126q-4 -303 16 -465z" />
    <glyph glyph-name="section" unicode="&#xa7;" horiz-adv-x="956" 
d="M631 420q244 -72 243 -264q0 -135 -108.5 -222.5t-292.5 -87.5q-115 0 -220.5 34t-170.5 87l139 189h4q-16 -125 74 -200t211 -75q106 0 164.5 60.5t58.5 148.5q0 78 -59.5 115t-177.5 55q-387 61 -387 313q0 106 69.5 183.5t179.5 101.5q-250 80 -249 283
q0 135 106.5 214t269.5 79q215 0 355 -117l-146 -193h-4q20 125 -58.5 201t-189.5 76q-94 0 -143 -54.5t-49 -134.5q0 -90 71.5 -134t194.5 -64q358 -57 358 -291q0 -104 -66 -189t-177 -114zM250 645q0 -90 71.5 -134t194.5 -65h2q86 -12 150.5 55.5t64.5 155.5
q0 78 -59.5 115t-177.5 55q-111 16 -178.5 -42t-67.5 -140z" />
    <glyph glyph-name="copyright" unicode="&#xa9;" horiz-adv-x="1695" 
d="M847.5 -29q-315.5 0 -535.5 218.5t-220 527.5t220 527t535.5 218t536 -218t220.5 -527t-220.5 -527.5t-536 -218.5zM848 8q301 0 510 207t209 502t-209 501.5t-510 206.5t-510 -206.5t-209 -501.5t209 -502t510 -207zM860 266q-190 0 -321 120t-131 312q0 203 142 329
t349 126q209 0 305 -119l-166 -250q55 141 -4 235.5t-192 94.5q-127 0 -204 -88t-75 -246q2 -182 103.5 -312t261.5 -130q74 0 150.5 28.5t115.5 79.5l8 -6q-43 -78 -131 -126t-211 -48z" />
    <glyph glyph-name="ordfeminine" unicode="&#xaa;" horiz-adv-x="907" 
d="M754 899q0 -53 10 -76.5t41 -44.5v-2l-232 39h2l3 2q-66 -35 -158 -35q-143 0 -230.5 81t-87.5 218q0 152 106.5 252.5t303.5 100.5q133 0 242 -48v-487zM252 1155q0 -141 69.5 -236.5t174.5 -95.5q72 0 108 54q2 12 2 38v422q-68 72 -155 72q-94 0 -146.5 -68.5
t-52.5 -185.5z" />
    <glyph glyph-name="guillemotleft" unicode="&#xab;" horiz-adv-x="706" 
d="M102 526l275 488h12l-192 -488l192 -487h-12zM369 526l274 488h12l-192 -488l192 -487h-12z" />
    <glyph glyph-name="logicalnot" unicode="&#xac;" horiz-adv-x="829" 
d="M727 682v-246h-41v209h-584v37h625z" />
    <glyph glyph-name="registered" unicode="&#xae;" horiz-adv-x="1695" 
d="M847.5 1462q315.5 0 536 -218t220.5 -527t-220.5 -527.5t-536 -218.5t-535.5 218.5t-220 527.5t220 527t535.5 218zM848 8q301 0 510 207t209 502t-209 501.5t-510 206.5t-510 -206.5t-209 -501.5t209 -502t510 -207zM1106 457q68 -100 176 -154h-242v21l-215 315h-116
v-260q0 -47 88 -60v-16h-318v16q88 12 88 60v668q0 47 -88 59v16h402q143 0 225 -55t82 -160q0 -90 -57.5 -156.5t-159.5 -93.5zM709 1092v-400q74 -20 149 -20q92 0 138 43t46 155q0 100 -51 161t-192 61h-90z" />
    <glyph glyph-name="degree" unicode="&#xb0;" horiz-adv-x="909" 
d="M454.5 758q-145.5 0 -249 103.5t-103.5 248.5t103.5 248.5t249 103.5t249 -103.5t103.5 -248.5t-103.5 -248.5t-249 -103.5zM455 786q133 0 228 95.5t95 228.5t-95 228.5t-228 95.5t-228.5 -95.5t-95.5 -228.5t95.5 -228.5t228.5 -95.5z" />
    <glyph glyph-name="plusminus" unicode="&#xb1;" horiz-adv-x="829" 
d="M436 682h291v-37h-291v-311h-41v311h-293v37h293v311h41v-311zM102 0v37h625v-37h-625z" />
    <glyph glyph-name="paragraph" unicode="&#xb6;" horiz-adv-x="1347" 
d="M1317 1423q-156 -18 -156 -106v-1405q0 -88 156 -107v-10h-598v10q156 18 155 107v606h-215q-254 0 -410.5 124t-156.5 335t157 334t410 123h658v-11zM1133 -88v1405q0 53 -32 79.5t-83 26.5t-83 -26.5t-32 -79.5v-1405q0 -53 32 -80t83 -27t83 27t32 80z" />
    <glyph glyph-name="periodcentered" unicode="&#xb7;" horiz-adv-x="669" 
d="M336 432q-55 0 -93 38t-38 93q0 53 38 91t93 38q53 0 91 -38t38 -91q0 -55 -38 -93t-91 -38z" />
    <glyph glyph-name="ordmasculine" unicode="&#xba;" horiz-adv-x="892" 
d="M446.5 1434q153.5 0 249 -89.5t95.5 -236.5q0 -145 -95.5 -235.5t-249 -90.5t-249 89.5t-95.5 236.5q0 145 95.5 235.5t249 90.5zM473 803q80 0 121 69.5t41 190.5q0 147 -58.5 248.5t-156.5 101.5q-80 0 -121 -69.5t-41 -190.5q0 -147 58.5 -248.5t156.5 -101.5z" />
    <glyph glyph-name="guillemotright" unicode="&#xbb;" horiz-adv-x="706" 
d="M338 526l-275 -487h-12l193 487l-193 488h12zM604 526l-274 -487h-13l193 487l-193 488h13z" />
    <glyph glyph-name="questiondown" unicode="&#xbf;" horiz-adv-x="866" 
d="M524 1004q55 0 93 -38t38 -94q0 -53 -37.5 -91t-93.5 -38q-53 0 -91 38t-38 91q0 55 38 93.5t91 38.5zM102 -68q0 129 69 251t189 122q23 0 83.5 -7t91.5 -7q61 0 104 23.5t58.5 66.5t-11.5 109.5t-98 144.5h16q100 -92 138 -188.5t16.5 -166t-82 -114.5t-146.5 -45
q-29 0 -113.5 9t-129.5 9q-141 0 -142 -98q0 -100 93.5 -183t207 -122t205.5 -39l-164 -150q-37 6 -78.5 20.5t-99 45.5t-101.5 72t-75 106t-31 141z" />
    <glyph glyph-name="Agrave" unicode="&#xc0;" horiz-adv-x="1646" 
d="M932 1581l-6 -6l-520 278l79 107zM1403 258q55 -143 95 -192.5t108 -57.5v-8h-576v8q78 6 119 26.5t58.5 72t-23.5 139.5l-41 102h-801l-45 -102q-27 -63 -30 -107.5t19.5 -69t52.5 -38t79 -23.5v-8h-377v8q70 20 114 67.5t97 172.5l455 1048l-5 45l33 23l191 125
q0 -29 45 -139zM356 385h772l-370 926z" />
    <glyph glyph-name="Aacute" unicode="&#xc1;" horiz-adv-x="1646" 
d="M1255 1853l-520 -278l-6 6l447 379zM1403 258q55 -143 95 -192.5t108 -57.5v-8h-576v8q78 6 119 26.5t58.5 72t-23.5 139.5l-41 102h-801l-45 -102q-27 -63 -30 -107.5t19.5 -69t52.5 -38t79 -23.5v-8h-377v8q70 20 114 67.5t97 172.5l455 1048l-5 45l33 23l191 125
q0 -29 45 -139zM356 385h772l-370 926z" />
    <glyph glyph-name="Acircumflex" unicode="&#xc2;" horiz-adv-x="1646" 
d="M1233 1606l-404 254l-403 -254v12l403 342l404 -342v-12zM1403 258q55 -143 95 -192.5t108 -57.5v-8h-576v8q78 6 119 26.5t58.5 72t-23.5 139.5l-41 102h-801l-45 -102q-27 -63 -30 -107.5t19.5 -69t52.5 -38t79 -23.5v-8h-377v8q70 20 114 67.5t97 172.5l455 1048
l-5 45l33 23l191 125q0 -29 45 -139zM356 385h772l-370 926z" />
    <glyph glyph-name="Atilde" unicode="&#xc3;" horiz-adv-x="1646" 
d="M627 1774q-76 0 -123 -76l-4 2l94 160q33 53 80 53q45 0 171 -57.5t185 -57.5q76 0 123 76l4 -2l-92 -158q-31 -53 -82 -53q-47 0 -173 56.5t-183 56.5zM1403 258q55 -143 95 -192.5t108 -57.5v-8h-576v8q78 6 119 26.5t58.5 72t-23.5 139.5l-41 102h-801l-45 -102
q-27 -63 -30 -107.5t19.5 -69t52.5 -38t79 -23.5v-8h-377v8q70 20 114 67.5t97 172.5l455 1048l-5 45l33 23l191 125q0 -29 45 -139zM356 385h772l-370 926z" />
    <glyph glyph-name="Adieresis" unicode="&#xc4;" horiz-adv-x="1646" 
d="M621 1686q-43 0 -73 28.5t-30 73.5q0 41 30 70.5t73 29.5t72.5 -29.5t29.5 -70.5q0 -45 -29.5 -73.5t-72.5 -28.5zM1038 1686q-43 0 -72.5 28.5t-29.5 73.5q0 41 29.5 70.5t72.5 29.5t73 -29.5t30 -70.5q0 -45 -30 -73.5t-73 -28.5zM1403 258q55 -143 95 -192.5
t108 -57.5v-8h-576v8q78 6 119 26.5t58.5 72t-23.5 139.5l-41 102h-801l-45 -102q-27 -63 -30 -107.5t19.5 -69t52.5 -38t79 -23.5v-8h-377v8q70 20 114 67.5t97 172.5l455 1048l-5 45l33 23l191 125q0 -29 45 -139zM356 385h772l-370 926z" />
    <glyph glyph-name="Aring" unicode="&#xc5;" horiz-adv-x="1646" 
d="M829.5 1581q-75.5 0 -130 53.5t-54.5 130.5q0 76 54.5 129.5t130 53.5t129 -53.5t53.5 -129t-53.5 -130t-129 -54.5zM829 1909q-61 0 -103 -42t-42 -102q0 -61 42 -103t103 -42q59 0 101.5 42t42.5 103q0 59 -42.5 101.5t-101.5 42.5zM1403 258q55 -143 95 -192.5
t108 -57.5v-8h-576v8q78 6 119 26.5t58.5 72t-23.5 139.5l-41 102h-801l-45 -102q-27 -63 -30 -107.5t19.5 -69t52.5 -38t79 -23.5v-8h-377v8q70 20 114 67.5t97 172.5l455 1048l-5 45l33 23l191 125q0 -29 45 -139zM356 385h772l-370 926z" />
    <glyph glyph-name="AE" unicode="&#xc6;" horiz-adv-x="2048" 
d="M2009 399l8 -4l-100 -395l-12 -45l-70 45h-1057v10q156 57 156 148v188h-572l-55 -100q-33 -57 -37 -101.5t18.5 -70t55.5 -41t80 -25.5v-8h-383v8q61 18 102 65.5t113 174.5l641 1141q-33 25 -119 34v11h1098l68 -326l-9 -4q-80 115 -129 168t-129 91t-190 38h-344v-668
h287q158 0 223 44t104 163v-446q-39 119 -104.5 162.5t-222.5 43.5h-287v-667h385q84 0 146.5 20.5t121.5 76.5t100 109.5t113 159.5zM385 385h549v932q0 18 -6 35z" />
    <glyph glyph-name="Ccedilla" unicode="&#xc7;" horiz-adv-x="1503" 
d="M977 66q119 0 237.5 46t182.5 126l14 -11q-72 -113 -209 -184.5t-325 -71.5q-41 0 -62 2l-65 -90h36q158 0 243 -47t85 -135q0 -92 -88 -143.5t-211 -51.5q-115 0 -161 42t-21 100h184q0 -20 -4 -46t16.5 -47.5t69.5 -21.5q43 0 87 38t44 81q0 127 -262 127
q-80 0 -145 -12l157 208q-297 33 -492.5 238t-195.5 504q0 172 69.5 315.5t186.5 235.5t265.5 143t308.5 51q344 0 520 -215l-260 -360l-6 2q84 207 -19.5 368.5t-335.5 161.5q-215 0 -357 -153.5t-142 -429.5q0 -319 191.5 -544.5t463.5 -225.5z" />
    <glyph glyph-name="Egrave" unicode="&#xc8;" horiz-adv-x="1300" 
d="M748 1581l-7 -6l-520 278l80 107zM1262 399l8 -4l-101 -395l-12 -45l-70 45h-1056v10q156 57 155 148v1159q0 88 -155 106v11h1097l68 -326l-8 -4q-80 115 -129 168t-129 91t-191 38h-344v-668h287q158 0 223.5 44t104.5 163v-446q-39 119 -104.5 162.5t-223.5 43.5h-287
v-667h385q84 0 146.5 20.5t122 76.5t100.5 109.5t113 159.5z" />
    <glyph glyph-name="Eacute" unicode="&#xc9;" horiz-adv-x="1300" 
d="M1071 1853l-520 -278l-6 6l446 379zM1262 399l8 -4l-101 -395l-12 -45l-70 45h-1056v10q156 57 155 148v1159q0 88 -155 106v11h1097l68 -326l-8 -4q-80 115 -129 168t-129 91t-191 38h-344v-668h287q158 0 223.5 44t104.5 163v-446q-39 119 -104.5 162.5t-223.5 43.5
h-287v-667h385q84 0 146.5 20.5t122 76.5t100.5 109.5t113 159.5z" />
    <glyph glyph-name="Ecircumflex" unicode="&#xca;" horiz-adv-x="1300" 
d="M1049 1606l-404 254l-403 -254v12l403 342l404 -342v-12zM1262 399l8 -4l-101 -395l-12 -45l-70 45h-1056v10q156 57 155 148v1159q0 88 -155 106v11h1097l68 -326l-8 -4q-80 115 -129 168t-129 91t-191 38h-344v-668h287q158 0 223.5 44t104.5 163v-446
q-39 119 -104.5 162.5t-223.5 43.5h-287v-667h385q84 0 146.5 20.5t122 76.5t100.5 109.5t113 159.5z" />
    <glyph glyph-name="Edieresis" unicode="&#xcb;" horiz-adv-x="1300" 
d="M436 1686q-43 0 -72.5 28.5t-29.5 73.5q0 41 29.5 70.5t72.5 29.5t73 -29.5t30 -70.5q0 -45 -30 -73.5t-73 -28.5zM854 1686q-43 0 -72.5 28.5t-29.5 73.5q0 41 29.5 70.5t72.5 29.5t72.5 -29.5t29.5 -70.5q0 -45 -29.5 -73.5t-72.5 -28.5zM1262 399l8 -4l-101 -395
l-12 -45l-70 45h-1056v10q156 57 155 148v1159q0 88 -155 106v11h1097l68 -326l-8 -4q-80 115 -129 168t-129 91t-191 38h-344v-668h287q158 0 223.5 44t104.5 163v-446q-39 119 -104.5 162.5t-223.5 43.5h-287v-667h385q84 0 146.5 20.5t122 76.5t100.5 109.5t113 159.5z
" />
    <glyph glyph-name="Igrave" unicode="&#xcc;" horiz-adv-x="581" 
d="M387 1575l-520 278l80 107l446 -379zM31 0v10q156 18 155 107v1200q0 88 -155 106v11h520v-11q-156 -18 -156 -106v-1200q0 -88 156 -107v-10h-520z" />
    <glyph glyph-name="Iacute" unicode="&#xcd;" horiz-adv-x="581" 
d="M197 1575l-7 6l447 379l80 -107zM31 0v10q156 18 155 107v1200q0 88 -155 106v11h520v-11q-156 -18 -156 -106v-1200q0 -88 156 -107v-10h-520z" />
    <glyph glyph-name="Icircumflex" unicode="&#xce;" horiz-adv-x="581" 
d="M291 1960l403 -342v-12l-403 254l-404 -254v12zM31 0v10q156 18 155 107v1200q0 88 -155 106v11h520v-11q-156 -18 -156 -106v-1200q0 -88 156 -107v-10h-520z" />
    <glyph glyph-name="Idieresis" unicode="&#xcf;" horiz-adv-x="581" 
d="M82 1686q-43 0 -72.5 28.5t-29.5 73.5q0 41 29.5 70.5t72.5 29.5t72.5 -29.5t29.5 -70.5q0 -45 -29.5 -73.5t-72.5 -28.5zM500 1686q-43 0 -73 28.5t-30 73.5q0 41 30 70.5t73 29.5t72.5 -29.5t29.5 -70.5q0 -45 -29.5 -73.5t-72.5 -28.5zM31 0v10q156 18 155 107v1200
q0 88 -155 106v11h520v-11q-156 -18 -156 -106v-1200q0 -88 156 -107v-10h-520z" />
    <glyph glyph-name="Eth" unicode="&#xd0;" horiz-adv-x="1525" 
d="M668 1434q371 0 573.5 -178.5t202.5 -501.5q0 -352 -231.5 -553t-585.5 -201h-596v10q156 57 155 148v516q-125 0 -157 -45h-9l74 164l92 -13v537q0 88 -155 106v11h637zM678 33q264 0 402.5 138t138.5 474q0 346 -155 551t-478 205h-191v-641q162 -10 201 43h8l-74 -164
l-133 16h-2v-559q131 -63 283 -63z" />
    <glyph glyph-name="Ntilde" unicode="&#xd1;" horiz-adv-x="1505" 
d="M551 1774q-76 0 -123 -76l-4 2l94 160q33 53 80 53q45 0 171 -57.5t185 -57.5q76 0 123 76l4 -2l-92 -158q-31 -53 -82 -53q-47 0 -173 56.5t-183 56.5zM1120 1434h355v-11q-39 -4 -61.5 -14t-47.5 -40t-36 -93.5t-11 -163.5v-772q0 -209 10 -393l-4 -4l-1077 1280v-861
q0 -193 41 -268.5t114 -83.5v-10h-352v10q39 4 61.5 14.5t47 40t36 93t11.5 164.5v950q-102 119 -187 162h345q41 -72 75 -111l836 -995v743q0 193 -41 268.5t-115 83.5v11z" />
    <glyph glyph-name="Ograve" unicode="&#xd2;" horiz-adv-x="1726" 
d="M961 1575l-521 278l80 107l447 -379zM864 1462q328 0 549 -203.5t221 -541.5t-221 -542t-549 -204q-330 0 -551 204t-221 542t221 541.5t551 203.5zM946 8q211 0 339 163t128 425q0 207 -80 396.5t-227.5 311t-325.5 121.5q-211 0 -339 -162.5t-128 -422.5
q0 -207 80 -397.5t227.5 -312.5t325.5 -122z" />
    <glyph glyph-name="Oacute" unicode="&#xd3;" horiz-adv-x="1726" 
d="M770 1575l-6 6l446 379l80 -107zM864 1462q328 0 549 -203.5t221 -541.5t-221 -542t-549 -204q-330 0 -551 204t-221 542t221 541.5t551 203.5zM946 8q211 0 339 163t128 425q0 207 -80 396.5t-227.5 311t-325.5 121.5q-211 0 -339 -162.5t-128 -422.5q0 -207 80 -397.5
t227.5 -312.5t325.5 -122z" />
    <glyph glyph-name="Ocircumflex" unicode="&#xd4;" horiz-adv-x="1726" 
d="M864 1960l404 -342v-12l-404 254l-403 -254v12zM864 1462q328 0 549 -203.5t221 -541.5t-221 -542t-549 -204q-330 0 -551 204t-221 542t221 541.5t551 203.5zM946 8q211 0 339 163t128 425q0 207 -80 396.5t-227.5 311t-325.5 121.5q-211 0 -339 -162.5t-128 -422.5
q0 -207 80 -397.5t227.5 -312.5t325.5 -122z" />
    <glyph glyph-name="Otilde" unicode="&#xd5;" horiz-adv-x="1726" 
d="M1018 1661q-47 0 -173 56.5t-183 56.5q-76 0 -123 -76l-4 2l94 160q33 53 80 53q45 0 171 -57.5t185 -57.5q76 0 123 76l4 -2l-92 -158q-31 -53 -82 -53zM864 1462q328 0 549 -203.5t221 -541.5t-221 -542t-549 -204q-330 0 -551 204t-221 542t221 541.5t551 203.5z
M946 8q211 0 339 163t128 425q0 207 -80 396.5t-227.5 311t-325.5 121.5q-211 0 -339 -162.5t-128 -422.5q0 -207 80 -397.5t227.5 -312.5t325.5 -122z" />
    <glyph glyph-name="Odieresis" unicode="&#xd6;" horiz-adv-x="1726" 
d="M655 1686q-43 0 -72.5 28.5t-29.5 73.5q0 41 29.5 70.5t72.5 29.5t73 -29.5t30 -70.5q0 -45 -30 -73.5t-73 -28.5zM1073 1686q-43 0 -72.5 28.5t-29.5 73.5q0 41 29.5 70.5t72.5 29.5t73 -29.5t30 -70.5q0 -45 -30 -73.5t-73 -28.5zM864 1462q328 0 549 -203.5
t221 -541.5t-221 -542t-549 -204q-330 0 -551 204t-221 542t221 541.5t551 203.5zM946 8q211 0 339 163t128 425q0 207 -80 396.5t-227.5 311t-325.5 121.5q-211 0 -339 -162.5t-128 -422.5q0 -207 80 -397.5t227.5 -312.5t325.5 -122z" />
    <glyph glyph-name="multiply" unicode="&#xd7;" horiz-adv-x="700" 
d="M598 881l-219 -217l219 -220l-29 -28l-219 219l-219 -219l-29 28l220 220l-220 217l29 30l219 -219l219 219z" />
    <glyph glyph-name="Oslash" unicode="&#xd8;" horiz-adv-x="1726" 
d="M1405 1266q229 -209 229 -549q0 -338 -221 -542t-549 -204q-287 0 -489 154q-16 -20 -53 -64.5t-56 -66.5l-114 18q37 12 110 90l62 64q-231 209 -232 551q0 338 221.5 541.5t550.5 203.5q281 0 490 -153q37 43 106 129l115 -19q-33 -10 -102 -84zM313 840
q0 -291 150 -529q233 238 381 410q66 74 195.5 223.5t193.5 222.5q-186 258 -453 258q-211 0 -339 -162.5t-128 -422.5zM946 8q211 0 339 163t128 425q0 289 -147 522q-229 -242 -381 -411l-389 -443q184 -256 450 -256z" />
    <glyph glyph-name="Ugrave" unicode="&#xd9;" horiz-adv-x="1464" 
d="M864 1575l-520 278l80 107l446 -379zM741 -29q-70 0 -138 13.5t-146 52.5t-136.5 100.5t-96.5 166t-38 239.5v774q0 88 -155 106v11h520v-11q-156 -18 -156 -106v-809q0 -129 41 -226.5t105.5 -148.5t131 -74.5t132.5 -23.5q68 0 139.5 26.5t139 80t109.5 149.5t42 221
v557q0 195 -44 269.5t-132 82.5v11h375v-11q-39 -4 -61.5 -14t-47.5 -40t-36 -93.5t-11 -163.5v-563q0 -279 -152 -427.5t-385 -148.5z" />
    <glyph glyph-name="Uacute" unicode="&#xda;" horiz-adv-x="1464" 
d="M674 1575l-6 6l446 379l80 -107zM741 -29q-70 0 -138 13.5t-146 52.5t-136.5 100.5t-96.5 166t-38 239.5v774q0 88 -155 106v11h520v-11q-156 -18 -156 -106v-809q0 -129 41 -226.5t105.5 -148.5t131 -74.5t132.5 -23.5q68 0 139.5 26.5t139 80t109.5 149.5t42 221v557
q0 195 -44 269.5t-132 82.5v11h375v-11q-39 -4 -61.5 -14t-47.5 -40t-36 -93.5t-11 -163.5v-563q0 -279 -152 -427.5t-385 -148.5z" />
    <glyph glyph-name="Ucircumflex" unicode="&#xdb;" horiz-adv-x="1464" 
d="M768 1960l403 -342v-12l-403 254l-403 -254v12zM741 -29q-70 0 -138 13.5t-146 52.5t-136.5 100.5t-96.5 166t-38 239.5v774q0 88 -155 106v11h520v-11q-156 -18 -156 -106v-809q0 -129 41 -226.5t105.5 -148.5t131 -74.5t132.5 -23.5q68 0 139.5 26.5t139 80
t109.5 149.5t42 221v557q0 195 -44 269.5t-132 82.5v11h375v-11q-39 -4 -61.5 -14t-47.5 -40t-36 -93.5t-11 -163.5v-563q0 -279 -152 -427.5t-385 -148.5z" />
    <glyph glyph-name="Udieresis" unicode="&#xdc;" horiz-adv-x="1464" 
d="M559 1686q-43 0 -72.5 28.5t-29.5 73.5q0 41 29.5 70.5t72.5 29.5t73 -29.5t30 -70.5q0 -45 -30 -73.5t-73 -28.5zM977 1686q-43 0 -73 28.5t-30 73.5q0 41 30 70.5t73 29.5t72.5 -29.5t29.5 -70.5q0 -45 -29.5 -73.5t-72.5 -28.5zM741 -29q-70 0 -138 13.5t-146 52.5
t-136.5 100.5t-96.5 166t-38 239.5v774q0 88 -155 106v11h520v-11q-156 -18 -156 -106v-809q0 -129 41 -226.5t105.5 -148.5t131 -74.5t132.5 -23.5q68 0 139.5 26.5t139 80t109.5 149.5t42 221v557q0 195 -44 269.5t-132 82.5v11h375v-11q-39 -4 -61.5 -14t-47.5 -40
t-36 -93.5t-11 -163.5v-563q0 -279 -152 -427.5t-385 -148.5z" />
    <glyph glyph-name="Yacute" unicode="&#xdd;" horiz-adv-x="1576" 
d="M1219 1853l-521 -278l-6 6l447 379zM1094 1434h452v-9q-96 -20 -158.5 -60t-125.5 -140l-390 -607v-501q0 -51 44.5 -75t132.5 -32v-10h-562v10q88 8 132.5 32t44.5 75v461l-416 669q-96 156 -217 178v9h346l110 -187l361 -590l362 570q33 53 40 89t-14.5 57.5t-54 32.5
t-87.5 19v9z" />
    <glyph glyph-name="Thorn" unicode="&#xde;" horiz-adv-x="1372" 
d="M760 1169q254 0 397 -102t143 -303q0 -223 -174 -362.5t-460 -139.5h-271v-145q0 -88 156 -107v-10h-520v10q156 18 155 107v1200q0 88 -155 106v11h520v-11q-156 -18 -156 -106v-148h365zM715 303q209 0 295 81t86 312q0 72 -8.5 128.5t-35 116.5t-72.5 100t-128 66
t-193 26h-264v-789q162 -41 320 -41z" />
    <glyph glyph-name="germandbls" unicode="&#xdf;" horiz-adv-x="1374" 
d="M889 829q403 -43 403 -358q0 -207 -171 -339t-492 -132h-160l315 317h9q-53 -70 -80 -115.5t-32 -83.5t26.5 -55.5t101.5 -17.5q135 0 214 79t79 282q0 80 -16.5 142t-59.5 123.5t-136 95.5t-231 34h-90l21 35h168q98 0 155.5 47t57.5 176q0 154 -91.5 244t-279.5 90
q-123 0 -174 -52.5t-51 -191.5v-1032l10 -117h-354v10q156 18 155 107v895q0 102 36 180t91.5 122t131 72.5t144 38t142.5 9.5q203 0 314.5 -71t111.5 -204q0 -117 -81 -207t-187 -123z" />
    <glyph glyph-name="agrave" unicode="&#xe0;" 
d="M721 1141l-6 -6l-520 278l79 107zM1057 168q0 -82 16.5 -119t63.5 -67v-7l-320 64q2 0 2 2q-104 -55 -244 -55q-219 0 -356 126t-137 345q0 236 165 392.5t470 156.5q188 0 340 -76v-762zM281 567q0 -221 118.5 -372.5t294.5 -151.5q104 0 170 72q4 41 4 80v659
q-106 113 -254 113q-156 0 -244.5 -109t-88.5 -291z" />
    <glyph glyph-name="aacute" unicode="&#xe1;" 
d="M1044 1413l-520 -278l-6 6l447 379zM1057 168q0 -82 16.5 -119t63.5 -67v-7l-320 64q2 0 2 2q-104 -55 -244 -55q-219 0 -356 126t-137 345q0 236 165 392.5t470 156.5q188 0 340 -76v-762zM281 567q0 -221 118.5 -372.5t294.5 -151.5q104 0 170 72q4 41 4 80v659
q-106 113 -254 113q-156 0 -244.5 -109t-88.5 -291z" />
    <glyph glyph-name="acircumflex" unicode="&#xe2;" 
d="M1022 1165l-404 254l-403 -254v13l403 342l404 -342v-13zM1057 168q0 -82 16.5 -119t63.5 -67v-7l-320 64q2 0 2 2q-104 -55 -244 -55q-219 0 -356 126t-137 345q0 236 165 392.5t470 156.5q188 0 340 -76v-762zM281 567q0 -221 118.5 -372.5t294.5 -151.5q104 0 170 72
q4 41 4 80v659q-106 113 -254 113q-156 0 -244.5 -109t-88.5 -291z" />
    <glyph glyph-name="atilde" unicode="&#xe3;" 
d="M416 1333q-76 0 -123 -76l-4 3l94 159q33 53 80 54q45 0 171 -57.5t185 -57.5q76 0 123 76l4 -2l-92 -158q-31 -53 -82 -53q-47 0 -173 56t-183 56zM1057 168q0 -82 16.5 -119t63.5 -67v-7l-320 64q2 0 2 2q-104 -55 -244 -55q-219 0 -356 126t-137 345q0 236 165 392.5
t470 156.5q188 0 340 -76v-762zM281 567q0 -221 118.5 -372.5t294.5 -151.5q104 0 170 72q4 41 4 80v659q-106 113 -254 113q-156 0 -244.5 -109t-88.5 -291z" />
    <glyph glyph-name="adieresis" unicode="&#xe4;" 
d="M410 1245q-43 0 -73 29t-30 74q0 41 30 70.5t73 29.5t72.5 -29.5t29.5 -70.5q0 -45 -29.5 -74t-72.5 -29zM827 1245q-43 0 -72.5 29t-29.5 74q0 41 29.5 70.5t72.5 29.5t73 -29.5t30 -70.5q0 -45 -30 -74t-73 -29zM1057 168q0 -82 16.5 -119t63.5 -67v-7l-320 64q2 0 2 2
q-104 -55 -244 -55q-219 0 -356 126t-137 345q0 236 165 392.5t470 156.5q188 0 340 -76v-762zM281 567q0 -221 118.5 -372.5t294.5 -151.5q104 0 170 72q4 41 4 80v659q-106 113 -254 113q-156 0 -244.5 -109t-88.5 -291z" />
    <glyph glyph-name="aring" unicode="&#xe5;" 
d="M618 1141q-78 0 -131 54t-53 130t54.5 129t130 53t129 -53t53.5 -129t-53.5 -130t-129.5 -54zM618 1468q-61 0 -103 -42t-42 -101q0 -61 42 -103t103 -42q59 0 101.5 42t42.5 103q0 59 -42.5 101t-101.5 42zM1057 168q0 -82 16.5 -119t63.5 -67v-7l-320 64q2 0 2 2
q-104 -55 -244 -55q-219 0 -356 126t-137 345q0 236 165 392.5t470 156.5q188 0 340 -76v-762zM281 567q0 -221 118.5 -372.5t294.5 -151.5q104 0 170 72q4 41 4 80v659q-106 113 -254 113q-156 0 -244.5 -109t-88.5 -291z" />
    <glyph glyph-name="ae" unicode="&#xe6;" horiz-adv-x="1816" 
d="M1745 205l10 -8q-49 -90 -168 -150.5t-270 -60.5q-221 0 -369.5 131t-148.5 356q0 190 110 324q-117 172 -301 172q-154 0 -240.5 -108.5t-86.5 -293.5q0 -221 112.5 -370.5t282.5 -149.5q104 0 176 80l8 -6q-100 -135 -301 -135q-211 0 -344 126t-133 345q0 233 162 391
t456 158q190 0 353 -84q139 84 313 84q225 0 328 -144q74 -104 35 -203q-37 -90 -146 -90h-586q2 -213 114 -353t294 -140q92 0 194.5 34t145.5 95zM1292 969q-127 0 -206.5 -97.5t-88.5 -269.5l504 6q59 0 62 84q2 106 -80 195q-76 82 -191 82z" />
    <glyph glyph-name="ccedilla" unicode="&#xe7;" horiz-adv-x="1077" 
d="M694 76q84 0 170 29.5t129 87.5l11 -9q-49 -88 -150.5 -143t-245.5 -55h-22l-74 -103h37q158 0 243 -47t85 -135q0 -92 -88.5 -143.5t-210.5 -51.5q-115 0 -161 42t-22 100h185q0 -20 -4.5 -46t16 -47.5t70.5 -21.5q43 0 87 38t44 81q0 127 -263 127q-80 0 -145 -12
l168 221q-203 18 -337 147t-134 340q0 238 166 384.5t403 146.5q242 0 355 -138l-191 -286h-4q63 162 -3.5 276.5t-217.5 112.5q-139 0 -224 -105.5t-85 -290.5q0 -215 114.5 -357t298.5 -142z" />
    <glyph glyph-name="egrave" unicode="&#xe8;" horiz-adv-x="1099" 
d="M684 1141l-6 -6l-520 278l80 107zM1028 205l10 -8q-49 -90 -167.5 -150.5t-270.5 -60.5q-221 0 -369.5 131t-148.5 356q0 240 167 386.5t400 146.5q225 0 328 -144q74 -104 35 -203q-37 -90 -146 -90h-585q2 -213 113.5 -353t293.5 -140q92 0 194.5 34t145.5 95zM575 969
q-127 0 -206.5 -97.5t-87.5 -269.5l503 6q59 0 62 84q2 106 -80 195q-76 82 -191 82z" />
    <glyph glyph-name="eacute" unicode="&#xe9;" horiz-adv-x="1099" 
d="M1008 1413l-521 -278l-6 6l447 379zM1028 205l10 -8q-49 -90 -167.5 -150.5t-270.5 -60.5q-221 0 -369.5 131t-148.5 356q0 240 167 386.5t400 146.5q225 0 328 -144q74 -104 35 -203q-37 -90 -146 -90h-585q2 -213 113.5 -353t293.5 -140q92 0 194.5 34t145.5 95z
M575 969q-127 0 -206.5 -97.5t-87.5 -269.5l503 6q59 0 62 84q2 106 -80 195q-76 82 -191 82z" />
    <glyph glyph-name="ecircumflex" unicode="&#xea;" horiz-adv-x="1099" 
d="M985 1165l-403 254l-404 -254v13l404 342l403 -342v-13zM1028 205l10 -8q-49 -90 -167.5 -150.5t-270.5 -60.5q-221 0 -369.5 131t-148.5 356q0 240 167 386.5t400 146.5q225 0 328 -144q74 -104 35 -203q-37 -90 -146 -90h-585q2 -213 113.5 -353t293.5 -140
q92 0 194.5 34t145.5 95zM575 969q-127 0 -206.5 -97.5t-87.5 -269.5l503 6q59 0 62 84q2 106 -80 195q-76 82 -191 82z" />
    <glyph glyph-name="edieresis" unicode="&#xeb;" horiz-adv-x="1099" 
d="M373 1245q-43 0 -73 29t-30 74q0 41 30 70.5t73 29.5t72.5 -29.5t29.5 -70.5q0 -45 -29.5 -74t-72.5 -29zM791 1245q-43 0 -73 29t-30 74q0 41 30 70.5t73 29.5t72.5 -29.5t29.5 -70.5q0 -45 -29.5 -74t-72.5 -29zM1028 205l10 -8q-49 -90 -167.5 -150.5t-270.5 -60.5
q-221 0 -369.5 131t-148.5 356q0 240 167 386.5t400 146.5q225 0 328 -144q74 -104 35 -203q-37 -90 -146 -90h-585q2 -213 113.5 -353t293.5 -140q92 0 194.5 34t145.5 95zM575 969q-127 0 -206.5 -97.5t-87.5 -269.5l503 6q59 0 62 84q2 106 -80 195q-76 82 -191 82z" />
    <glyph glyph-name="igrave" unicode="&#xec;" horiz-adv-x="475" 
d="M330 1135l-520 278l79 107l447 -379zM135 0l10 141v787q-45 29 -125 37v8l314 31v-814q0 -82 16.5 -120.5t63.5 -69.5h-279z" />
    <glyph glyph-name="iacute" unicode="&#xed;" horiz-adv-x="475" 
d="M139 1135l-6 6l447 379l79 -107zM135 0l10 141v787q-45 29 -125 37v8l314 31v-814q0 -82 16.5 -120.5t63.5 -69.5h-279z" />
    <glyph glyph-name="icircumflex" unicode="&#xee;" horiz-adv-x="475" 
d="M233 1520l404 -342v-13l-404 254l-403 -254v13zM135 0l10 141v787q-45 29 -125 37v8l314 31v-814q0 -82 16.5 -120.5t63.5 -69.5h-279z" />
    <glyph glyph-name="idieresis" unicode="&#xef;" horiz-adv-x="475" 
d="M25 1245q-43 0 -73 29t-30 74q0 41 30 70.5t73 29.5t72.5 -29.5t29.5 -70.5q0 -45 -29.5 -74t-72.5 -29zM442 1245q-43 0 -72.5 29t-29.5 74q0 41 29.5 70.5t72.5 29.5t73 -29.5t30 -70.5q0 -45 -30 -74t-73 -29zM135 0l10 141v787q-45 29 -125 37v8l314 31v-814
q0 -82 16.5 -120.5t63.5 -69.5h-279z" />
    <glyph glyph-name="eth" unicode="&#xf0;" horiz-adv-x="1208" 
d="M1057 168q0 -82 16.5 -119t63.5 -67v-7l-320 64q2 0 2 2q-104 -55 -244 -55q-219 0 -356 126t-137 345q0 236 165 392.5t470 156.5q80 0 151 -13v164v45l-192 -88l-10 21l200 102q-10 162 -78.5 203t-248.5 26v13q160 29 262 24.5t155.5 -45.5t77.5 -135l88 45l15 -43
l-95 -43q14 -98 15 -264v-850zM281 567q0 -221 118.5 -372.5t294.5 -151.5q104 0 170 72q4 41 4 80v659q-106 113 -254 113q-156 0 -244.5 -109t-88.5 -291z" />
    <glyph glyph-name="ntilde" unicode="&#xf1;" 
d="M401 1333q-76 0 -122 -76l-5 3l95 159q33 53 80 54q45 0 170.5 -57.5t185.5 -57.5q76 0 123 76l4 -2l-92 -158q-31 -53 -82 -53q-47 0 -173.5 56t-183.5 56zM877 0l12 141v488q0 289 -221 289q-31 0 -65 -7.5t-55.5 -14.5t-58 -27.5t-50 -29t-55.5 -37t-50 -34.5v-578
q0 -82 16.5 -120.5t63.5 -69.5h-281l12 141v787q-45 29 -125 37v8l324 31l-10 -152v-39q4 2 42 28.5t50 34t50 30t57.5 31.5t56.5 25.5t64.5 23.5t62.5 13.5t67 6.5q123 0 208 -82t85 -291v-443q0 -82 16.5 -120.5t63.5 -69.5h-280z" />
    <glyph glyph-name="ograve" unicode="&#xf2;" horiz-adv-x="1224" 
d="M709 1135l-521 278l80 107l447 -379zM612.5 1006q233.5 0 382 -141.5t148.5 -368.5q0 -225 -148.5 -367.5t-382 -142.5t-382 141t-148.5 369q0 225 148.5 367.5t382 142.5zM692 20q121 0 189.5 91.5t68.5 250.5q0 227 -118.5 418t-299.5 191q-121 0 -189.5 -91.5
t-68.5 -250.5q0 -227 119 -418t299 -191z" />
    <glyph glyph-name="oacute" unicode="&#xf3;" horiz-adv-x="1224" 
d="M518 1135l-6 6l446 379l80 -107zM612.5 1006q233.5 0 382 -141.5t148.5 -368.5q0 -225 -148.5 -367.5t-382 -142.5t-382 141t-148.5 369q0 225 148.5 367.5t382 142.5zM692 20q121 0 189.5 91.5t68.5 250.5q0 227 -118.5 418t-299.5 191q-121 0 -189.5 -91.5
t-68.5 -250.5q0 -227 119 -418t299 -191z" />
    <glyph glyph-name="ocircumflex" unicode="&#xf4;" horiz-adv-x="1224" 
d="M612 1520l404 -342v-13l-404 254l-403 -254v13zM612.5 1006q233.5 0 382 -141.5t148.5 -368.5q0 -225 -148.5 -367.5t-382 -142.5t-382 141t-148.5 369q0 225 148.5 367.5t382 142.5zM692 20q121 0 189.5 91.5t68.5 250.5q0 227 -118.5 418t-299.5 191
q-121 0 -189.5 -91.5t-68.5 -250.5q0 -227 119 -418t299 -191z" />
    <glyph glyph-name="otilde" unicode="&#xf5;" horiz-adv-x="1224" 
d="M766 1221q-47 0 -173 56t-183 56q-76 0 -123 -76l-4 3l94 159q33 53 80 54q45 0 171 -57.5t185 -57.5q76 0 123 76l4 -2l-92 -158q-31 -53 -82 -53zM612.5 1006q233.5 0 382 -141.5t148.5 -368.5q0 -225 -148.5 -367.5t-382 -142.5t-382 141t-148.5 369
q0 225 148.5 367.5t382 142.5zM692 20q121 0 189.5 91.5t68.5 250.5q0 227 -118.5 418t-299.5 191q-121 0 -189.5 -91.5t-68.5 -250.5q0 -227 119 -418t299 -191z" />
    <glyph glyph-name="odieresis" unicode="&#xf6;" horiz-adv-x="1224" 
d="M403 1245q-43 0 -72.5 29t-29.5 74q0 41 29.5 70.5t72.5 29.5t73 -29.5t30 -70.5q0 -45 -30 -74t-73 -29zM821 1245q-43 0 -72.5 29t-29.5 74q0 41 29.5 70.5t72.5 29.5t73 -29.5t30 -70.5q0 -45 -30 -74t-73 -29zM612.5 1006q233.5 0 382 -141.5t148.5 -368.5
q0 -225 -148.5 -367.5t-382 -142.5t-382 141t-148.5 369q0 225 148.5 367.5t382 142.5zM692 20q121 0 189.5 91.5t68.5 250.5q0 227 -118.5 418t-299.5 191q-121 0 -189.5 -91.5t-68.5 -250.5q0 -227 119 -418t299 -191z" />
    <glyph glyph-name="divide" unicode="&#xf7;" horiz-adv-x="829" 
d="M416 842q-33 0 -55.5 22.5t-22.5 55.5q0 31 22.5 52t55.5 21q31 0 53.5 -21.5t22.5 -51.5q0 -33 -22.5 -55.5t-53.5 -22.5zM727 645h-625v37h625v-37zM416 485q31 0 53.5 -22.5t22.5 -54.5q0 -31 -23 -52.5t-53 -21.5q-33 0 -55.5 21.5t-22.5 52.5q0 33 22.5 55t55.5 22z
" />
    <glyph glyph-name="oslash" unicode="&#xf8;" horiz-adv-x="1224" 
d="M993 864q150 -143 150 -368.5t-148.5 -367.5t-382.5 -142q-186 0 -325 94q-20 -27 -66 -80l-115 18q39 14 107 91l18 18q-150 143 -149.5 368.5t149 368t381.5 142.5q188 0 324 -95l68 82l114 -18q-33 -10 -98 -84zM274 629q0 -197 91 -367q141 141 229 242
q80 88 237 278q-125 188 -299 189q-121 0 -189.5 -91t-68.5 -251zM692 20q121 0 189.5 91.5t68.5 250.5q0 195 -90 369q-143 -143 -229 -242q-82 -90 -238 -278q121 -191 299 -191z" />
    <glyph glyph-name="ugrave" unicode="&#xf9;" 
d="M727 1141l-6 -6l-520 278l80 107zM1073 66q43 -29 115 -37v-9l-303 -30v196q-76 -57 -128 -92t-148.5 -71.5t-184.5 -36.5q-51 0 -96 15t-90 53t-71 116t-26 188v441q0 84 -21.5 121.5t-88.5 68.5v4h311l-12 -141v-490q0 -158 61.5 -223t149.5 -65q66 0 132 26.5t104 52
t108 78.5v568q0 84 -21.5 121.5t-89.5 68.5v4h311l-12 -141v-786z" />
    <glyph glyph-name="uacute" unicode="&#xfa;" 
d="M1051 1413l-521 -278l-6 6l447 379zM1073 66q43 -29 115 -37v-9l-303 -30v196q-76 -57 -128 -92t-148.5 -71.5t-184.5 -36.5q-51 0 -96 15t-90 53t-71 116t-26 188v441q0 84 -21.5 121.5t-88.5 68.5v4h311l-12 -141v-490q0 -158 61.5 -223t149.5 -65q66 0 132 26.5
t104 52t108 78.5v568q0 84 -21.5 121.5t-89.5 68.5v4h311l-12 -141v-786z" />
    <glyph glyph-name="ucircumflex" unicode="&#xfb;" 
d="M1028 1165l-403 254l-404 -254v13l404 342l403 -342v-13zM1073 66q43 -29 115 -37v-9l-303 -30v196q-76 -57 -128 -92t-148.5 -71.5t-184.5 -36.5q-51 0 -96 15t-90 53t-71 116t-26 188v441q0 84 -21.5 121.5t-88.5 68.5v4h311l-12 -141v-490q0 -158 61.5 -223t149.5 -65
q66 0 132 26.5t104 52t108 78.5v568q0 84 -21.5 121.5t-89.5 68.5v4h311l-12 -141v-786z" />
    <glyph glyph-name="udieresis" unicode="&#xfc;" 
d="M416 1245q-43 0 -73 29t-30 74q0 41 30 70.5t73 29.5t72.5 -29.5t29.5 -70.5q0 -45 -29.5 -74t-72.5 -29zM834 1245q-43 0 -73 29t-30 74q0 41 30 70.5t73 29.5t72.5 -29.5t29.5 -70.5q0 -45 -29.5 -74t-72.5 -29zM1073 66q43 -29 115 -37v-9l-303 -30v196
q-76 -57 -128 -92t-148.5 -71.5t-184.5 -36.5q-51 0 -96 15t-90 53t-71 116t-26 188v441q0 84 -21.5 121.5t-88.5 68.5v4h311l-12 -141v-490q0 -158 61.5 -223t149.5 -65q66 0 132 26.5t104 52t108 78.5v568q0 84 -21.5 121.5t-89.5 68.5v4h311l-12 -141v-786z" />
    <glyph glyph-name="yacute" unicode="&#xfd;" horiz-adv-x="1126" 
d="M985 1413l-520 -278l-6 6l446 379zM770 993h315v-8q-55 -20 -96 -67.5t-94 -172.5l-360 -856q-27 -61 -40.5 -89.5t-44 -77t-61.5 -72t-80 -42t-110 -18.5l-78 91q281 0 375 219l30 71l-399 883l-76 139h420v-8q-201 -25 -106 -237l251 -564l240 564q27 63 30 107
t-18.5 69.5t-42 37t-55.5 23.5v8z" />
    <glyph glyph-name="thorn" unicode="&#xfe;" horiz-adv-x="1204" 
d="M608 1006q238 0 376 -140.5t138 -359.5q0 -229 -158.5 -374.5t-457.5 -145.5q-100 0 -172 12v-250q0 -80 15.5 -120t53.5 -70l-309 61q51 31 51 156v1575q0 57 -35.5 61t-129.5 -29v13l364 172l-10 -80v-555q112 74 274 74zM590 27q326 0 325 393q0 236 -104 390.5
t-279 154.5q-113 0 -198 -76v-774q109 -88 256 -88z" />
    <glyph glyph-name="ydieresis" unicode="&#xff;" horiz-adv-x="1126" 
d="M350 1245q-43 0 -72.5 29t-29.5 74q0 41 29.5 70.5t72.5 29.5t73 -29.5t30 -70.5q0 -45 -30 -74t-73 -29zM768 1245q-43 0 -72.5 29t-29.5 74q0 41 29.5 70.5t72.5 29.5t72.5 -29.5t29.5 -70.5q0 -45 -29.5 -74t-72.5 -29zM770 993h315v-8q-55 -20 -96 -67.5t-94 -172.5
l-360 -856q-27 -61 -40.5 -89.5t-44 -77t-61.5 -72t-80 -42t-110 -18.5l-78 91q281 0 375 219l30 71l-399 883l-76 139h420v-8q-201 -25 -106 -237l251 -564l240 564q27 63 30 107t-18.5 69.5t-42 37t-55.5 23.5v8z" />
    <glyph glyph-name="Amacron" unicode="&#x100;" horiz-adv-x="1646" 
d="M1169 1776v-41h-682v41h682zM1403 258q55 -143 95 -192.5t108 -57.5v-8h-576v8q78 6 119 26.5t58.5 72t-23.5 139.5l-41 102h-801l-45 -102q-27 -63 -30 -107.5t19.5 -69t52.5 -38t79 -23.5v-8h-377v8q70 20 114 67.5t97 172.5l455 1048l-5 45l33 23l191 125
q0 -29 45 -139zM356 385h772l-370 926z" />
    <glyph glyph-name="amacron" unicode="&#x101;" 
d="M958 1335v-41h-682v41h682zM1057 168q0 -82 16.5 -119t63.5 -67v-7l-320 64q2 0 2 2q-104 -55 -244 -55q-219 0 -356 126t-137 345q0 236 165 392.5t470 156.5q188 0 340 -76v-762zM281 567q0 -221 118.5 -372.5t294.5 -151.5q104 0 170 72q4 41 4 80v659
q-106 113 -254 113q-156 0 -244.5 -109t-88.5 -291z" />
    <glyph glyph-name="Abreve" unicode="&#x102;" horiz-adv-x="1646" 
d="M829 1606q-121 0 -198.5 75.5t-77.5 192.5h16q0 -76 74 -131t186.5 -55t185 55t72.5 131h17q0 -117 -78 -192.5t-197 -75.5zM1403 258q55 -143 95 -192.5t108 -57.5v-8h-576v8q78 6 119 26.5t58.5 72t-23.5 139.5l-41 102h-801l-45 -102q-27 -63 -30 -107.5t19.5 -69
t52.5 -38t79 -23.5v-8h-377v8q70 20 114 67.5t97 172.5l455 1048l-5 45l33 23l191 125q0 -29 45 -139zM356 385h772l-370 926z" />
    <glyph glyph-name="abreve" unicode="&#x103;" 
d="M618 1165q-121 0 -198.5 76t-77.5 193h16q0 -76 74 -131.5t186.5 -55.5t185.5 55.5t73 131.5h16q0 -117 -78 -193t-197 -76zM1057 168q0 -82 16.5 -119t63.5 -67v-7l-320 64q2 0 2 2q-104 -55 -244 -55q-219 0 -356 126t-137 345q0 236 165 392.5t470 156.5
q188 0 340 -76v-762zM281 567q0 -221 118.5 -372.5t294.5 -151.5q104 0 170 72q4 41 4 80v659q-106 113 -254 113q-156 0 -244.5 -109t-88.5 -291z" />
    <glyph glyph-name="Aogonek" unicode="&#x104;" horiz-adv-x="1646" 
d="M1421 0q-94 0 -183 -54.5t-89 -127.5q0 -33 19.5 -55.5t54 -30.5t77.5 -2t95.5 34.5t101.5 77.5l6 -6l-178 -280q-229 23 -229 196q0 147 143 248h-209v8q78 6 119 26.5t58.5 72t-23.5 139.5l-41 102h-801l-45 -102q-27 -63 -30 -107.5t19.5 -69t52.5 -38t79 -23.5v-8
h-377v8q70 20 114 67.5t97 172.5l455 1048l-5 45l33 23l191 125q0 -29 45 -139l432 -1092q55 -143 95 -192.5t108 -57.5v-8h-185zM356 385h772l-370 926z" />
    <glyph glyph-name="aogonek" unicode="&#x105;" 
d="M924 18q-92 -6 -172 -59t-80 -123q0 -33 19.5 -55.5t54 -30.5t77.5 -2t95.5 35t101.5 78l6 -6l-178 -281q-229 23 -230 197q0 141 136 241q-86 -27 -179 -26q-219 0 -356 126t-137 345q0 236 165 392.5t470 156.5q188 0 340 -76v-762q0 -82 16.5 -119t63.5 -67v-7z
M281 567q0 -221 118.5 -372.5t294.5 -151.5q104 0 170 72q4 41 4 80v659q-106 113 -254 113q-156 0 -244.5 -109t-88.5 -291z" />
    <glyph glyph-name="Cacute" unicode="&#x106;" horiz-adv-x="1503" 
d="M745 1575l-6 6l447 379l80 -107zM1411 227q-72 -113 -209 -184.5t-325 -71.5q-330 0 -557.5 210t-227.5 536q0 172 69.5 315.5t186.5 235.5t265.5 143t308.5 51q344 0 520 -215l-260 -360l-6 2q84 207 -19.5 368.5t-335.5 161.5q-215 0 -357 -153.5t-142 -429.5
q0 -319 191.5 -544.5t463.5 -225.5q119 0 237.5 46t182.5 126z" />
    <glyph glyph-name="cacute" unicode="&#x107;" horiz-adv-x="1077" 
d="M487 1135l-6 6l447 379l80 -107zM608 -14q-223 0 -374.5 132t-151.5 357q0 238 166 384.5t403 146.5q242 0 355 -138l-191 -286h-4q63 162 -3.5 276.5t-217.5 112.5q-139 0 -224 -105.5t-85 -290.5q0 -215 114.5 -357t298.5 -142q84 0 170 29.5t129 87.5l11 -9
q-49 -88 -151 -143t-245 -55z" />
    <glyph glyph-name="Cdotaccent" unicode="&#x10a;" horiz-adv-x="1503" 
d="M840 1686q-43 0 -73 28.5t-30 73.5q0 41 30 70.5t73 29.5t72.5 -29.5t29.5 -70.5q0 -45 -29.5 -73.5t-72.5 -28.5zM1411 227q-72 -113 -209 -184.5t-325 -71.5q-330 0 -557.5 210t-227.5 536q0 172 69.5 315.5t186.5 235.5t265.5 143t308.5 51q344 0 520 -215l-260 -360
l-6 2q84 207 -19.5 368.5t-335.5 161.5q-215 0 -357 -153.5t-142 -429.5q0 -319 191.5 -544.5t463.5 -225.5q119 0 237.5 46t182.5 126z" />
    <glyph glyph-name="cdotaccent" unicode="&#x10b;" horiz-adv-x="1077" 
d="M582 1245q-43 0 -73 29t-30 74q0 41 30 70.5t73 29.5t72.5 -29.5t29.5 -70.5q0 -45 -29.5 -74t-72.5 -29zM608 -14q-223 0 -374.5 132t-151.5 357q0 238 166 384.5t403 146.5q242 0 355 -138l-191 -286h-4q63 162 -3.5 276.5t-217.5 112.5q-139 0 -224 -105.5t-85 -290.5
q0 -215 114.5 -357t298.5 -142q84 0 170 29.5t129 87.5l11 -9q-49 -88 -151 -143t-245 -55z" />
    <glyph glyph-name="Ccaron" unicode="&#x10c;" horiz-adv-x="1503" 
d="M840 1606l-404 342v12l404 -254l403 254v-12zM1411 227q-72 -113 -209 -184.5t-325 -71.5q-330 0 -557.5 210t-227.5 536q0 172 69.5 315.5t186.5 235.5t265.5 143t308.5 51q344 0 520 -215l-260 -360l-6 2q84 207 -19.5 368.5t-335.5 161.5q-215 0 -357 -153.5
t-142 -429.5q0 -319 191.5 -544.5t463.5 -225.5q119 0 237.5 46t182.5 126z" />
    <glyph glyph-name="ccaron" unicode="&#x10d;" horiz-adv-x="1077" 
d="M582 1165l-404 342v13l404 -254l403 254v-13zM608 -14q-223 0 -374.5 132t-151.5 357q0 238 166 384.5t403 146.5q242 0 355 -138l-191 -286h-4q63 162 -3.5 276.5t-217.5 112.5q-139 0 -224 -105.5t-85 -290.5q0 -215 114.5 -357t298.5 -142q84 0 170 29.5t129 87.5
l11 -9q-49 -88 -151 -143t-245 -55z" />
    <glyph glyph-name="Dcaron" unicode="&#x10e;" horiz-adv-x="1525" 
d="M1141 1948l-404 -342l-403 342v12l403 -254l404 254v-12zM668 1434q371 0 573.5 -178.5t202.5 -501.5q0 -352 -231.5 -553t-585.5 -201h-596v10q156 57 155 148v1159q0 88 -155 106v11h637zM678 33q264 0 402.5 138t138.5 474q0 346 -155 551t-478 205h-191v-1305
q131 -63 283 -63z" />
    <glyph glyph-name="dcaron" unicode="&#x10f;" horiz-adv-x="1208" 
d="M936 1696l403 254v-13l-403 -342l-404 342v13zM1057 168q0 -82 16.5 -119t63.5 -67v-7l-320 64q2 0 2 2q-104 -55 -244 -55q-219 0 -356 126t-137 345q0 236 165 392.5t470 156.5q80 0 151 -13v357q0 57 -34.5 61t-131.5 -29v13l365 172l-10 -80v-1319zM281 567
q0 -221 118.5 -372.5t294.5 -151.5q104 0 170 72q4 41 4 80v659q-106 113 -254 113q-156 0 -244.5 -109t-88.5 -291z" />
    <glyph glyph-name="Dcroat" unicode="&#x110;" horiz-adv-x="1525" 
d="M668 1434q371 0 573.5 -178.5t202.5 -501.5q0 -352 -231.5 -553t-585.5 -201h-596v10q156 57 155 148v516q-125 0 -157 -45h-9l74 164l92 -13v537q0 88 -155 106v11h637zM678 33q264 0 402.5 138t138.5 474q0 346 -155 551t-478 205h-191v-641q162 -10 201 43h8l-74 -164
l-133 16h-2v-559q131 -63 283 -63z" />
    <glyph glyph-name="dcroat" unicode="&#x111;" horiz-adv-x="1208" 
d="M1057 168q0 -82 16.5 -119t63.5 -67v-7l-320 64q2 0 2 2q-104 -55 -244 -55q-219 0 -356 126t-137 345q0 236 165 392.5t470 156.5q80 0 151 -13v156q-166 10 -204 -43h-9l74 164l133 -17h6v97q0 57 -34.5 61t-131.5 -29v13l365 172l-10 -80v-252q139 -4 174 45h8
l-74 -164l-108 14v-962zM281 567q0 -221 118.5 -372.5t294.5 -151.5q104 0 170 72q4 41 4 80v659q-106 113 -254 113q-156 0 -244.5 -109t-88.5 -291z" />
    <glyph glyph-name="Emacron" unicode="&#x112;" horiz-adv-x="1300" 
d="M985 1776v-41h-682v41h682zM1262 399l8 -4l-101 -395l-12 -45l-70 45h-1056v10q156 57 155 148v1159q0 88 -155 106v11h1097l68 -326l-8 -4q-80 115 -129 168t-129 91t-191 38h-344v-668h287q158 0 223.5 44t104.5 163v-446q-39 119 -104.5 162.5t-223.5 43.5h-287v-667
h385q84 0 146.5 20.5t122 76.5t100.5 109.5t113 159.5z" />
    <glyph glyph-name="emacron" unicode="&#x113;" horiz-adv-x="1099" 
d="M922 1335v-41h-682v41h682zM1028 205l10 -8q-49 -90 -167.5 -150.5t-270.5 -60.5q-221 0 -369.5 131t-148.5 356q0 240 167 386.5t400 146.5q225 0 328 -144q74 -104 35 -203q-37 -90 -146 -90h-585q2 -213 113.5 -353t293.5 -140q92 0 194.5 34t145.5 95zM575 969
q-127 0 -206.5 -97.5t-87.5 -269.5l503 6q59 0 62 84q2 106 -80 195q-76 82 -191 82z" />
    <glyph glyph-name="Edotaccent" unicode="&#x116;" horiz-adv-x="1300" 
d="M645 1686q-43 0 -72.5 28.5t-29.5 73.5q0 41 29.5 70.5t72.5 29.5t73 -29.5t30 -70.5q0 -45 -30 -73.5t-73 -28.5zM1262 399l8 -4l-101 -395l-12 -45l-70 45h-1056v10q156 57 155 148v1159q0 88 -155 106v11h1097l68 -326l-8 -4q-80 115 -129 168t-129 91t-191 38h-344
v-668h287q158 0 223.5 44t104.5 163v-446q-39 119 -104.5 162.5t-223.5 43.5h-287v-667h385q84 0 146.5 20.5t122 76.5t100.5 109.5t113 159.5z" />
    <glyph glyph-name="edotaccent" unicode="&#x117;" horiz-adv-x="1099" 
d="M582 1245q-43 0 -73 29t-30 74q0 41 30 70.5t73 29.5t72.5 -29.5t29.5 -70.5q0 -45 -29.5 -74t-72.5 -29zM1028 205l10 -8q-49 -90 -167.5 -150.5t-270.5 -60.5q-221 0 -369.5 131t-148.5 356q0 240 167 386.5t400 146.5q225 0 328 -144q74 -104 35 -203
q-37 -90 -146 -90h-585q2 -213 113.5 -353t293.5 -140q92 0 194.5 34t145.5 95zM575 969q-127 0 -206.5 -97.5t-87.5 -269.5l503 6q59 0 62 84q2 106 -80 195q-76 82 -191 82z" />
    <glyph glyph-name="Eogonek" unicode="&#x118;" horiz-adv-x="1300" 
d="M1262 399l8 -4l-101 -395l-12 -45l-70 45h-61q-94 0 -183 -54.5t-89 -127.5q0 -33 19.5 -55.5t54 -30.5t77.5 -2t95.5 34.5t101.5 77.5l6 -6l-178 -280q-229 23 -230 196q0 147 144 248h-813v10q156 57 155 148v1159q0 88 -155 106v11h1097l68 -326l-8 -4
q-80 115 -129 168t-129 91t-191 38h-344v-668h287q158 0 223.5 44t104.5 163v-446q-39 119 -104.5 162.5t-223.5 43.5h-287v-667h385q84 0 146.5 20.5t122 76.5t100.5 109.5t113 159.5z" />
    <glyph glyph-name="eogonek" unicode="&#x119;" horiz-adv-x="1099" 
d="M606 -14q-94 0 -183 -54.5t-89 -128.5q0 -33 19.5 -55t54 -30.5t77.5 -2.5t95.5 35t101.5 78l6 -6l-178 -281q-229 23 -229 197q0 82 48 151.5t122 112.5q-166 41 -267.5 164t-101.5 307q0 240 167 386.5t400 146.5q225 0 328 -144q74 -104 35 -203q-37 -90 -146 -90
h-585q2 -213 113.5 -353t293.5 -140q92 0 194.5 33.5t145.5 95.5l10 -8q-49 -88 -165.5 -148.5t-266.5 -62.5zM575 969q-127 0 -206.5 -97.5t-87.5 -269.5l503 6q59 0 62 84q2 106 -80 195q-76 82 -191 82z" />
    <glyph glyph-name="Ecaron" unicode="&#x11a;" horiz-adv-x="1300" 
d="M1049 1948l-404 -342l-403 342v12l403 -254l404 254v-12zM1262 399l8 -4l-101 -395l-12 -45l-70 45h-1056v10q156 57 155 148v1159q0 88 -155 106v11h1097l68 -326l-8 -4q-80 115 -129 168t-129 91t-191 38h-344v-668h287q158 0 223.5 44t104.5 163v-446
q-39 119 -104.5 162.5t-223.5 43.5h-287v-667h385q84 0 146.5 20.5t122 76.5t100.5 109.5t113 159.5z" />
    <glyph glyph-name="ecaron" unicode="&#x11b;" horiz-adv-x="1099" 
d="M985 1507l-403 -342l-404 342v13l404 -254l403 254v-13zM1028 205l10 -8q-49 -90 -167.5 -150.5t-270.5 -60.5q-221 0 -369.5 131t-148.5 356q0 240 167 386.5t400 146.5q225 0 328 -144q74 -104 35 -203q-37 -90 -146 -90h-585q2 -213 113.5 -353t293.5 -140
q92 0 194.5 34t145.5 95zM575 969q-127 0 -206.5 -97.5t-87.5 -269.5l503 6q59 0 62 84q2 106 -80 195q-76 82 -191 82z" />
    <glyph glyph-name="Gbreve" unicode="&#x11e;" horiz-adv-x="1636" 
d="M864 1606q-121 0 -198.5 75.5t-77.5 192.5h16q0 -76 74 -131t186.5 -55t185 55t72.5 131h17q0 -117 -78 -192.5t-197 -75.5zM1616 618q-156 -18 -156 -108v-393q0 -88 156 -107v-10h-385l20 129q-147 -158 -407 -158q-303 0 -527.5 212t-224.5 534q0 172 69.5 315.5
t186.5 235.5t265.5 143t308.5 51q186 0 326.5 -60.5t217.5 -154.5l-260 -362l-6 2q84 207 -28.5 369.5t-348.5 162.5q-215 0 -358 -153.5t-143 -429.5q0 -322 192.5 -548.5t476.5 -226.5q178 0 260 105v344q0 53 -75.5 69.5t-346.5 24.5l41 25h746v-11z" />
    <glyph glyph-name="gbreve" unicode="&#x11f;" horiz-adv-x="1169" 
d="M608 1165q-121 0 -198.5 76t-77.5 193h16q0 -76 74 -131.5t186.5 -55.5t185 55.5t72.5 131.5h17q0 -117 -78 -193t-197 -76zM717 1006q188 0 340 -76v-1036q0 -49 -96.5 -126t-232.5 -136.5t-234 -59.5q-84 0 -174.5 45t-147.5 147l195 58q88 -180 272 -180
q98 0 163.5 75.5t65.5 178.5v176q-113 -86 -293 -86q-219 0 -356 126t-137 345q0 236 165 392.5t470 156.5zM694 45q113 0 174 78v731q-106 113 -254 113q-156 0 -244.5 -108.5t-88.5 -291.5q0 -221 118.5 -371.5t294.5 -150.5z" />
    <glyph glyph-name="Gdotaccent" unicode="&#x120;" horiz-adv-x="1636" 
d="M864 1686q-43 0 -72.5 28.5t-29.5 73.5q0 41 29.5 70.5t72.5 29.5t73 -29.5t30 -70.5q0 -45 -30 -73.5t-73 -28.5zM1616 618q-156 -18 -156 -108v-393q0 -88 156 -107v-10h-385l20 129q-147 -158 -407 -158q-303 0 -527.5 212t-224.5 534q0 172 69.5 315.5t186.5 235.5
t265.5 143t308.5 51q186 0 326.5 -60.5t217.5 -154.5l-260 -362l-6 2q84 207 -28.5 369.5t-348.5 162.5q-215 0 -358 -153.5t-143 -429.5q0 -322 192.5 -548.5t476.5 -226.5q178 0 260 105v344q0 53 -75.5 69.5t-346.5 24.5l41 25h746v-11z" />
    <glyph glyph-name="gdotaccent" unicode="&#x121;" horiz-adv-x="1169" 
d="M608 1245q-43 0 -72.5 29t-29.5 74q0 41 29.5 70.5t72.5 29.5t73 -29.5t30 -70.5q0 -45 -30 -74t-73 -29zM717 1006q188 0 340 -76v-1036q0 -49 -96.5 -126t-232.5 -136.5t-234 -59.5q-84 0 -174.5 45t-147.5 147l195 58q88 -180 272 -180q98 0 163.5 75.5t65.5 178.5
v176q-113 -86 -293 -86q-219 0 -356 126t-137 345q0 236 165 392.5t470 156.5zM694 45q113 0 174 78v731q-106 113 -254 113q-156 0 -244.5 -108.5t-88.5 -291.5q0 -221 118.5 -371.5t294.5 -150.5z" />
    <glyph glyph-name="uni0122" unicode="&#x122;" horiz-adv-x="1636" 
d="M1616 618q-156 -18 -156 -108v-393q0 -88 156 -107v-10h-385l20 129q-147 -158 -407 -158q-303 0 -527.5 212t-224.5 534q0 172 69.5 315.5t186.5 235.5t265.5 143t308.5 51q186 0 326.5 -60.5t217.5 -154.5l-260 -362l-6 2q84 207 -28.5 369.5t-348.5 162.5
q-215 0 -358 -153.5t-143 -429.5q0 -322 192.5 -548.5t476.5 -226.5q178 0 260 105v344q0 53 -75.5 69.5t-346.5 24.5l41 25h746v-11zM725 -211l258 78l8 -8l-356 -434l-8 8q75 192 98 356z" />
    <glyph glyph-name="uni0123" unicode="&#x123;" horiz-adv-x="1169" 
d="M713 1180l-258 -78l-9 8l357 434l8 -8q-75 -192 -98 -356zM717 1006q188 0 340 -76v-1036q0 -49 -96.5 -126t-232.5 -136.5t-234 -59.5q-84 0 -174.5 45t-147.5 147l195 58q88 -180 272 -180q98 0 163.5 75.5t65.5 178.5v176q-113 -86 -293 -86q-219 0 -356 126t-137 345
q0 236 165 392.5t470 156.5zM694 45q113 0 174 78v731q-106 113 -254 113q-156 0 -244.5 -108.5t-88.5 -291.5q0 -221 118.5 -371.5t294.5 -150.5z" />
    <glyph glyph-name="Hbar" unicode="&#x126;" horiz-adv-x="1566" 
d="M1536 1423q-156 -18 -156 -106v-305h93v-39h-93v-856q0 -88 156 -107v-10h-520v10q156 18 155 107v573h-776v-573q0 -88 156 -107v-10h-520v10q156 18 155 107v856h-92v39h92v305q0 88 -155 106v11h520v-11q-156 -18 -156 -106v-305h776v305q0 88 -155 106v11h520v-11z
M1171 725v248h-776v-248h776z" />
    <glyph glyph-name="hbar" unicode="&#x127;" 
d="M877 0l12 141v488q0 289 -221 289q-31 0 -65 -7.5t-55.5 -14.5t-58 -27.5t-50 -29t-55.5 -37t-50 -34.5v-569q0 -90 22.5 -132t94.5 -59v-8h-324l18 127v1026q-154 6 -188 -43h-8l74 164l122 -14v90q0 57 -35.5 61t-129.5 -29v13l364 172l-10 -80v-246q156 -6 190 43h8
l-73 -164l-125 17v-324q4 2 42 28.5t50 34t50 30t57.5 31.5t56.5 25.5t64.5 23.5t62.5 13.5t67 6.5q123 0 208 -82t85 -291v-443q0 -82 16.5 -120.5t63.5 -69.5h-280z" />
    <glyph glyph-name="Imacron" unicode="&#x12a;" horiz-adv-x="581" 
d="M-51 1776h682v-41h-682v41zM31 0v10q156 18 155 107v1200q0 88 -155 106v11h520v-11q-156 -18 -156 -106v-1200q0 -88 156 -107v-10h-520z" />
    <glyph glyph-name="imacron" unicode="&#x12b;" horiz-adv-x="475" 
d="M-109 1335h682v-41h-682v41zM135 0l10 141v787q-45 29 -125 37v8l314 31v-814q0 -82 16.5 -120.5t63.5 -69.5h-279z" />
    <glyph glyph-name="Iogonek" unicode="&#x12e;" horiz-adv-x="581" 
d="M551 1423q-156 -18 -156 -106v-1200q0 -88 156 -107v-10h-176q-94 0 -183.5 -54.5t-89.5 -127.5q0 -33 19.5 -55.5t54.5 -30.5t78 -2t95 34.5t102 77.5l6 -6l-178 -280q-229 23 -230 196q0 147 144 248h-162v10q156 18 155 107v1200q0 88 -155 106v11h520v-11z" />
    <glyph glyph-name="iogonek" unicode="&#x12f;" horiz-adv-x="475" 
d="M233 1245q-43 0 -72.5 29t-29.5 74q0 41 29.5 70.5t72.5 29.5t73 -29.5t30 -70.5q0 -45 -30 -74t-73 -29zM35 -182q0 -33 19.5 -55.5t54 -30.5t77.5 -2t95.5 34.5t101.5 77.5l6 -6l-178 -280q-229 23 -229 196q0 154 153 256l10 133v787q-45 29 -125 37v8l314 31v-814
q0 -82 16.5 -120.5t63.5 -69.5h-107q-94 0 -183 -54t-89 -128z" />
    <glyph glyph-name="Idotaccent" unicode="&#x130;" horiz-adv-x="581" 
d="M291 1686q-43 0 -73 28.5t-30 73.5q0 41 30 70.5t73 29.5t72.5 -29.5t29.5 -70.5q0 -45 -29.5 -73.5t-72.5 -28.5zM31 0v10q156 18 155 107v1200q0 88 -155 106v11h520v-11q-156 -18 -156 -106v-1200q0 -88 156 -107v-10h-520z" />
    <glyph glyph-name="dotlessi" unicode="&#x131;" horiz-adv-x="475" 
d="M135 0l10 141v787q-45 29 -125 37v8l314 31v-814q0 -82 16.5 -120.5t63.5 -69.5h-279z" />
    <glyph glyph-name="uni0136" unicode="&#x136;" horiz-adv-x="1433" 
d="M1423 0h-368v35l-525 631h-135v-549q0 -88 156 -107v-10h-520v10q156 18 155 107v1200q0 88 -155 106v11h520v-11q-156 -18 -156 -106v-649l676 655q84 80 -92 98l4 13h401l-4 -13q-178 -20 -397 -235l-350 -340l485 -576q104 -125 163.5 -177t141.5 -93zM598 -211
l258 78l8 -8l-356 -434l-8 8q75 192 98 356z" />
    <glyph glyph-name="uni0137" unicode="&#x137;" horiz-adv-x="1120" 
d="M127 0l18 127v1223q0 57 -35.5 61t-129.5 -29v13l364 172l-10 -80v-1288q0 -90 22.5 -132t94.5 -59v-8h-324zM1120 0h-319v35l-373 436h-82l416 412q78 78 -41 98l4 12h348l-4 -12q-182 -23 -395 -236l-146 -145l287 -330q106 -123 166.5 -177t138.5 -93zM440 -211
l258 78l9 -8l-357 -434l-8 8q75 192 98 356z" />
    <glyph glyph-name="Lacute" unicode="&#x139;" horiz-adv-x="1249" 
d="M717 1853l-520 -278l-7 6l447 379zM1210 399l9 -4l-101 -395l-12 -45l-70 45h-1005v10q156 57 155 148v1159q0 88 -155 106v11h540v-11q-88 -8 -132 -31.5t-44 -74.5v-1284h283q104 0 179 21.5t138.5 75.5t106 109.5t108.5 159.5z" />
    <glyph glyph-name="lacute" unicode="&#x13a;" horiz-adv-x="481" 
d="M137 1657l-6 6l447 379l79 -107zM334 199q0 -90 22.5 -132t94.5 -59v-8h-324l18 127v1223q0 57 -35.5 61t-129.5 -29v13l364 172l-10 -80v-1288z" />
    <glyph glyph-name="uni013B" unicode="&#x13b;" horiz-adv-x="1249" 
d="M1210 399l9 -4l-101 -395l-12 -45l-70 45h-1005v10q156 57 155 148v1159q0 88 -155 106v11h540v-11q-88 -8 -132 -31.5t-44 -74.5v-1284h283q104 0 179 21.5t138.5 75.5t106 109.5t108.5 159.5zM516 -211l258 78l8 -8l-356 -434l-8 8q75 192 98 356z" />
    <glyph glyph-name="uni013C" unicode="&#x13c;" horiz-adv-x="481" 
d="M334 199q0 -90 22.5 -132t94.5 -59v-8h-324l18 127v1223q0 57 -35.5 61t-129.5 -29v13l364 172l-10 -80v-1288zM391 -133l8 -8l-356 -434l-8 8q76 193 98 356z" />
    <glyph glyph-name="Lcaron" unicode="&#x13d;" horiz-adv-x="1249" 
d="M694 1948l-403 -342l-404 342v12l404 -254l403 254v-12zM1210 399l9 -4l-101 -395l-12 -45l-70 45h-1005v10q156 57 155 148v1159q0 88 -155 106v11h540v-11q-88 -8 -132 -31.5t-44 -74.5v-1284h283q104 0 179 21.5t138.5 75.5t106 109.5t108.5 159.5z" />
    <glyph glyph-name="lcaron" unicode="&#x13e;" horiz-adv-x="481" 
d="M231 1688l-403 342v12l403 -254l404 254v-12zM334 199q0 -90 22.5 -132t94.5 -59v-8h-324l18 127v1223q0 57 -35.5 61t-129.5 -29v13l364 172l-10 -80v-1288z" />
    <glyph glyph-name="Lslash" unicode="&#x141;" horiz-adv-x="1249" 
d="M1210 399l9 -4l-101 -395l-12 -45l-70 45h-1005v10q156 57 155 148v481l-155 -47v8l155 66v651q0 88 -155 106v11h540v-11q-88 -8 -132 -31.5t-44 -74.5v-563l303 129v-86l-303 -92v-672h283q104 0 179 21.5t138.5 75.5t106 109.5t108.5 159.5z" />
    <glyph glyph-name="lslash" unicode="&#x142;" horiz-adv-x="481" 
d="M565 782l-231 -71v-512q0 -90 22.5 -132t94.5 -59v-8h-324l18 127v526l-247 -75v8l247 104v660q0 57 -35.5 61t-129.5 -29v13l364 172l-10 -80v-717l231 98v-86z" />
    <glyph glyph-name="Nacute" unicode="&#x143;" horiz-adv-x="1505" 
d="M1180 1853l-521 -278l-6 6l447 379zM1120 1434h355v-11q-39 -4 -61.5 -14t-47.5 -40t-36 -93.5t-11 -163.5v-772q0 -209 10 -393l-4 -4l-1077 1280v-861q0 -193 41 -268.5t114 -83.5v-10h-352v10q39 4 61.5 14.5t47 40t36 93t11.5 164.5v950q-102 119 -187 162h345
q41 -72 75 -111l836 -995v743q0 193 -41 268.5t-115 83.5v11z" />
    <glyph glyph-name="nacute" unicode="&#x144;" 
d="M1030 1413l-520 -278l-6 6l446 379zM877 0l12 141v488q0 289 -221 289q-31 0 -65 -7.5t-55.5 -14.5t-58 -27.5t-50 -29t-55.5 -37t-50 -34.5v-578q0 -82 16.5 -120.5t63.5 -69.5h-281l12 141v787q-45 29 -125 37v8l324 31l-10 -152v-39q4 2 42 28.5t50 34t50 30
t57.5 31.5t56.5 25.5t64.5 23.5t62.5 13.5t67 6.5q123 0 208 -82t85 -291v-443q0 -82 16.5 -120.5t63.5 -69.5h-280z" />
    <glyph glyph-name="uni0145" unicode="&#x145;" horiz-adv-x="1505" 
d="M1120 1434h355v-11q-39 -4 -61.5 -14t-47.5 -40t-36 -93.5t-11 -163.5v-772q0 -209 10 -393l-4 -4l-1077 1280v-861q0 -193 41 -268.5t114 -83.5v-10h-352v10q39 4 61.5 14.5t47 40t36 93t11.5 164.5v950q-102 119 -187 162h345q41 -72 75 -111l836 -995v743
q0 193 -41 268.5t-115 83.5v11zM635 -211l258 78l8 -8l-356 -434l-8 8q75 192 98 356z" />
    <glyph glyph-name="uni0146" unicode="&#x146;" 
d="M877 0l12 141v488q0 289 -221 289q-31 0 -65 -7.5t-55.5 -14.5t-58 -27.5t-50 -29t-55.5 -37t-50 -34.5v-578q0 -82 16.5 -120.5t63.5 -69.5h-281l12 141v787q-45 29 -125 37v8l324 31l-10 -152v-39q4 2 42 28.5t50 34t50 30t57.5 31.5t56.5 25.5t64.5 23.5t62.5 13.5
t67 6.5q123 0 208 -82t85 -291v-443q0 -82 16.5 -120.5t63.5 -69.5h-280zM485 -211l258 78l9 -8l-357 -434l-8 8q75 192 98 356z" />
    <glyph glyph-name="Ncaron" unicode="&#x147;" horiz-adv-x="1505" 
d="M1157 1948l-403 -342l-404 342v12l404 -254l403 254v-12zM1120 1434h355v-11q-39 -4 -61.5 -14t-47.5 -40t-36 -93.5t-11 -163.5v-772q0 -209 10 -393l-4 -4l-1077 1280v-861q0 -193 41 -268.5t114 -83.5v-10h-352v10q39 4 61.5 14.5t47 40t36 93t11.5 164.5v950
q-102 119 -187 162h345q41 -72 75 -111l836 -995v743q0 193 -41 268.5t-115 83.5v11z" />
    <glyph glyph-name="ncaron" unicode="&#x148;" 
d="M1008 1507l-404 -342l-403 342v13l403 -254l404 254v-13zM877 0l12 141v488q0 289 -221 289q-31 0 -65 -7.5t-55.5 -14.5t-58 -27.5t-50 -29t-55.5 -37t-50 -34.5v-578q0 -82 16.5 -120.5t63.5 -69.5h-281l12 141v787q-45 29 -125 37v8l324 31l-10 -152v-39q4 2 42 28.5
t50 34t50 30t57.5 31.5t56.5 25.5t64.5 23.5t62.5 13.5t67 6.5q123 0 208 -82t85 -291v-443q0 -82 16.5 -120.5t63.5 -69.5h-280z" />
    <glyph glyph-name="Eng" unicode="&#x14a;" horiz-adv-x="1505" 
d="M1116 1434h359v-11q-39 -4 -61.5 -14t-47.5 -40t-36 -93.5t-11 -163.5v-985q0 -178 12 -250q-68 -102 -190.5 -187t-276.5 -128l-4 4q139 68 194.5 163t55.5 259v211l-856 1015v-852q0 -193 41 -268.5t115 -83.5v-10h-359v10q39 4 61.5 14.5t47 40t36 93t11.5 164.5v950
q-102 119 -187 162h345q35 -59 75 -111l832 -989v737q0 193 -41 268.5t-115 83.5v11z" />
    <glyph glyph-name="eng" unicode="&#x14b;" horiz-adv-x="1196" 
d="M1077 106q0 -131 17 -249q-63 -104 -176 -180t-234 -95l-4 4q111 41 160 130t49 251v662q0 158 -61.5 223.5t-149.5 65.5q-27 0 -53.5 -6.5t-46 -13.5t-47 -25.5t-41 -27.5t-43 -37t-37 -36t-40 -42t-36.5 -38v-502q0 -82 16.5 -120.5t63.5 -69.5h-281l12 141v787
q-45 29 -125 37v8l324 31l-10 -152v-115q55 55 92 89t100.5 82t131 73t137.5 25q51 0 96 -15.5t90 -53.5t70.5 -116t25.5 -188v-527z" />
    <glyph glyph-name="Omacron" unicode="&#x14c;" horiz-adv-x="1726" 
d="M522 1776h682v-41h-682v41zM864 1462q328 0 549 -203.5t221 -541.5t-221 -542t-549 -204q-330 0 -551 204t-221 542t221 541.5t551 203.5zM946 8q211 0 339 163t128 425q0 207 -80 396.5t-227.5 311t-325.5 121.5q-211 0 -339 -162.5t-128 -422.5q0 -207 80 -397.5
t227.5 -312.5t325.5 -122z" />
    <glyph glyph-name="omacron" unicode="&#x14d;" horiz-adv-x="1224" 
d="M270 1335h682v-41h-682v41zM612.5 1006q233.5 0 382 -141.5t148.5 -368.5q0 -225 -148.5 -367.5t-382 -142.5t-382 141t-148.5 369q0 225 148.5 367.5t382 142.5zM692 20q121 0 189.5 91.5t68.5 250.5q0 227 -118.5 418t-299.5 191q-121 0 -189.5 -91.5t-68.5 -250.5
q0 -227 119 -418t299 -191z" />
    <glyph glyph-name="Ohungarumlaut" unicode="&#x150;" horiz-adv-x="1726" 
d="M524 1575l-6 6l447 379l79 -107zM831 1575l-6 6l447 379l80 -107zM864 1462q328 0 549 -203.5t221 -541.5t-221 -542t-549 -204q-330 0 -551 204t-221 542t221 541.5t551 203.5zM946 8q211 0 339 163t128 425q0 207 -80 396.5t-227.5 311t-325.5 121.5
q-211 0 -339 -162.5t-128 -422.5q0 -207 80 -397.5t227.5 -312.5t325.5 -122z" />
    <glyph glyph-name="ohungarumlaut" unicode="&#x151;" horiz-adv-x="1224" 
d="M272 1135l-6 6l447 379l80 -107zM580 1135l-7 6l447 379l80 -107zM612.5 1006q233.5 0 382 -141.5t148.5 -368.5q0 -225 -148.5 -367.5t-382 -142.5t-382 141t-148.5 369q0 225 148.5 367.5t382 142.5zM692 20q121 0 189.5 91.5t68.5 250.5q0 227 -118.5 418t-299.5 191
q-121 0 -189.5 -91.5t-68.5 -250.5q0 -227 119 -418t299 -191z" />
    <glyph glyph-name="OE" unicode="&#x152;" horiz-adv-x="2355" 
d="M2316 399l8 -4l-100 -395l-12 -45l-70 45h-1050q-111 -29 -228 -29q-330 0 -551 204t-221 542t221.5 541.5t550.5 203.5q117 0 228 -28h1091l68 -326l-8 -4q-80 115 -129.5 168t-129 91t-190.5 38h-344v-668h287q158 0 223 44t104 163v-446q-39 119 -104.5 162.5
t-222.5 43.5h-287v-667h385q84 0 146.5 20.5t122 76.5t100 109.5t112.5 159.5zM324 795q0 -313 170 -551t421 -238q195 0 326 141v11v1020q-174 250 -430 249q-219 0 -353 -173.5t-134 -458.5z" />
    <glyph glyph-name="oe" unicode="&#x153;" horiz-adv-x="1964" 
d="M1892 205l11 -8q-49 -90 -168 -150.5t-271 -60.5q-281 0 -426 192q-147 -193 -426 -192q-233 0 -381.5 141t-148.5 369q0 225 148.5 367.5t381.5 142.5q143 0 258 -55.5t185 -155.5q78 100 199.5 155.5t258.5 55.5q225 0 328 -144q74 -104 35 -203q-37 -90 -145 -90h-586
q2 -213 113.5 -353t293.5 -140q92 0 194.5 34t145.5 95zM692 20q121 0 189.5 91.5t68.5 250.5q0 227 -118.5 418t-299.5 191q-121 0 -189.5 -91.5t-68.5 -250.5q0 -227 119 -418t299 -191zM1440 969q-127 0 -207 -97.5t-88 -269.5l504 6q59 0 61 84q2 106 -80 195
q-75 82 -190 82z" />
    <glyph glyph-name="Racute" unicode="&#x154;" horiz-adv-x="1423" 
d="M1133 1853l-521 -278l-6 6l447 379zM1139 270q82 -113 146.5 -165t158.5 -99v-6h-371v35l-399 553h-19h-260v-471q0 -88 156 -107v-10h-520v10q156 18 155 107v1200q0 88 -155 106v11h719q254 0 397 -96.5t143 -280.5q0 -160 -108.5 -279t-296.5 -164zM395 670
q160 -45 322 -45q199 0 283.5 74.5t84.5 281.5q0 86 -16 152.5t-61 130t-138.5 98.5t-230.5 35h-244v-727z" />
    <glyph glyph-name="racute" unicode="&#x155;" horiz-adv-x="798" 
d="M825 1413l-520 -278l-6 6l446 379zM360 786q35 98 116 158t183 60q57 0 109 -25l-176 -287h-8q35 102 15.5 149.5t-75.5 47.5q-74 0 -124 -79t-66 -196v-424q0 -82 16.5 -120.5t63.5 -69.5h-279l10 141v787q-45 29 -125 37v8l324 31l-10 -152v-66h26z" />
    <glyph glyph-name="uni0156" unicode="&#x156;" horiz-adv-x="1423" 
d="M1139 270q82 -113 146.5 -165t158.5 -99v-6h-371v35l-399 553h-19h-260v-471q0 -88 156 -107v-10h-520v10q156 18 155 107v1200q0 88 -155 106v11h719q254 0 397 -96.5t143 -280.5q0 -160 -108.5 -279t-296.5 -164zM395 670q160 -45 322 -45q199 0 283.5 74.5t84.5 281.5
q0 86 -16 152.5t-61 130t-138.5 98.5t-230.5 35h-244v-727zM588 -211l258 78l8 -8l-356 -434l-9 8q76 192 99 356z" />
    <glyph glyph-name="uni0157" unicode="&#x157;" horiz-adv-x="798" 
d="M659 1004q57 0 109 -25l-176 -287h-8q35 102 15.5 149.5t-75.5 47.5q-74 0 -124 -79t-66 -196v-424q0 -82 16.5 -120.5t63.5 -69.5h-279l10 141v787q-45 29 -125 37v8l324 31l-10 -152v-66h26q35 98 116 158t183 60zM135 -211l258 78l8 -8l-356 -434l-8 8q75 192 98 356z
" />
    <glyph glyph-name="Rcaron" unicode="&#x158;" horiz-adv-x="1423" 
d="M1110 1948l-403 -342l-404 342v12l404 -254l403 254v-12zM1139 270q82 -113 146.5 -165t158.5 -99v-6h-371v35l-399 553h-19h-260v-471q0 -88 156 -107v-10h-520v10q156 18 155 107v1200q0 88 -155 106v11h719q254 0 397 -96.5t143 -280.5q0 -160 -108.5 -279
t-296.5 -164zM395 670q160 -45 322 -45q199 0 283.5 74.5t84.5 281.5q0 86 -16 152.5t-61 130t-138.5 98.5t-230.5 35h-244v-727z" />
    <glyph glyph-name="rcaron" unicode="&#x159;" horiz-adv-x="798" 
d="M399 1266l404 254v-13l-404 -342l-403 342v13zM360 786q35 98 116 158t183 60q57 0 109 -25l-176 -287h-8q35 102 15.5 149.5t-75.5 47.5q-74 0 -124 -79t-66 -196v-424q0 -82 16.5 -120.5t63.5 -69.5h-279l10 141v787q-45 29 -125 37v8l324 31l-10 -152v-66h26z" />
    <glyph glyph-name="Sacute" unicode="&#x15a;" horiz-adv-x="1249" 
d="M532 1575l-6 6l447 379l80 -107zM702 817q465 -106 465 -418q0 -182 -145 -305t-406 -123q-334 0 -534 193l178 285q-23 -197 114.5 -319t332.5 -122q160 0 229.5 86t69.5 205q0 76 -26 128t-85 88t-121.5 57.5t-167.5 45.5q-266 63 -374.5 184.5t-108.5 266.5
q0 178 141.5 285.5t380.5 107.5q303 0 498 -186l-182 -289q23 199 -101.5 319.5t-306.5 120.5q-137 0 -200.5 -71.5t-63.5 -186.5q0 -84 31.5 -145t96 -100t128 -63t157.5 -44z" />
    <glyph glyph-name="sacute" unicode="&#x15b;" horiz-adv-x="946" 
d="M377 1135l-6 6l446 379l80 -107zM465 -14q-240 0 -393 120l114 191h4q-2 -125 110 -203t243 -78q188 0 188 177q0 96 -64.5 144t-191.5 69q-113 18 -191.5 53t-117.5 80t-54.5 88t-15.5 90q0 133 110.5 211t278.5 78q111 0 211.5 -33t161.5 -84l-129 -193h-4
q6 125 -95.5 202t-217.5 77q-92 0 -132 -50.5t-40 -119.5q0 -98 74.5 -143.5t195.5 -63.5q365 -57 364 -297q0 -139 -110.5 -227t-298.5 -88z" />
    <glyph glyph-name="Scedilla" unicode="&#x15e;" horiz-adv-x="1249" 
d="M1167 399q0 -178 -139 -300t-387 -128l-63 -88h36q158 0 243 -47t85 -135q0 -92 -88 -143.5t-211 -51.5q-115 0 -161 42t-21 100h184q0 -20 -4 -46t16.5 -47.5t69.5 -21.5q43 0 87 38t44 81q0 127 -262 127q-80 0 -145 -12l153 204q-166 2 -300 55.5t-222 137.5l178 285
q-23 -197 114.5 -319t332.5 -122q160 0 229.5 86t69.5 205q0 76 -26 128t-85 88t-121.5 57.5t-167.5 45.5q-266 63 -374.5 184.5t-108.5 266.5q0 178 141.5 285.5t380.5 107.5q303 0 498 -186l-182 -289q23 199 -101.5 319.5t-306.5 120.5q-137 0 -200.5 -71.5t-63.5 -186.5
q0 -84 31.5 -145t96 -100t128 -62.5t157.5 -44.5q465 -107 465 -418z" />
    <glyph glyph-name="scedilla" unicode="&#x15f;" horiz-adv-x="946" 
d="M874 301q0 -133 -102 -220t-276 -95l-74 -103h37q158 0 242.5 -47t84.5 -135q0 -92 -88 -143.5t-211 -51.5q-115 0 -160.5 42t-21.5 100h184q0 -20 -4 -46t16.5 -47.5t69.5 -21.5q43 0 87 38t44 81q0 127 -262 127q-80 0 -145 -12l166 219q-240 2 -389 120l114 191h4
q-2 -125 110 -203t243 -78q188 0 188 177q0 96 -64.5 144t-191.5 69q-113 18 -191.5 53t-117.5 80t-54.5 88t-15.5 90q0 133 110.5 211t278.5 78q111 0 211.5 -33t161.5 -84l-129 -193h-4q6 125 -95.5 202t-217.5 77q-92 0 -132 -50.5t-40 -119.5q0 -98 74.5 -143.5
t195.5 -63.5q364 -57 364 -297z" />
    <glyph glyph-name="Scaron" unicode="&#x160;" horiz-adv-x="1249" 
d="M627 1606l-404 342v12l404 -254l403 254v-12zM702 817q465 -106 465 -418q0 -182 -145 -305t-406 -123q-334 0 -534 193l178 285q-23 -197 114.5 -319t332.5 -122q160 0 229.5 86t69.5 205q0 76 -26 128t-85 88t-121.5 57.5t-167.5 45.5q-266 63 -374.5 184.5
t-108.5 266.5q0 178 141.5 285.5t380.5 107.5q303 0 498 -186l-182 -289q23 199 -101.5 319.5t-306.5 120.5q-137 0 -200.5 -71.5t-63.5 -186.5q0 -84 31.5 -145t96 -100t128 -63t157.5 -44z" />
    <glyph glyph-name="scaron" unicode="&#x161;" horiz-adv-x="946" 
d="M471 1165l-403 342v13l403 -254l403 254v-13zM465 -14q-240 0 -393 120l114 191h4q-2 -125 110 -203t243 -78q188 0 188 177q0 96 -64.5 144t-191.5 69q-113 18 -191.5 53t-117.5 80t-54.5 88t-15.5 90q0 133 110.5 211t278.5 78q111 0 211.5 -33t161.5 -84l-129 -193h-4
q6 125 -95.5 202t-217.5 77q-92 0 -132 -50.5t-40 -119.5q0 -98 74.5 -143.5t195.5 -63.5q365 -57 364 -297q0 -139 -110.5 -227t-298.5 -88z" />
    <glyph glyph-name="uni0162" unicode="&#x162;" horiz-adv-x="1413" 
d="M1393 1434l-131 -422h-9q37 391 -303 391h-149v-1266q0 -66 47 -92.5t149 -34.5v-10h-256l-84 -117h37q158 0 243 -47t85 -135q0 -92 -88 -143.5t-211 -51.5q-115 0 -161 42t-21 100h184q0 -20 -4 -46t16.5 -47.5t69.5 -21.5q43 0 87 38t44 81q0 127 -262 127
q-82 0 -146 -12l177 233h-312v10q102 8 149.5 35t47.5 92v1266h-47q-154 0 -248 -43t-148.5 -119t-119.5 -229h-9l68 422h1305z" />
    <glyph glyph-name="uni0163" unicode="&#x163;" horiz-adv-x="649" 
d="M303 -117q158 0 243 -47t85 -135q0 -92 -88 -143.5t-211 -51.5q-115 0 -161 42t-21 100h184q0 -20 -4 -46t16.5 -47.5t69.5 -21.5q43 0 87 38t44 81q0 127 -262 127q-80 0 -146 -12l156 204l-139 47l6 123v975q0 61 -36 66.5t-136 -27.5v12l377 174l-17 -84v-264h248
l-10 -49h-238v-907l248 8v-8l-248 -70h-24l-60 -84h37z" />
    <glyph glyph-name="Tcaron" unicode="&#x164;" horiz-adv-x="1413" 
d="M1110 1948l-403 -342l-404 342v12l404 -254l403 254v-12zM1393 1434l-131 -422h-9q37 391 -303 391h-149v-1266q0 -66 47 -92.5t149 -34.5v-10h-602v10q102 8 149.5 35t47.5 92v1266h-47q-154 0 -248 -43t-148.5 -119t-119.5 -229h-9l68 422h1305z" />
    <glyph glyph-name="tcaron" unicode="&#x165;" horiz-adv-x="649" 
d="M276 1411l-403 342v12l403 -254l404 254v-12zM307 -33l-151 51l6 123v975q0 61 -36 66.5t-136 -27.5v12l377 174l-17 -84v-264h248l-10 -49h-238v-907l248 8v-8l-248 -70h-43z" />
    <glyph glyph-name="Tbar" unicode="&#x166;" horiz-adv-x="1413" 
d="M1393 1434l-131 -422h-9q37 391 -303 391h-149v-643q154 -6 188 43h8l-73 -164l-123 14v-516q0 -66 47 -92.5t149 -34.5v-10h-602v10q102 8 149.5 35t47.5 92v537q-135 4 -170 -45h-8l73 164l105 -13v623h-47q-154 0 -248 -43t-148.5 -119t-119.5 -229h-9l68 422h1305z
" />
    <glyph glyph-name="tbar" unicode="&#x167;" horiz-adv-x="649" 
d="M391 518q-29 4 -41 4v-485l248 8v-8l-248 -70h-43l-151 51l6 123v396q-109 -4 -139 -45h-9l74 163l74 -8v469q0 61 -36 66.5t-136 -27.5v12l377 174l-17 -84v-264h248l-10 -49h-238v-319q199 -16 240 41h8l-74 -164z" />
    <glyph glyph-name="Umacron" unicode="&#x16a;" horiz-adv-x="1464" 
d="M426 1776h682v-41h-682v41zM741 -29q-70 0 -138 13.5t-146 52.5t-136.5 100.5t-96.5 166t-38 239.5v774q0 88 -155 106v11h520v-11q-156 -18 -156 -106v-809q0 -129 41 -226.5t105.5 -148.5t131 -74.5t132.5 -23.5q68 0 139.5 26.5t139 80t109.5 149.5t42 221v557
q0 195 -44 269.5t-132 82.5v11h375v-11q-39 -4 -61.5 -14t-47.5 -40t-36 -93.5t-11 -163.5v-563q0 -279 -152 -427.5t-385 -148.5z" />
    <glyph glyph-name="umacron" unicode="&#x16b;" 
d="M965 1335v-41h-682v41h682zM1073 66q43 -29 115 -37v-9l-303 -30v196q-76 -57 -128 -92t-148.5 -71.5t-184.5 -36.5q-51 0 -96 15t-90 53t-71 116t-26 188v441q0 84 -21.5 121.5t-88.5 68.5v4h311l-12 -141v-490q0 -158 61.5 -223t149.5 -65q66 0 132 26.5t104 52
t108 78.5v568q0 84 -21.5 121.5t-89.5 68.5v4h311l-12 -141v-786z" />
    <glyph glyph-name="ubreve" unicode="&#x16d;" 
d="M625 1165q-121 0 -199 76t-78 193h17q0 -76 73.5 -131.5t186 -55.5t185.5 55.5t73 131.5h16q0 -117 -77.5 -193t-196.5 -76zM1073 66q43 -29 115 -37v-9l-303 -30v196q-76 -57 -128 -92t-148.5 -71.5t-184.5 -36.5q-51 0 -96 15t-90 53t-71 116t-26 188v441
q0 84 -21.5 121.5t-88.5 68.5v4h311l-12 -141v-490q0 -158 61.5 -223t149.5 -65q66 0 132 26.5t104 52t108 78.5v568q0 84 -21.5 121.5t-89.5 68.5v4h311l-12 -141v-786z" />
    <glyph glyph-name="Uring" unicode="&#x16e;" horiz-adv-x="1464" 
d="M768 1581q-76 0 -130 53.5t-54 130.5q0 76 54 129.5t130 53.5t129 -53.5t53 -129t-53 -130t-129 -54.5zM768 1620q59 0 101 42t42 103q0 59 -42 101.5t-101 42.5q-61 0 -103 -42t-42 -102q0 -61 42 -103t103 -42zM741 -29q-70 0 -138 13.5t-146 52.5t-136.5 100.5
t-96.5 166t-38 239.5v774q0 88 -155 106v11h520v-11q-156 -18 -156 -106v-809q0 -129 41 -226.5t105.5 -148.5t131 -74.5t132.5 -23.5q68 0 139.5 26.5t139 80t109.5 149.5t42 221v557q0 195 -44 269.5t-132 82.5v11h375v-11q-39 -4 -61.5 -14t-47.5 -40t-36 -93.5
t-11 -163.5v-563q0 -279 -152 -427.5t-385 -148.5z" />
    <glyph glyph-name="uring" unicode="&#x16f;" 
d="M624.5 1141q-75.5 0 -130 54t-54.5 130t54.5 129t130 53t129 -53t53.5 -129t-53.5 -130t-129 -54zM625 1468q-61 0 -103.5 -42t-42.5 -101q0 -61 42 -103t104 -42q59 0 101 42t42 103q0 59 -42 101t-101 42zM1073 66q43 -29 115 -37v-9l-303 -30v196q-76 -57 -128 -92
t-148.5 -71.5t-184.5 -36.5q-51 0 -96 15t-90 53t-71 116t-26 188v441q0 84 -21.5 121.5t-88.5 68.5v4h311l-12 -141v-490q0 -158 61.5 -223t149.5 -65q66 0 132 26.5t104 52t108 78.5v568q0 84 -21.5 121.5t-89.5 68.5v4h311l-12 -141v-786z" />
    <glyph glyph-name="Uhungarumlaut" unicode="&#x170;" horiz-adv-x="1464" 
d="M428 1575l-6 6l446 379l80 -107zM735 1575l-6 6l447 379l79 -107zM741 -29q-70 0 -138 13.5t-146 52.5t-136.5 100.5t-96.5 166t-38 239.5v774q0 88 -155 106v11h520v-11q-156 -18 -156 -106v-809q0 -129 41 -226.5t105.5 -148.5t131 -74.5t132.5 -23.5q68 0 139.5 26.5
t139 80t109.5 149.5t42 221v557q0 195 -44 269.5t-132 82.5v11h375v-11q-39 -4 -61.5 -14t-47.5 -40t-36 -93.5t-11 -163.5v-563q0 -279 -152 -427.5t-385 -148.5z" />
    <glyph glyph-name="uhungarumlaut" unicode="&#x171;" 
d="M805 1413l-520 -278l-6 6l446 379zM592 1135l-6 6l446 379l80 -107zM1073 66q43 -29 115 -37v-9l-303 -30v196q-76 -57 -128 -92t-148.5 -71.5t-184.5 -36.5q-51 0 -96 15t-90 53t-71 116t-26 188v441q0 84 -21.5 121.5t-88.5 68.5v4h311l-12 -141v-490q0 -158 61.5 -223
t149.5 -65q66 0 132 26.5t104 52t108 78.5v568q0 84 -21.5 121.5t-89.5 68.5v4h311l-12 -141v-786z" />
    <glyph glyph-name="Uogonek" unicode="&#x172;" horiz-adv-x="1464" 
d="M1059 1432h375v-11q-39 -4 -61.5 -14t-47.5 -40t-36 -93.5t-11 -163.5v-563q0 -276 -149.5 -424t-378.5 -152q-94 0 -183.5 -54t-89.5 -128q0 -33 19.5 -55.5t54.5 -30.5t78 -2t95 34.5t101 78.5l6 -7l-178 -280q-229 23 -229 197q0 80 47 150.5t123 113.5
q-172 39 -290 170t-118 385v774q0 88 -155 106v11h520v-11q-156 -18 -156 -106v-809q0 -129 41 -226.5t105.5 -148.5t131 -74.5t132.5 -23.5q68 0 139.5 26.5t139 80t109.5 149.5t42 221v557q0 195 -44 269.5t-132 82.5v11z" />
    <glyph glyph-name="uogonek" unicode="&#x173;" 
d="M963 -2q-84 -16 -147.5 -65.5t-63.5 -110.5q0 -33 19.5 -55.5t54 -30.5t77.5 -2t95.5 34.5t101.5 77.5l6 -6l-178 -280q-229 23 -230 196q0 86 52.5 159t134.5 116v155q-76 -57 -128 -92t-148.5 -71.5t-184.5 -36.5q-51 0 -96 15t-90 53t-71 116t-26 188v441
q0 84 -21.5 121.5t-88.5 68.5v4h311l-12 -141v-490q0 -158 61.5 -223t149.5 -65q66 0 132 26.5t104 52t108 78.5v568q0 84 -21.5 121.5t-89.5 68.5v4h311l-12 -141v-786q43 -29 115 -37v-9z" />
    <glyph glyph-name="Wcircumflex" unicode="&#x174;" horiz-adv-x="2258" 
d="M1532 1606l-404 254l-403 -254v12l403 342l404 -342v-12zM1841 1434h377v-9q-72 -20 -117 -67t-94 -172l-436 -1116l-193 -133l6 43l-299 772l-260 -682l-192 -133l6 43l-508 1314q-35 92 -90 140h514v-9q-57 -4 -94 -16t-63.5 -39t-23.5 -70t25 -112l404 -1065l260 688
l-186 483q-35 92 -91 140h514v-9q-57 -4 -94 -16t-63.5 -39t-23.5 -70t26 -112l403 -1065l414 1065q25 66 28 108.5t-19.5 68.5t-51.5 38t-78 22v9z" />
    <glyph glyph-name="wcircumflex" unicode="&#x175;" horiz-adv-x="1638" 
d="M1208 1165l-403 254l-404 -254v13l404 342l403 -342v-13zM1284 993h313v-8q-55 -20 -96 -68.5t-94 -171.5l-328 -765h-10l-274 602l-258 -602h-11l-399 874l-76 139h424v-8q-203 -25 -106 -237l237 -529l168 406l-104 229l-76 139h424v-8q-203 -25 -107 -237l238 -529
l221 529q27 63 30 107t-18.5 69.5t-42 37t-55.5 23.5v8z" />
    <glyph glyph-name="Ycircumflex" unicode="&#x176;" horiz-adv-x="1576" 
d="M1196 1606l-403 254l-404 -254v12l404 342l403 -342v-12zM1094 1434h452v-9q-96 -20 -158.5 -60t-125.5 -140l-390 -607v-501q0 -51 44.5 -75t132.5 -32v-10h-562v10q88 8 132.5 32t44.5 75v461l-416 669q-96 156 -217 178v9h346l110 -187l361 -590l362 570q33 53 40 89
t-14.5 57.5t-54 32.5t-87.5 19v9z" />
    <glyph glyph-name="ycircumflex" unicode="&#x177;" horiz-adv-x="1126" 
d="M963 1165l-404 254l-403 -254v13l403 342l404 -342v-13zM770 993h315v-8q-55 -20 -96 -67.5t-94 -172.5l-360 -856q-27 -61 -40.5 -89.5t-44 -77t-61.5 -72t-80 -42t-110 -18.5l-78 91q281 0 375 219l30 71l-399 883l-76 139h420v-8q-201 -25 -106 -237l251 -564l240 564
q27 63 30 107t-18.5 69.5t-42 37t-55.5 23.5v8z" />
    <glyph glyph-name="Ydieresis" unicode="&#x178;" horiz-adv-x="1576" 
d="M584 1686q-43 0 -73 28.5t-30 73.5q0 41 30 70.5t73 29.5t72.5 -29.5t29.5 -70.5q0 -45 -29.5 -73.5t-72.5 -28.5zM1001 1686q-43 0 -72.5 28.5t-29.5 73.5q0 41 29.5 70.5t72.5 29.5t73 -29.5t30 -70.5q0 -45 -30 -73.5t-73 -28.5zM1094 1434h452v-9q-96 -20 -158.5 -60
t-125.5 -140l-390 -607v-501q0 -51 44.5 -75t132.5 -32v-10h-562v10q88 8 132.5 32t44.5 75v461l-416 669q-96 156 -217 178v9h346l110 -187l361 -590l362 570q33 53 40 89t-14.5 57.5t-54 32.5t-87.5 19v9z" />
    <glyph glyph-name="Zacute" unicode="&#x179;" horiz-adv-x="1331" 
d="M1139 1853l-521 -278l-6 6l447 379zM1290 1425q-45 -8 -86 -57t-129 -188l-708 -1147h352q258 0 371.5 71.5t191.5 303.5h8l-63 -408h-1186q84 35 256 311l676 1090h-303q-244 0 -354.5 -73t-188.5 -306h-8l63 412h1108v-9z" />
    <glyph glyph-name="zacute" unicode="&#x17a;" horiz-adv-x="1013" 
d="M975 1413l-520 -278l-6 6l446 379zM973 993v-8q-47 -10 -92 -61.5t-123 -184.5l-414 -708h193q166 0 258 58t157 216l-47 -305h-864q100 41 256 311l377 652h-164q-166 0 -258 -58.5t-158 -216.5l47 305h832z" />
    <glyph glyph-name="Zdotaccent" unicode="&#x17b;" horiz-adv-x="1331" 
d="M713 1686q-43 0 -73 28.5t-30 73.5q0 41 30 70.5t73 29.5t72.5 -29.5t29.5 -70.5q0 -45 -29.5 -73.5t-72.5 -28.5zM1290 1425q-45 -8 -86 -57t-129 -188l-708 -1147h352q258 0 371.5 71.5t191.5 303.5h8l-63 -408h-1186q84 35 256 311l676 1090h-303q-244 0 -354.5 -73
t-188.5 -306h-8l63 412h1108v-9z" />
    <glyph glyph-name="zdotaccent" unicode="&#x17c;" horiz-adv-x="1013" 
d="M549 1245q-43 0 -73 29t-30 74q0 41 30 70.5t73 29.5t72.5 -29.5t29.5 -70.5q0 -45 -29.5 -74t-72.5 -29zM973 985q-47 -10 -92 -61.5t-123 -184.5l-414 -708h193q166 0 258 58t157 216l-47 -305h-864q100 41 256 311l377 652h-164q-166 0 -258 -58.5t-158 -216.5l47 305
h832v-8z" />
    <glyph glyph-name="Zcaron" unicode="&#x17d;" horiz-adv-x="1331" 
d="M1116 1948l-403 -342l-404 342v12l404 -254l403 254v-12zM1290 1425q-45 -8 -86 -57t-129 -188l-708 -1147h352q258 0 371.5 71.5t191.5 303.5h8l-63 -408h-1186q84 35 256 311l676 1090h-303q-244 0 -354.5 -73t-188.5 -306h-8l63 412h1108v-9z" />
    <glyph glyph-name="zcaron" unicode="&#x17e;" horiz-adv-x="1013" 
d="M952 1507l-403 -342l-404 342v13l404 -254l403 254v-13zM973 985q-47 -10 -92 -61.5t-123 -184.5l-414 -708h193q166 0 258 58t157 216l-47 -305h-864q100 41 256 311l377 652h-164q-166 0 -258 -58.5t-158 -216.5l47 305h832v-8z" />
    <glyph glyph-name="uni01CD" unicode="&#x1cd;" horiz-adv-x="1646" 
d="M1233 1948l-404 -342l-403 342v12l403 -254l404 254v-12zM1403 258q55 -143 95 -192.5t108 -57.5v-8h-576v8q78 6 119 26.5t58.5 72t-23.5 139.5l-41 102h-801l-45 -102q-27 -63 -30 -107.5t19.5 -69t52.5 -38t79 -23.5v-8h-377v8q70 20 114 67.5t97 172.5l455 1048
l-5 45l33 23l191 125q0 -29 45 -139zM356 385h772l-370 926z" />
    <glyph glyph-name="uni01CE" unicode="&#x1ce;" 
d="M1022 1507l-404 -342l-403 342v13l403 -254l404 254v-13zM1057 168q0 -82 16.5 -119t63.5 -67v-7l-320 64q2 0 2 2q-104 -55 -244 -55q-219 0 -356 126t-137 345q0 236 165 392.5t470 156.5q188 0 340 -76v-762zM281 567q0 -221 118.5 -372.5t294.5 -151.5q104 0 170 72
q4 41 4 80v659q-106 113 -254 113q-156 0 -244.5 -109t-88.5 -291z" />
    <glyph glyph-name="uni01CF" unicode="&#x1cf;" horiz-adv-x="581" 
d="M291 1606l-404 342v12l404 -254l403 254v-12zM31 0v10q156 18 155 107v1200q0 88 -155 106v11h520v-11q-156 -18 -156 -106v-1200q0 -88 156 -107v-10h-520z" />
    <glyph glyph-name="uni01D0" unicode="&#x1d0;" horiz-adv-x="475" 
d="M233 1165l-403 342v13l403 -254l404 254v-13zM135 0l10 141v787q-45 29 -125 37v8l314 31v-814q0 -82 16.5 -120.5t63.5 -69.5h-279z" />
    <glyph glyph-name="uni01D1" unicode="&#x1d1;" horiz-adv-x="1726" 
d="M864 1606l-403 342v12l403 -254l404 254v-12zM864 1462q328 0 549 -203.5t221 -541.5t-221 -542t-549 -204q-330 0 -551 204t-221 542t221 541.5t551 203.5zM946 8q211 0 339 163t128 425q0 207 -80 396.5t-227.5 311t-325.5 121.5q-211 0 -339 -162.5t-128 -422.5
q0 -207 80 -397.5t227.5 -312.5t325.5 -122z" />
    <glyph glyph-name="uni01D2" unicode="&#x1d2;" horiz-adv-x="1224" 
d="M612 1165l-403 342v13l403 -254l404 254v-13zM612.5 1006q233.5 0 382 -141.5t148.5 -368.5q0 -225 -148.5 -367.5t-382 -142.5t-382 141t-148.5 369q0 225 148.5 367.5t382 142.5zM692 20q121 0 189.5 91.5t68.5 250.5q0 227 -118.5 418t-299.5 191q-121 0 -189.5 -91.5
t-68.5 -250.5q0 -227 119 -418t299 -191z" />
    <glyph glyph-name="uni01D3" unicode="&#x1d3;" horiz-adv-x="1464" 
d="M768 1606l-403 342v12l403 -254l403 254v-12zM741 -29q-70 0 -138 13.5t-146 52.5t-136.5 100.5t-96.5 166t-38 239.5v774q0 88 -155 106v11h520v-11q-156 -18 -156 -106v-809q0 -129 41 -226.5t105.5 -148.5t131 -74.5t132.5 -23.5q68 0 139.5 26.5t139 80t109.5 149.5
t42 221v557q0 195 -44 269.5t-132 82.5v11h375v-11q-39 -4 -61.5 -14t-47.5 -40t-36 -93.5t-11 -163.5v-563q0 -279 -152 -427.5t-385 -148.5z" />
    <glyph glyph-name="uni01D4" unicode="&#x1d4;" 
d="M1028 1507l-403 -342l-404 342v13l404 -254l403 254v-13zM1073 66q43 -29 115 -37v-9l-303 -30v196q-76 -57 -128 -92t-148.5 -71.5t-184.5 -36.5q-51 0 -96 15t-90 53t-71 116t-26 188v441q0 84 -21.5 121.5t-88.5 68.5v4h311l-12 -141v-490q0 -158 61.5 -223t149.5 -65
q66 0 132 26.5t104 52t108 78.5v568q0 84 -21.5 121.5t-89.5 68.5v4h311l-12 -141v-786z" />
    <glyph glyph-name="uni0218" unicode="&#x218;" horiz-adv-x="1249" 
d="M702 817q465 -106 465 -418q0 -182 -145 -305t-406 -123q-334 0 -534 193l178 285q-23 -197 114.5 -319t332.5 -122q160 0 229.5 86t69.5 205q0 76 -26 128t-85 88t-121.5 57.5t-167.5 45.5q-266 63 -374.5 184.5t-108.5 266.5q0 178 141.5 285.5t380.5 107.5
q303 0 498 -186l-182 -289q23 199 -101.5 319.5t-306.5 120.5q-137 0 -200.5 -71.5t-63.5 -186.5q0 -84 31.5 -145t96 -100t128 -63t157.5 -44zM766 -133l8 -8l-356 -434l-8 8q76 193 98 356z" />
    <glyph glyph-name="uni0219" unicode="&#x219;" horiz-adv-x="946" 
d="M465 -14q-240 0 -393 120l114 191h4q-2 -125 110 -203t243 -78q188 0 188 177q0 96 -64.5 144t-191.5 69q-113 18 -191.5 53t-117.5 80t-54.5 88t-15.5 90q0 133 110.5 211t278.5 78q111 0 211.5 -33t161.5 -84l-129 -193h-4q6 125 -95.5 202t-217.5 77q-92 0 -132 -50.5
t-40 -119.5q0 -98 74.5 -143.5t195.5 -63.5q365 -57 364 -297q0 -139 -110.5 -227t-298.5 -88zM610 -133l8 -8l-356 -434l-8 8q76 193 98 356z" />
    <glyph glyph-name="uni021A" unicode="&#x21a;" horiz-adv-x="1413" 
d="M1393 1434l-131 -422h-9q37 391 -303 391h-149v-1266q0 -66 47 -92.5t149 -34.5v-10h-602v10q102 8 149.5 35t47.5 92v1266h-47q-154 0 -248 -43t-148.5 -119t-119.5 -229h-9l68 422h1305zM588 -211l258 78l8 -8l-356 -434l-9 8q76 192 99 356z" />
    <glyph glyph-name="uni021B" unicode="&#x21b;" horiz-adv-x="649" 
d="M307 -33l-151 51l6 123v975q0 61 -36 66.5t-136 -27.5v12l377 174l-17 -84v-264h248l-10 -49h-238v-907l248 8v-8l-248 -70h-43zM455 -133l8 -8l-357 -434l-8 8q76 193 99 356z" />
    <glyph glyph-name="uni0237" unicode="&#x237;" horiz-adv-x="454" 
d="M336 106q0 -131 16 -249q-63 -104 -176 -180t-233 -95l-4 4q111 41 159.5 130t48.5 251v961q-45 29 -124 37v8l313 31v-898z" />
    <glyph glyph-name="gravecomb" unicode="&#x300;" horiz-adv-x="0" 
d="M-27 1135l-520 278l80 107l447 -379z" />
    <glyph glyph-name="acutecomb" unicode="&#x301;" horiz-adv-x="0" 
d="M-541 1135l-6 6l447 379l80 -107z" />
    <glyph glyph-name="uni0302" unicode="&#x302;" horiz-adv-x="0" 
d="M-424 1520l404 -342v-13l-404 254l-403 -254v13z" />
    <glyph glyph-name="tildecomb" unicode="&#x303;" horiz-adv-x="0" 
d="M-195 1221q-47 0 -173 56t-183 56q-76 0 -123 -76l-4 3l94 159q33 53 80 54q45 0 171 -57.5t186 -57.5q76 0 122 76l5 -2l-93 -158q-31 -53 -82 -53z" />
    <glyph glyph-name="uni0304" unicode="&#x304;" horiz-adv-x="0" 
d="M-702 1335h682v-41h-682v41z" />
    <glyph glyph-name="uni0306" unicode="&#x306;" horiz-adv-x="0" 
d="M-20 1434q0 -117 -78 -193t-197 -76q-121 0 -198.5 76t-77.5 193h16q0 -76 73.5 -131.5t186.5 -55.5t185.5 55.5t72.5 131.5h17z" />
    <glyph glyph-name="uni0307" unicode="&#x307;" horiz-adv-x="0" 
d="M-123 1245q-43 0 -72.5 29t-29.5 74q0 41 29.5 70.5t72.5 29.5t73 -29.5t30 -70.5q0 -45 -30 -74t-73 -29z" />
    <glyph glyph-name="uni0308" unicode="&#x308;" horiz-adv-x="0" 
d="M-541 1245q-43 0 -72.5 29t-29.5 74q0 41 29.5 70.5t72.5 29.5t73 -29.5t30 -70.5q0 -45 -30 -74t-73 -29zM-123 1245q-43 0 -72.5 29t-29.5 74q0 41 29.5 70.5t72.5 29.5t73 -29.5t30 -70.5q0 -45 -30 -74t-73 -29z" />
    <glyph glyph-name="uni030A" unicode="&#x30a;" horiz-adv-x="0" 
d="M-203 1141q-76 0 -130 54t-54 130t54 129t130 53t129.5 -53t53.5 -129t-53.5 -130t-129.5 -54zM-203 1180q59 0 101.5 42t42.5 103q0 59 -42 101t-102 42q-61 0 -103 -42t-42 -101q0 -61 42 -103t103 -42z" />
    <glyph glyph-name="uni030B" unicode="&#x30b;" horiz-adv-x="0" 
d="M-848 1135l-6 6l446 379l80 -107zM-541 1135l-6 6l447 379l80 -107z" />
    <glyph glyph-name="uni030C" unicode="&#x30c;" horiz-adv-x="0" 
d="M-424 1165l-403 342v13l403 -254l404 254v-13z" />
    <glyph glyph-name="uni0312" unicode="&#x312;" horiz-adv-x="0" 
d="M-377 1102l-8 8l356 434l9 -8q-76 -193 -99 -356z" />
    <glyph glyph-name="uni0326" unicode="&#x326;" horiz-adv-x="0" 
d="M-29 -31l9 -8l-357 -434l-8 8q76 193 98 356z" />
    <glyph glyph-name="uni0327" unicode="&#x327;" horiz-adv-x="0" 
d="M-348 -8q158 0 243 -47t85 -135q0 -92 -88.5 -143.5t-210.5 -51.5q-115 0 -161 42t-22 99h185q0 -20 -4.5 -45.5t16 -47t69.5 -21.5q43 0 87.5 37.5t44.5 80.5q0 127 -263 127q-80 0 -145 -12l176 234h35l-84 -117h37z" />
    <glyph glyph-name="uni0328" unicode="&#x328;" horiz-adv-x="0" 
d="M-428 -248q0 133 119 229.5t239 79.5l-32 -61q-94 0 -183.5 -54.5t-89.5 -127.5q0 -33 19.5 -55.5t54.5 -30.5t78 -2t95 34.5t101 77.5l7 -6l-179 -280q-229 22 -229 196z" />
    <glyph glyph-name="uni0335" unicode="&#x335;" horiz-adv-x="0" 
d="M-604 588l74 164l133 -17q143 -20 241.5 -17t126.5 44h9l-74 -164l-133 16q-143 20 -241.5 17.5t-127.5 -43.5h-8z" />
    <glyph glyph-name="uni0336" unicode="&#x336;" horiz-adv-x="0" 
d="M-1399 745h1379v-38h-1379v38z" />
    <glyph glyph-name="uni0337" unicode="&#x337;" horiz-adv-x="0" 
d="M-688 575l668 283v-86l-668 -205v8z" />
    <glyph glyph-name="uni0338" unicode="&#x338;" horiz-adv-x="0" 
d="M-20 1432q-33 -10 -103 -84q-465 -487 -588 -629q-512 -584 -618 -713l-115 19q37 12 111 90q53 57 183 190t223 232.5t175 195.5q41 47 271.5 310.5t345.5 406.5z" />
    <glyph glyph-name="Wgrave" unicode="&#x1e80;" horiz-adv-x="2258" 
d="M1231 1581l-6 -6l-520 278l79 107zM1841 1434h377v-9q-72 -20 -117 -67t-94 -172l-436 -1116l-193 -133l6 43l-299 772l-260 -682l-192 -133l6 43l-508 1314q-35 92 -90 140h514v-9q-57 -4 -94 -16t-63.5 -39t-23.5 -70t25 -112l404 -1065l260 688l-186 483
q-35 92 -91 140h514v-9q-57 -4 -94 -16t-63.5 -39t-23.5 -70t26 -112l403 -1065l414 1065q25 66 28 108.5t-19.5 68.5t-51.5 38t-78 22v9z" />
    <glyph glyph-name="wgrave" unicode="&#x1e81;" horiz-adv-x="1638" 
d="M907 1141l-6 -6l-520 278l80 107zM1284 993h313v-8q-55 -20 -96 -68.5t-94 -171.5l-328 -765h-10l-274 602l-258 -602h-11l-399 874l-76 139h424v-8q-203 -25 -106 -237l237 -529l168 406l-104 229l-76 139h424v-8q-203 -25 -107 -237l238 -529l221 529q27 63 30 107
t-18.5 69.5t-42 37t-55.5 23.5v8z" />
    <glyph glyph-name="Wacute" unicode="&#x1e82;" horiz-adv-x="2258" 
d="M1554 1853l-520 -278l-6 6l447 379zM1841 1434h377v-9q-72 -20 -117 -67t-94 -172l-436 -1116l-193 -133l6 43l-299 772l-260 -682l-192 -133l6 43l-508 1314q-35 92 -90 140h514v-9q-57 -4 -94 -16t-63.5 -39t-23.5 -70t25 -112l404 -1065l260 688l-186 483
q-35 92 -91 140h514v-9q-57 -4 -94 -16t-63.5 -39t-23.5 -70t26 -112l403 -1065l414 1065q25 66 28 108.5t-19.5 68.5t-51.5 38t-78 22v9z" />
    <glyph glyph-name="wacute" unicode="&#x1e83;" horiz-adv-x="1638" 
d="M1231 1413l-520 -278l-6 6l446 379zM1284 993h313v-8q-55 -20 -96 -68.5t-94 -171.5l-328 -765h-10l-274 602l-258 -602h-11l-399 874l-76 139h424v-8q-203 -25 -106 -237l237 -529l168 406l-104 229l-76 139h424v-8q-203 -25 -107 -237l238 -529l221 529q27 63 30 107
t-18.5 69.5t-42 37t-55.5 23.5v8z" />
    <glyph glyph-name="Wdieresis" unicode="&#x1e84;" horiz-adv-x="2258" 
d="M920 1686q-43 0 -73 28.5t-30 73.5q0 41 30 70.5t73 29.5t72.5 -29.5t29.5 -70.5q0 -45 -29.5 -73.5t-72.5 -28.5zM1337 1686q-43 0 -72.5 28.5t-29.5 73.5q0 41 29.5 70.5t72.5 29.5t73 -29.5t30 -70.5q0 -45 -30 -73.5t-73 -28.5zM1841 1434h377v-9q-72 -20 -117 -67
t-94 -172l-436 -1116l-193 -133l6 43l-299 772l-260 -682l-192 -133l6 43l-508 1314q-35 92 -90 140h514v-9q-57 -4 -94 -16t-63.5 -39t-23.5 -70t25 -112l404 -1065l260 688l-186 483q-35 92 -91 140h514v-9q-57 -4 -94 -16t-63.5 -39t-23.5 -70t26 -112l403 -1065
l414 1065q25 66 28 108.5t-19.5 68.5t-51.5 38t-78 22v9z" />
    <glyph glyph-name="wdieresis" unicode="&#x1e85;" horiz-adv-x="1638" 
d="M586 1245q-43 0 -73 29t-30 74q0 41 30 70.5t73 29.5t72.5 -29.5t29.5 -70.5q0 -45 -29.5 -74t-72.5 -29zM1004 1245q-43 0 -73 29t-30 74q0 41 30 70.5t73 29.5t72.5 -29.5t29.5 -70.5q0 -45 -29.5 -74t-72.5 -29zM1284 993h313v-8q-55 -20 -96 -68.5t-94 -171.5
l-328 -765h-10l-274 602l-258 -602h-11l-399 874l-76 139h424v-8q-203 -25 -106 -237l237 -529l168 406l-104 229l-76 139h424v-8q-203 -25 -107 -237l238 -529l221 529q27 63 30 107t-18.5 69.5t-42 37t-55.5 23.5v8z" />
    <glyph glyph-name="uni1E9E" unicode="&#x1e9e;" horiz-adv-x="1402" 
d="M805 836q516 -6 516 -363q0 -207 -175 -340t-497 -133h-160l316 317h8q-53 -70 -79.5 -115.5t-32 -82.5t25.5 -54.5t100 -17.5q133 0 210 78t77 274q0 82 -15.5 143.5t-56.5 125t-133 98.5t-229 35h-102l391 559q-162 33 -342 33q-127 0 -179.5 -52.5t-52.5 -191.5v-1032
l11 -117h-375v10q156 18 155 107v895q0 125 55.5 215t145.5 133t181 60.5t184 13.5l483 -21q-96 -106 -160 -196z" />
    <glyph glyph-name="Ygrave" unicode="&#x1ef2;" horiz-adv-x="1576" 
d="M895 1581l-6 -6l-520 278l80 107zM1094 1434h452v-9q-96 -20 -158.5 -60t-125.5 -140l-390 -607v-501q0 -51 44.5 -75t132.5 -32v-10h-562v10q88 8 132.5 32t44.5 75v461l-416 669q-96 156 -217 178v9h346l110 -187l361 -590l362 570q33 53 40 89t-14.5 57.5t-54 32.5
t-87.5 19v9z" />
    <glyph glyph-name="ygrave" unicode="&#x1ef3;" horiz-adv-x="1126" 
d="M662 1141l-7 -6l-520 278l80 107zM770 993h315v-8q-55 -20 -96 -67.5t-94 -172.5l-360 -856q-27 -61 -40.5 -89.5t-44 -77t-61.5 -72t-80 -42t-110 -18.5l-78 91q281 0 375 219l30 71l-399 883l-76 139h420v-8q-201 -25 -106 -237l251 -564l240 564q27 63 30 107
t-18.5 69.5t-42 37t-55.5 23.5v8z" />
    <glyph glyph-name="endash" unicode="&#x2013;" horiz-adv-x="1212" 
d="M102 485l74 164l133 -16q207 -29 485.5 -22t307.5 48h8l-74 -163l-133 16q-207 29 -485.5 21.5t-306.5 -48.5h-9z" />
    <glyph glyph-name="emdash" unicode="&#x2014;" horiz-adv-x="2183" 
d="M102 485l74 164l133 -16q238 -31 986.5 -23t777.5 49h8l-74 -163l-133 16q-238 31 -986.5 22.5t-776.5 -49.5h-9z" />
    <glyph glyph-name="quoteleft" unicode="&#x2018;" horiz-adv-x="444" 
d="M356 1464l4 -6q-129 -162 13 -280l-291 -250q-10 14 -10 57q0 104 64.5 221t162.5 207z" />
    <glyph glyph-name="quoteright" unicode="&#x2019;" horiz-adv-x="444" 
d="M88 930l-4 6q129 162 -12 281l290 249q10 -14 11 -57q0 -104 -64.5 -221t-163.5 -207z" />
    <glyph glyph-name="quotesinglbase" unicode="&#x201a;" horiz-adv-x="444" 
d="M88 -279l-4 7q129 162 -12 280l290 250q10 -16 11 -57q0 -104 -64.5 -221t-163.5 -207z" />
    <glyph glyph-name="quotedblleft" unicode="&#x201c;" horiz-adv-x="778" 
d="M356 1464l4 -6q-129 -162 13 -280l-291 -250q-10 14 -10 57q0 104 64.5 221t162.5 207zM690 1464l4 -6q-129 -162 13 -280l-291 -250q-10 14 -10 57q0 104 64.5 221t162.5 207z" />
    <glyph glyph-name="quotedblright" unicode="&#x201d;" horiz-adv-x="778" 
d="M88 930l-4 6q129 162 -12 281l290 249q10 -14 11 -57q0 -104 -64.5 -221t-163.5 -207zM422 930l-4 6q129 162 -12 281l290 249q10 -14 11 -57q0 -104 -64.5 -221t-163.5 -207z" />
    <glyph glyph-name="quotedblbase" unicode="&#x201e;" horiz-adv-x="778" 
d="M88 -279l-4 7q129 162 -12 280l290 250q10 -16 11 -57q0 -104 -64.5 -221t-163.5 -207zM422 -279l-4 7q129 162 -12 280l290 250q10 -16 11 -57q0 -104 -64.5 -221t-163.5 -207z" />
    <glyph glyph-name="dagger" unicode="&#x2020;" horiz-adv-x="882" 
d="M684 1118l96 -168l-4 -2q-51 84 -121 84q-63 0 -206 -67q16 -127 108 -183q-16 -18 -29 -104l-84 -574h-4l-84 574q-12 86 -28 104q90 51 106 176q-111 -51 -155 -51q-49 0 -78 47l-99 168l4 2q49 -82 119 -82q61 0 209 70q-10 63 -49 141t-39 109q0 39 26.5 65.5
t69.5 26.5t70 -26.5t27 -65.5q0 -31 -39 -106.5t-49 -137.5q106 49 153 49q51 0 80 -49z" />
    <glyph glyph-name="daggerdbl" unicode="&#x2021;" horiz-adv-x="884" 
d="M281 948q-49 0 -78 47l-99 168l5 2q49 -82 118 -82q61 0 205 68q-10 41 -48 109.5t-38 101.5q0 39 26.5 65.5t69.5 26.5t70 -26.5t27 -65.5q0 -35 -37 -101.5t-47 -99.5q106 47 151 47q51 0 80 -49l96 -168l-4 -2q-51 84 -121 84q-61 0 -204 -67q18 -92 104 -142
q-14 -18 -41 -104l-74 -244l-73 244q-27 86 -41 104q82 51 102 131q-106 -47 -149 -47zM604 76q49 0 78 -47l98 -168l-4 -2q-49 82 -119 82q-61 0 -204 -68q10 -41 48 -109.5t38 -101.5q0 -39 -27 -65.5t-70 -26.5t-69.5 26.5t-26.5 65.5q0 35 37 101.5t47 99.5
q-106 -47 -151 -47q-51 0 -80 49l-97 168l4 2q51 -84 121 -84q61 0 205 67q-18 92 -104 142q14 18 41 104l73 244l74 -244q27 -86 41 -104q-82 -51 -102 -131q106 47 149 47z" />
    <glyph glyph-name="bullet" unicode="&#x2022;" horiz-adv-x="796" 
d="M399 330q-98 0 -166.5 68.5t-68.5 166.5q0 96 68.5 165t166.5 69q96 0 165 -68.5t69 -165.5q0 -98 -69 -166.5t-165 -68.5z" />
    <glyph glyph-name="ellipsis" unicode="&#x2026;" horiz-adv-x="1308" 
d="M233 -14q-55 0 -93 37.5t-38 93.5q0 53 38 91t93 38q53 0 91 -38t38 -91q0 -55 -38 -93t-91 -38zM655 -14q-55 0 -93 37.5t-38 93.5q0 53 38 91t93 38q53 0 91 -38t38 -91q0 -55 -38 -93t-91 -38zM1077 -14q-55 0 -93 37.5t-38 93.5q0 53 38 91t93 38q53 0 91 -38t38 -91
q0 -55 -38 -93t-91 -38z" />
    <glyph glyph-name="perthousand" unicode="&#x2030;" horiz-adv-x="2048" 
d="M371 1286q121 0 194.5 -67.5t73.5 -194.5t-73.5 -195.5t-194.5 -68.5q-119 0 -194 68.5t-75 195.5t75 194.5t194 67.5zM141 0q27 14 95 94q330 395 444 547q291 383 465 633h110q-27 -14 -94 -94q-299 -360 -444 -547q-229 -295 -465 -633h-111zM412 786q106 0 106 164
q0 143 -52 226.5t-136 83.5q-57 0 -82 -37t-25 -129q0 -137 52.5 -222.5t136.5 -85.5zM1026 514q121 0 194.5 -67.5t73.5 -194.5t-73.5 -195.5t-194.5 -68.5q-119 0 -193.5 68.5t-74.5 195.5t74.5 194.5t193.5 67.5zM1677 514q121 0 195 -67.5t74 -194.5t-74 -195.5
t-195 -68.5q-119 0 -193.5 68.5t-74.5 195.5t74.5 194.5t193.5 67.5zM1067 14q106 0 107 164q0 143 -52.5 226t-136.5 83q-57 0 -81.5 -36.5t-24.5 -128.5q0 -137 52 -222.5t136 -85.5zM1718 14q106 0 107 164q0 143 -52.5 226t-136.5 83q-57 0 -81.5 -36.5t-24.5 -128.5
q0 -137 52 -222.5t136 -85.5z" />
    <glyph glyph-name="guilsinglleft" unicode="&#x2039;" horiz-adv-x="440" 
d="M102 526l275 488h12l-192 -488l192 -487h-12z" />
    <glyph glyph-name="guilsinglright" unicode="&#x203a;" horiz-adv-x="440" 
d="M338 526l-275 -487h-12l193 487l-193 488h12z" />
    <glyph glyph-name="fraction" unicode="&#x2044;" horiz-adv-x="1228" 
 />
    <glyph glyph-name="Euro" unicode="&#x20ac;" horiz-adv-x="1576" 
d="M1051 68q119 0 237.5 46t181.5 126l15 -11q-72 -113 -209 -184.5t-326 -71.5q-283 0 -495.5 159t-270.5 417q-61 0 -133 -6q-63 -4 -82 -19l39 97q51 -6 166 -15q-8 49 -8 113v35q-35 -2 -113 -6q-68 -4 -84 -19l41 96q55 -6 162 -14q35 299 274.5 476t548.5 177
q344 0 521 -215l-261 -360l-6 2q84 207 -19.5 368.5t-334.5 161.5q-215 0 -357.5 -153.5t-142.5 -429.5v-39q86 -4 125 -4q195 -2 457 12q68 4 88 20l-39 -96q-248 20 -516 25q-18 0 -55 1t-56 1q6 -86 31 -166q14 0 44 -1t44 -1q197 -2 457 12q70 4 90 21l-41 -97
q-248 20 -516 25h-66q74 -215 239 -349t370 -134z" />
    <glyph glyph-name="trademark" unicode="&#x2122;" horiz-adv-x="1757" 
d="M762 1434l-86 -281h-8q14 131 -30 194.5t-124 63.5h-65v-584q0 -41 31.5 -59t99.5 -25v-4h-392v4q68 6 99.5 23.5t31.5 60.5v584h-26q-94 0 -149.5 -56.5t-116.5 -201.5h-7l46 281h696zM1726 1427q-104 -16 -104 -71v-541q0 -55 104 -72v-4h-337v4q104 16 104 72v547
l-274 -641l-283 516v-258q0 -221 104 -236v-4h-237v4q35 4 53 16.5t34.5 59.5t16.5 133v338q-51 100 -110 144h176l291 -529l229 529h233v-7z" />
    <glyph glyph-name="partialdiff" unicode="&#x2202;" horiz-adv-x="1253" 
d="M635 -29q-238 0 -395.5 147.5t-157.5 373.5q0 186 108.5 310t292.5 124q135 0 245 -62.5t163 -132.5l-14 -12q-90 104 -238 104q-174 0 -265 -134t-91 -335q0 -170 66.5 -257t193.5 -87q106 0 187 60.5t126 163t67.5 222t22.5 251.5q0 133 -24.5 246.5t-79 216
t-153.5 173t-236 97.5l4 22q309 -39 506.5 -283.5t197.5 -584.5q0 -279 -136 -451t-390 -172z" />
    <glyph glyph-name="emptyset" unicode="&#x2205;" horiz-adv-x="862" 
d="M678 881q82 -94 82 -217q0 -137 -96.5 -233.5t-231.5 -96.5q-127 0 -223 86l-43 -41l-25 24l43 43q-82 92 -82 218q0 135 96.5 231t233.5 96q125 0 221 -86l43 43l25 -26zM137 664q0 -111 72 -195l420 412q-86 76 -197 75q-123 0 -209 -85.5t-86 -206.5zM432 369
q121 0 207 86t86 209q0 111 -72 192l-420 -412q86 -75 199 -75z" />
    <glyph glyph-name="product" unicode="&#x220f;" horiz-adv-x="921" 
d="M819 1434v-37h-123v-1807h-41v1807h-389v-1807h-41v1807h-123v37h717z" />
    <glyph glyph-name="summation" unicode="&#x2211;" horiz-adv-x="716" 
d="M614 1434v-37h-460l358 -885l-358 -885h460v-37h-512l369 922l-369 922h512z" />
    <glyph glyph-name="minus" unicode="&#x2212;" horiz-adv-x="829" 
d="M102 682h625v-37h-625v37z" />
    <glyph glyph-name="radical" unicode="&#x221a;" horiz-adv-x="921" 
d="M819 1434v-37h-147l-283 -1807h-72l-215 1008h41l209 -979l285 1815h182z" />
    <glyph glyph-name="infinity" unicode="&#x221e;" horiz-adv-x="1626" 
d="M1217 991q135 0 231 -96t96 -231q0 -137 -96 -233.5t-231 -96.5q-123 0 -215.5 80t-110.5 198h35q18 -104 100 -173.5t191 -69.5q121 0 206.5 86t85.5 209q0 121 -86 206.5t-206 85.5q-201 0 -386 -292q-205 -328 -421 -328q-135 0 -231.5 96t-96.5 232q0 137 96 233
t232 96q123 0 215 -79.5t110 -198.5h-35q-18 104 -100 173.5t-190 69.5q-121 0 -207 -86t-86 -208q0 -121 86 -207t207 -86q205 0 385 293q203 327 422 327z" />
    <glyph glyph-name="integral" unicode="&#x222b;" horiz-adv-x="962" 
d="M860 1434v-37h-41q-100 0 -164.5 -99.5t-93.5 -259t-45 -352t-34.5 -385t-50.5 -352.5t-103.5 -259.5t-180.5 -99.5h-45v37h41q100 0 165 99.5t93.5 259t45 352t35 385t50 352.5t103.5 259.5t180 99.5h45z" />
    <glyph glyph-name="approxequal" unicode="&#x2248;" horiz-adv-x="829" 
d="M102 805q86 43 152 43q57 0 160.5 -43t160.5 -43q66 0 152 43v-37q-86 -43 -152 -43q-57 0 -160.5 43t-160.5 43q-66 0 -152 -43v37zM102 559q86 43 152 43q57 0 160.5 -43t160.5 -43q66 0 152 43v-37q-86 -43 -152 -43q-57 0 -160.5 43t-160.5 43q-66 0 -152 -43v37z
" />
    <glyph glyph-name="notequal" unicode="&#x2260;" horiz-adv-x="829" 
d="M727 788h-158l-256 -249h414v-37h-453l-124 -123l-25 24l100 99h-123v37h160l256 249h-416v37h453l125 123l25 -26l-99 -97h121v-37z" />
    <glyph glyph-name="lessequal" unicode="&#x2264;" horiz-adv-x="778" 
d="M102 643v41l562 195l12 -35l-520 -180l520 -181l-12 -34zM676 37v-37h-572v37h572z" />
    <glyph glyph-name="greaterequal" unicode="&#x2265;" horiz-adv-x="778" 
d="M676 643l-561 -194l-13 34l521 181l-521 180l13 35l561 -195v-41zM102 37h572v-37h-572v37z" />
    <glyph glyph-name="lozenge" unicode="&#x25ca;" horiz-adv-x="634" 
d="M338 1225l194 -561l-194 -562h-41l-195 562l195 561h41zM317 156l177 508l-177 507l-176 -507z" />
    <glyph glyph-name="R.aalt" horiz-adv-x="1423" 
d="M2501 -98h8q-61 -121 -233.5 -230.5t-424.5 -109.5q-246 0 -431 121.5t-363 361.5l-334 447q-72 96 -131 96h-197v-471q0 -88 156 -107v-10h-520v10q156 18 155 107v1200q0 88 -155 106v11h719q254 0 397 -96.5t143 -280.5q0 -158 -104.5 -274.5t-286.5 -164.5l406 -555
q309 -422 696 -421q324 0 500 260zM395 670q160 -45 322 -45q199 0 283.5 74.5t84.5 281.5q0 86 -16 152.5t-61 130t-138.5 98.5t-230.5 35h-244v-727z" />
    <glyph glyph-name="i.locl" horiz-adv-x="475" 
d="M233 1245q-43 0 -72.5 29t-29.5 74q0 41 29.5 70.5t72.5 29.5t73 -29.5t30 -70.5q0 -45 -30 -74t-73 -29zM135 0l10 141v787q-45 29 -125 37v8l314 31v-814q0 -82 16.5 -120.5t63.5 -69.5h-279z" />
    <glyph glyph-name="f.aalt" horiz-adv-x="757" 
d="M594 1501q-123 0 -171 -97t-48 -298v-113h360l-10 -49h-350v-745q0 -92 25.5 -133t111.5 -58v-8h-358l32 127v727q0 27 -8 45.5t-16 27.5t-36 13t-40 4h-55l10 49h145v49q0 240 174.5 386.5t401.5 146.5q117 0 242 -49l-209 -101q-76 76 -201 76z" />
    <glyph glyph-name="a.salt" horiz-adv-x="1064" 
d="M903 168q0 -82 16.5 -119t63.5 -67v-7l-319 64l10 6q-96 -59 -228 -59q-166 0 -275.5 94t-109.5 252q0 172 136.5 279.5t382.5 107.5q49 0 135 -8v12q0 119 -67.5 173t-168.5 54q-150 0 -233 -98l-19 14q121 139 363 140q313 0 313 -271v-567zM248 412q0 -152 90 -264.5
t213 -112.5q102 0 160 84q4 41 4 76v401q-104 90 -217 90q-106 0 -178 -70.5t-72 -203.5z" />
    <glyph glyph-name="aacute.aalt" horiz-adv-x="1064" 
d="M989 1413l-520 -278l-6 6l446 379zM903 168q0 -82 16.5 -119t63.5 -67v-7l-319 64l10 6q-96 -59 -228 -59q-166 0 -275.5 94t-109.5 252q0 172 136.5 279.5t382.5 107.5q49 0 135 -8v12q0 119 -67.5 173t-168.5 54q-150 0 -233 -98l-19 14q121 139 363 140
q313 0 313 -271v-567zM248 412q0 -152 90 -264.5t213 -112.5q102 0 160 84q4 41 4 76v401q-104 90 -217 90q-106 0 -178 -70.5t-72 -203.5z" />
    <glyph glyph-name="abreve.aalt" horiz-adv-x="1064" 
d="M563 1165q-121 0 -198.5 76t-77.5 193h16q0 -76 74 -131.5t186.5 -55.5t185 55.5t72.5 131.5h17q0 -117 -78 -193t-197 -76zM903 168q0 -82 16.5 -119t63.5 -67v-7l-319 64l10 6q-96 -59 -228 -59q-166 0 -275.5 94t-109.5 252q0 172 136.5 279.5t382.5 107.5
q49 0 135 -8v12q0 119 -67.5 173t-168.5 54q-150 0 -233 -98l-19 14q121 139 363 140q313 0 313 -271v-567zM248 412q0 -152 90 -264.5t213 -112.5q102 0 160 84q4 41 4 76v401q-104 90 -217 90q-106 0 -178 -70.5t-72 -203.5z" />
    <glyph glyph-name="uni01CE.aalt" horiz-adv-x="1064" 
d="M967 1507l-404 -342l-403 342v13l403 -254l404 254v-13zM903 168q0 -82 16.5 -119t63.5 -67v-7l-319 64l10 6q-96 -59 -228 -59q-166 0 -275.5 94t-109.5 252q0 172 136.5 279.5t382.5 107.5q49 0 135 -8v12q0 119 -67.5 173t-168.5 54q-150 0 -233 -98l-19 14
q121 139 363 140q313 0 313 -271v-567zM248 412q0 -152 90 -264.5t213 -112.5q102 0 160 84q4 41 4 76v401q-104 90 -217 90q-106 0 -178 -70.5t-72 -203.5z" />
    <glyph glyph-name="acircumflex.aalt" horiz-adv-x="1064" 
d="M967 1165l-404 254l-403 -254v13l403 342l404 -342v-13zM903 168q0 -82 16.5 -119t63.5 -67v-7l-319 64l10 6q-96 -59 -228 -59q-166 0 -275.5 94t-109.5 252q0 172 136.5 279.5t382.5 107.5q49 0 135 -8v12q0 119 -67.5 173t-168.5 54q-150 0 -233 -98l-19 14
q121 139 363 140q313 0 313 -271v-567zM248 412q0 -152 90 -264.5t213 -112.5q102 0 160 84q4 41 4 76v401q-104 90 -217 90q-106 0 -178 -70.5t-72 -203.5z" />
    <glyph glyph-name="adieresis.aalt" horiz-adv-x="1064" 
d="M354 1245q-43 0 -72.5 29t-29.5 74q0 41 29.5 70.5t72.5 29.5t73 -29.5t30 -70.5q0 -45 -30 -74t-73 -29zM772 1245q-43 0 -72.5 29t-29.5 74q0 41 29.5 70.5t72.5 29.5t72.5 -29.5t29.5 -70.5q0 -45 -29.5 -74t-72.5 -29zM903 168q0 -82 16.5 -119t63.5 -67v-7l-319 64
l10 6q-96 -59 -228 -59q-166 0 -275.5 94t-109.5 252q0 172 136.5 279.5t382.5 107.5q49 0 135 -8v12q0 119 -67.5 173t-168.5 54q-150 0 -233 -98l-19 14q121 139 363 140q313 0 313 -271v-567zM248 412q0 -152 90 -264.5t213 -112.5q102 0 160 84q4 41 4 76v401
q-104 90 -217 90q-106 0 -178 -70.5t-72 -203.5z" />
    <glyph glyph-name="agrave.aalt" horiz-adv-x="1064" 
d="M666 1141l-7 -6l-520 278l80 107zM903 168q0 -82 16.5 -119t63.5 -67v-7l-319 64l10 6q-96 -59 -228 -59q-166 0 -275.5 94t-109.5 252q0 172 136.5 279.5t382.5 107.5q49 0 135 -8v12q0 119 -67.5 173t-168.5 54q-150 0 -233 -98l-19 14q121 139 363 140q313 0 313 -271
v-567zM248 412q0 -152 90 -264.5t213 -112.5q102 0 160 84q4 41 4 76v401q-104 90 -217 90q-106 0 -178 -70.5t-72 -203.5z" />
    <glyph glyph-name="amacron.aalt" horiz-adv-x="1064" 
d="M903 1335v-41h-682v41h682zM903 168q0 -82 16.5 -119t63.5 -67v-7l-319 64l10 6q-96 -59 -228 -59q-166 0 -275.5 94t-109.5 252q0 172 136.5 279.5t382.5 107.5q49 0 135 -8v12q0 119 -67.5 173t-168.5 54q-150 0 -233 -98l-19 14q121 139 363 140q313 0 313 -271v-567z
M248 412q0 -152 90 -264.5t213 -112.5q102 0 160 84q4 41 4 76v401q-104 90 -217 90q-106 0 -178 -70.5t-72 -203.5z" />
    <glyph glyph-name="aogonek.aalt" horiz-adv-x="1064" 
d="M797 12q-94 0 -182.5 -54t-88.5 -128q0 -33 19.5 -55.5t54.5 -30.5t78 -2t95 34.5t101 78.5l7 -7l-179 -280q-229 23 -229 196q0 78 45 148t117 113q-84 -39 -189 -39q-166 0 -275.5 94t-109.5 252q0 172 136.5 279.5t382.5 107.5q49 0 135 -8v12q0 119 -67.5 173
t-168.5 54q-150 0 -233 -98l-19 14q121 139 363 140q313 0 313 -271v-567q0 -82 16.5 -119t63.5 -67v-7zM248 412q0 -152 90 -264.5t213 -112.5q102 0 160 84q4 41 4 76v401q-104 90 -217 90q-106 0 -178 -70.5t-72 -203.5zM674 45h-2h2z" />
    <glyph glyph-name="aring.aalt" horiz-adv-x="1064" 
d="M563 1141q-76 0 -130 54t-54 130t54 129t130 53t129 -53t53 -129t-53 -130t-129 -54zM563 1468q-61 0 -103 -42t-42 -101q0 -61 42 -103t103 -42q59 0 101.5 42t42.5 103q0 59 -42.5 101t-101.5 42zM903 168q0 -82 16.5 -119t63.5 -67v-7l-319 64l10 6q-96 -59 -228 -59
q-166 0 -275.5 94t-109.5 252q0 172 136.5 279.5t382.5 107.5q49 0 135 -8v12q0 119 -67.5 173t-168.5 54q-150 0 -233 -98l-19 14q121 139 363 140q313 0 313 -271v-567zM248 412q0 -152 90 -264.5t213 -112.5q102 0 160 84q4 41 4 76v401q-104 90 -217 90
q-106 0 -178 -70.5t-72 -203.5z" />
    <glyph glyph-name="atilde.aalt" horiz-adv-x="1064" 
d="M360 1333q-76 0 -122 -76l-5 3l95 159q33 53 80 54q45 0 171 -57.5t185 -57.5q76 0 123 76l4 -2l-92 -158q-31 -53 -82 -53q-47 0 -173.5 56t-183.5 56zM903 168q0 -82 16.5 -119t63.5 -67v-7l-319 64l10 6q-96 -59 -228 -59q-166 0 -275.5 94t-109.5 252
q0 172 136.5 279.5t382.5 107.5q49 0 135 -8v12q0 119 -67.5 173t-168.5 54q-150 0 -233 -98l-19 14q121 139 363 140q313 0 313 -271v-567zM248 412q0 -152 90 -264.5t213 -112.5q102 0 160 84q4 41 4 76v401q-104 90 -217 90q-106 0 -178 -70.5t-72 -203.5z" />
    <glyph glyph-name="t_y.dlig" horiz-adv-x="1751" 
d="M1395 993h315v-8q-55 -20 -96 -67.5t-94 -172.5l-361 -856q-27 -61 -40 -89.5t-44 -77t-61.5 -72t-79.5 -42t-111 -18.5l-78 91q281 0 375 219l31 71l-399 883l-39 70q-102 20 -273 20h-90v-907l248 8v-8l-248 -70h-43l-151 51l6 123v975q0 61 -36 66.5t-136 -27.5v12
l377 174l-17 -84v-264h746v-8q-201 -25 -107 -237l252 -564l240 564q27 63 29.5 107t-19 69.5t-41.5 37t-55 23.5v8z" />
    <glyph glyph-name="zero.aalt" horiz-adv-x="1150" 
d="M575.5 1006q221.5 0 357.5 -141.5t136 -369t-136 -368.5t-357.5 -141t-357.5 141t-136 368.5t136 369t357.5 141.5zM655 20q104 0 157.5 90.5t53.5 251.5q0 145 -43 282.5t-130 232t-197 94.5q-104 0 -157.5 -90t-53.5 -252q0 -145 43 -282.5t129.5 -232t197.5 -94.5z
" />
    <glyph glyph-name="one.aalt" horiz-adv-x="675" 
d="M438 221q0 -102 43 -148t174 -63v-10h-635v10q129 16 172.5 62.5t43.5 148.5v567q0 27 -3.5 43.5t-15.5 24.5t-23.5 11t-39 -1t-51 -9t-68.5 -17v12l414 174l-11 -80v-725z" />
    <glyph glyph-name="two.aalt" horiz-adv-x="1157" 
d="M1047 354h8l-58 -354h-858l-26 135l204 84q4 2 49.5 20.5t59.5 24.5t60 26.5t66.5 34t61.5 38t60.5 45t48.5 50t43 58.5t24.5 64.5t10.5 74.5q0 115 -73 208t-198 93q-141 0 -215.5 -121.5t-70.5 -297.5h-6l-156 254q322 215 577 215q160 0 259.5 -81t99.5 -212
q0 -63 -23.5 -119.5t-73 -102t-96.5 -81t-122.5 -69.5t-124 -54.5t-127 -49t-105.5 -38.5l-51 -21h383q135 0 200.5 15.5t98.5 48t70 112.5z" />
    <glyph glyph-name="three.aalt" horiz-adv-x="1228" 
d="M737 326q172 0 286 -76t114 -246q0 -219 -181.5 -354t-420.5 -135q-147 0 -271.5 52t-185.5 130l12 12q59 -63 164.5 -102t214.5 -39q203 0 326 135t123 330q0 336 -404 233l-63 -18l-29 31q178 31 290.5 129t112.5 247q0 51 -14 100.5t-47 95.5t-94.5 74.5t-145.5 28.5
q-102 0 -166.5 -42t-87 -115.5t-22.5 -154.5t20 -175h-6l-190 307q94 88 260 160t344 72q197 0 279.5 -87.5t82.5 -199.5q0 -242 -368 -395q10 0 32.5 1t34.5 1z" />
    <glyph glyph-name="four.aalt" horiz-adv-x="1267" 
d="M1079 -25q-111 4 -161 5v-170q0 -102 40.5 -148.5t165.5 -62.5v-9h-608v9q123 16 164 62t41 149v145q0 27 16 29q-356 4 -549 -7q-100 -4 -133 -16h-4l604 883l31 71l313 150v-8q-82 -47 -81 -139v-801q8 0 26.5 1t28.5 1q90 2 131 55t92 225l10 -4l-63 -434zM186 117
q236 -10 535 -4v759z" />
    <glyph glyph-name="five.aalt" horiz-adv-x="1138" 
d="M621 485q190 0 308 -123.5t118 -306.5q0 -219 -167 -371.5t-397 -152.5q-137 0 -251.5 59.5t-170.5 161.5l127 223h7q-16 -199 103.5 -303t266.5 -104q127 0 201 89t74 257q0 199 -99.5 334t-279.5 135q-160 0 -254 -109l-14 13l28 729q96 -23 217 -23h609l-107 -428h-8
q18 152 0.5 197t-72.5 45h-518q-31 0 -45 -2t-29.5 -15.5t-17.5 -39.5l-29 -433q63 66 170 117t230 51z" />
    <glyph glyph-name="six.aalt" horiz-adv-x="1243" 
d="M608 -29q-254 0 -390 172t-136 451q0 340 197.5 584.5t506.5 283.5l5 -22q-137 -27 -236.5 -97.5t-154 -173t-79 -216t-24.5 -246.5q0 -131 22.5 -251t67.5 -222.5t126 -163t187 -60.5q127 0 194 87t67 257q0 201 -91.5 335t-265.5 134q-147 0 -237 -104l-15 12
q53 70 163 132.5t245 62.5q184 0 292.5 -124t108.5 -310q0 -225 -157.5 -373t-395.5 -148z" />
    <glyph glyph-name="seven.aalt" horiz-adv-x="1126" 
d="M1085 1016l-536 -1415l-402 -129l15 6q147 117 295 315q184 256 489 957q4 23 7 34t-12 16t-24.5 6t-31.5 1h-8h-598q-84 0 -128.5 -43t-99.5 -199h-10l111 428h735q132 0 198 23z" />
    <glyph glyph-name="eight.aalt" horiz-adv-x="1171" 
d="M739 805q207 -84 284 -178.5t77 -212.5q0 -193 -142.5 -318t-388.5 -125q-209 0 -353 92.5t-144 276.5q0 137 86 233.5t233 147.5q-248 139 -248 360q0 178 128 279.5t329 101.5q188 0 305 -85t117 -224q0 -196 -283 -348zM535 1434q-113 0 -171.5 -58.5t-58.5 -169.5
q0 -76 26.5 -136t78 -101t95.5 -64.5t109 -50.5l115 -45q117 100 113 278q-2 178 -88 262.5t-219 84.5zM672 8q264 0 264 254q0 137 -74 216t-213 132l-125 49q-68 27 -127 60q-76 -61 -105.5 -128t-29.5 -157q0 -215 121 -320.5t289 -105.5z" />
    <glyph glyph-name="nine.aalt" horiz-adv-x="1243" 
d="M635 1006q254 0 390 -172t136 -451q0 -340 -197.5 -584.5t-506.5 -283.5l-4 22q137 27 236 97.5t153.5 173t79 216t24.5 246.5q0 131 -22.5 251t-67.5 222.5t-126 163t-187 60.5q-127 0 -193.5 -87t-66.5 -257q0 -201 91 -335t265 -134q147 0 238 104l14 -12
q-53 -70 -163 -132.5t-245 -62.5q-184 0 -292.5 124t-108.5 310q0 225 157.5 373t395.5 148z" />
    </font>
</defs>
</svg>
