<svg width="103" height="106" viewBox="0 0 103 106" fill="none" xmlns="http://www.w3.org/2000/svg">
<path d="M85.3058 81.1718C85.3058 81.1718 84.5449 81.1045 83.1143 80.9594C82.4046 80.887 81.5086 80.7132 80.4704 80.5436C79.9485 80.4558 79.4045 80.3095 78.8148 80.1859C78.2251 80.0624 77.5958 79.9209 76.9613 79.7385C73.8179 78.8799 70.7718 77.6833 67.8734 76.1686C64.1118 74.1846 60.6263 71.6926 57.5099 68.7591C53.7989 65.2628 50.722 61.1188 48.4223 56.5198C47.1771 53.9856 46.3273 51.2667 45.9037 48.4622C45.4412 45.486 45.7136 42.4384 46.6962 39.5982C47.7422 36.6571 49.4982 34.036 51.7999 31.9801C54.1682 29.815 57.1316 28.4549 60.2835 28.0863C63.5252 27.8089 66.7633 28.6604 69.4752 30.5031C72.2915 32.3168 74.4217 35.0601 75.5151 38.2815C75.7757 39.0965 75.9548 39.9366 76.0498 40.7889C76.1016 41.2326 76.1143 41.6233 76.126 42.1074C76.1376 42.5914 76.1231 42.8711 76.0612 43.3251C75.9083 45.0192 75.4806 46.6753 74.7958 48.2249C73.4275 51.2233 71.3792 53.842 68.8223 55.862C66.3591 57.7917 63.6629 59.3864 60.8009 60.6066C58.09 61.8392 55.309 62.9026 52.473 63.7909C47.0304 65.5306 41.3046 66.141 35.6296 65.5867C30.5288 65.0011 25.6014 63.3393 21.157 60.7057C17.4387 58.4946 14.0263 55.7818 11.0111 52.64C8.61293 50.1808 6.82942 47.1637 5.81239 43.8454C5.13512 41.69 5.00432 39.393 5.43232 37.1713C5.56723 36.5969 5.74452 36.0338 5.96267 35.4869L6.20199 34.9242C6.26457 34.7817 6.3794 34.6703 6.52154 34.6141C6.66368 34.558 6.82169 34.5615 6.96127 34.6241C7.09244 34.6832 7.19715 34.7907 7.2546 34.9253C7.31206 35.0599 7.31805 35.2118 7.27141 35.3507L7.10081 35.8676C6.95632 36.3705 6.84801 36.8837 6.77674 37.4029C6.5368 39.3944 6.77971 41.4158 7.48391 43.2879C8.59496 46.2313 10.3459 48.8759 12.6036 51.0205C15.5613 53.8883 18.8556 56.3673 22.4105 58.4001C26.5927 60.768 31.1908 62.2627 35.9393 62.7977C41.2617 63.3396 46.6359 62.7945 51.7518 61.1939C54.4893 60.3492 57.1764 59.3413 59.7993 58.1753C62.4559 57.0698 64.9735 55.6412 67.298 53.9201C69.6118 52.1932 71.4855 49.9194 72.7602 47.2915C73.365 45.9974 73.755 44.609 73.9144 43.1832C73.9542 42.8137 73.9754 42.4422 73.978 42.0704C73.9756 41.7731 73.9743 41.3824 73.9384 41.0381C73.8755 40.3302 73.7404 39.631 73.5354 38.952C72.6109 36.1808 70.8316 33.7938 68.4668 32.1524C66.1019 30.5109 63.2802 29.7043 60.4286 29.8545C57.6057 30.137 54.9367 31.3069 52.7865 33.2043C50.6462 35.0613 49.0004 37.4451 48.0031 40.1324C47.0502 42.7482 46.7605 45.5693 47.1612 48.3312C47.5377 51.0078 48.334 53.6041 49.5192 56.0197C51.7271 60.482 54.6832 64.5111 58.2524 67.9225C61.2826 70.8012 64.6749 73.2509 68.3389 75.2062C71.1696 76.7082 74.1605 77.8683 77.2518 78.6634C77.8862 78.8574 78.4986 78.9812 79.0938 79.1223C79.689 79.2634 80.2105 79.3862 80.7098 79.462C81.7199 79.6021 82.5649 79.7695 83.2975 79.8189L85.4097 80.007C85.4906 80.0062 85.5707 80.0228 85.6449 80.0558C85.7191 80.0887 85.7858 80.1372 85.8406 80.1982C85.8954 80.2592 85.9371 80.3313 85.9631 80.4098C85.9891 80.4884 85.9987 80.5716 85.9914 80.6542C85.9841 80.7368 85.96 80.8169 85.9207 80.8894C85.8813 80.9619 85.8276 81.025 85.763 81.0749C85.6984 81.1248 85.6243 81.1602 85.5455 81.1789C85.4668 81.1976 85.385 81.1991 85.3056 81.1834L85.3058 81.1718Z" fill="#5E5C5A"/>
<path d="M86.9531 76.6147C87.2784 76.9229 87.6226 77.2093 87.9836 77.4722C88.3387 77.7387 88.7053 77.9938 89.0835 78.2256C89.8379 78.6964 90.6324 79.096 91.4572 79.4195C91.6426 79.5026 91.7905 79.6543 91.8716 79.8444C91.9527 80.0344 91.961 80.2489 91.8948 80.4449C91.8412 80.5878 91.7467 80.7106 91.6237 80.7974L91.3888 80.9636C90.5064 81.6062 89.6574 82.3075 88.7413 82.9031C88.518 83.0578 88.2835 83.1892 88.0374 83.3437C87.8068 83.5014 87.5659 83.6427 87.3165 83.7666C86.8247 84.0165 86.3028 84.1985 85.7645 84.3081L84.7669 82.5415C85.0801 82.483 85.3996 82.4691 85.7165 82.5002C85.8077 82.509 85.8963 82.5364 85.9771 82.5806C86.0579 82.6249 86.1293 82.6852 86.1872 82.758C86.2451 82.8308 86.2883 82.9148 86.3143 83.0049C86.3403 83.095 86.3486 83.1895 86.3386 83.2829C86.3286 83.3715 86.3046 83.4579 86.2676 83.5386C86.1164 83.8244 85.9321 84.0904 85.7188 84.3309C85.5621 84.5246 85.3368 84.6466 85.0925 84.6699C84.8481 84.6933 84.6047 84.6162 84.4159 84.4554C84.227 84.2947 84.1081 84.0636 84.0853 83.813C84.0625 83.5623 84.1377 83.3127 84.2944 83.1189L84.7212 82.5643C85.078 82.1093 85.5024 81.7149 85.9789 81.3956C86.2069 81.2365 86.4439 81.0913 86.6885 80.9608C86.9344 80.8296 87.1747 80.6925 87.4431 80.5733C88.4667 80.1101 89.5237 79.7288 90.6046 79.4328L90.5419 80.9712C89.8268 80.3739 89.1171 79.7942 88.396 79.2261L87.3084 78.3912C86.9534 78.1131 86.57 77.8404 86.2034 77.5854C86.14 77.543 86.0854 77.488 86.0428 77.4237C86.0003 77.3595 85.9706 77.2871 85.9556 77.211C85.9406 77.1349 85.9405 77.0564 85.9553 76.9802C85.9702 76.904 85.9997 76.8316 86.0421 76.7673C86.0834 76.7022 86.137 76.6462 86.1996 76.6025C86.2623 76.5589 86.3328 76.5285 86.407 76.5131C86.4813 76.4977 86.5577 76.4976 86.632 76.5128C86.7063 76.528 86.7768 76.5582 86.8396 76.6017L86.9531 76.6147Z" fill="#5E5C5A"/>
</svg>
