<svg width="13" height="13" viewBox="0 0 13 13" fill="none" xmlns="http://www.w3.org/2000/svg">
<path d="M6.49375 0.25C3.04375 0.25 0.25 3.05 0.25 6.5C0.25 9.95 3.04375 12.75 6.49375 12.75C9.95 12.75 12.75 9.95 12.75 6.5C12.75 3.05 9.95 0.25 6.49375 0.25ZM9 9C8.94218 9.05794 8.8735 9.10391 8.79789 9.13527C8.72228 9.16663 8.64123 9.18278 8.55937 9.18278C8.47752 9.18278 8.39647 9.16663 8.32086 9.13527C8.24525 9.10391 8.17657 9.05794 8.11875 9L6.0625 6.94375C6.00345 6.88587 5.95646 6.81684 5.92428 6.74067C5.89209 6.66449 5.87534 6.58269 5.875 6.5V4C5.875 3.65625 6.15625 3.375 6.5 3.375C6.84375 3.375 7.125 3.65625 7.125 4V6.24375L9 8.11875C9.24375 8.3625 9.24375 8.75625 9 9Z" fill="white"/>
</svg>
