<svg width="14" height="12" viewBox="0 0 14 12" fill="none" xmlns="http://www.w3.org/2000/svg">
<path d="M12.8334 1.97111C12.3123 0.90167 10.8111 0.0266703 9.06503 0.536115C8.23065 0.777124 7.50267 1.29398 7.00003 2.00223C6.49739 1.29398 5.76941 0.777124 4.93503 0.536115C3.18503 0.0344481 1.68781 0.90167 1.1667 1.97111C0.435585 3.46834 0.738919 5.15223 2.06892 6.97612C3.11114 8.40334 4.60059 9.85 6.76281 11.53C6.83114 11.5833 6.91532 11.6122 7.00197 11.6122C7.08863 11.6122 7.17281 11.5833 7.24114 11.53C9.39947 9.85389 10.8928 8.41889 11.935 6.97612C13.2611 5.15223 13.5645 3.46834 12.8334 1.97111Z" fill="#976464"/>
</svg>
