<svg xmlns="http://www.w3.org/2000/svg" version="1.1" xmlns:xlink="http://www.w3.org/1999/xlink" xmlns:svgjs="http://svgjs.dev/svgjs" width="1000" height="1000" viewBox="0 0 1000 1000"><rect width="1000" height="1000" fill="#ffffff"></rect><g transform="matrix(0.7,0,0,0.7,150.0000000000001,106.25)"><svg viewBox="0 0 320 360" data-background-color="#ffffff" preserveAspectRatio="xMidYMid meet" height="1125" width="1000" xmlns="http://www.w3.org/2000/svg" xmlns:xlink="http://www.w3.org/1999/xlink"><g id="tight-bounds" transform="matrix(1,0,0,1,0,0)"><svg viewBox="0 0 320 360" height="360" width="320"><g><svg></svg></g><g><svg viewBox="0 0 320 360" height="360" width="320"><g><path xmlns="http://www.w3.org/2000/svg" d="M20.961 227.22l3.726 4.658-1.863-6.056c-0.466-2.795-3.726 0.466-1.863 1.398M25.153 224.425c1.397 2.329 2.795 4.658 2.795 6.987 0 3.261 2.795 4.658 5.123 5.589-3.261-3.726-5.124-13.974-7.918-12.576M204.017 26.929c7.918 0 15.371-0.932 23.756 0.931 20.495 5.124 37.729 15.371 49.374 29.811l32.606 52.169c1.397 13.042 4.192 27.482 3.726 43.319 3.261 0 2.795-4.658 6.521-5.59-3.726 9.316-5.59 20.961-6.521 34.469-2.329-7.453 0-18.632 0.466-24.687-3.261 5.124-5.124 1.397-5.124-0.932 0.466-3.726-1.397-3.261-2.795-4.658-5.124-4.658-8.384-9.782-12.11-17.7 2.329-6.055 2.795-14.905-4.658-19.563-2.329-1.397-5.124-3.726-6.521-7.453-1.863-5.124-5.124-11.179-4.193-19.097 0.466-2.329-6.987 5.124-11.179 1.863-18.166-12.576-36.332-27.016-58.224-39.127-11.645 0-20.029-4.192-24.221-9.316-3.726-4.658-0.932-10.713 4.658-11.179 3.261 0 6.987-0.932 9.782 0.932 0.466-1.863 2.329-4.192 4.657-4.192M157.904 16.215l0.932 0.466c4.658 0.932 6.987 7.453 12.11 5.124 0 3.261 0.466 6.521-0.466 8.85-1.397 3.726-5.59 3.726-8.85 3.726-31.208-1.863-49.374 11.179-68.471 22.358-5.124 3.261-10.713 5.59-14.906 9.782-20.029 18.632-41.921 35.866-47.045 70.335l-4.192 38.195c-0.466 4.192-5.124 8.384-4.192 13.508l3.26 22.824c-3.261-3.261-5.124 0.932-4.192 2.795 0.466 1.397 2.329 6.055 5.124 1.863 3.726 6.987 7.453 20.495 12.576 26.55 15.837 18.632 36.332 35.4 53.101 52.169 4.192-0.932 7.453-0.932 8.384-3.727 1.397 2.795-1.397 5.59-3.726 6.056 7.453 4.658 15.837 8.85 27.016 9.781 14.44 0.932 27.948 3.261 40.524 6.522 6.521-1.863 13.042-2.795 20.029-3.261 2.329 0 3.726-3.726 6.521-4.658l0.466-4.658c2.795 4.192 2.329-1.397 0.466-4.192 3.261 2.795 4.192 5.124 5.589 6.987 0-1.397 3.726-6.521 3.727-0.466l0.931-6.055c1.397-0.932 1.863 5.124 3.261 0.931 1.397-4.192 4.192-0.932 6.987-2.329-0.932 1.863-0.466 5.59 2.794 3.261l3.727-3.261c2.329 5.59 6.055 3.261 7.918 2.329 20.495-13.042 40.99-28.413 60.553-43.784l-0.466 6.055 2.329-7.453c2.329 2.329 4.192 0.466 5.124-0.931 2.795-4.658 6.521-9.316 12.577-13.508-7.453 20.029-16.303 35.866-27.482 48.908l-4.658 5.59c0 3.261-0.932 7.453-4.658 7.918-1.863 0.466-5.59-0.932-8.384 1.863-1.397 1.863 3.261 5.59-0.466 2.795-3.261-2.329-6.521 0-10.248 0.932-2.795 0.932 1.863 3.726 2.795 5.589 0.932 1.863 1.863 3.726 1.398 6.056l-5.124-5.59c-6.055 3.261-9.782 9.316-14.906 13.974-2.329 1.863-1.397 5.124-1.397 7.918-3.261 0-6.987-0.932-8.85 0.932-1.397 1.863-0.932 4.658-0.932 7.453-4.658-0.466-5.124-7.453-9.315-6.056-4.192 0.932-8.85 1.397-12.577 3.727 2.795 5.59-4.658 2.329-3.726 3.26-6.987-4.192-13.042-7.453-20.495-4.658-15.837-5.124-35.4-2.795-49.84-0.931 0-2.329 0.466-4.658-0.466-5.124-0.932 2.329-3.726 1.397-3.26 1.397-8.85-6.055-17.7-9.782-27.016-14.905-8.384 0.932-16.303-3.261-18.632-5.59-6.521-6.055-13.974-2.795-20.029-4.192-13.042-3.261-17.7-16.769-19.098-26.084-0.932-4.658-4.658-6.521-6.055-6.056-6.055-19.563-15.371-37.263-22.824-55.429-1.863-4.658-1.397-9.316-1.397-14.44 2.329 0.932 4.658 0.466 4.192-2.794-2.329-15.371-7.918-27.016-13.974-38.195 3.261-15.837 3.726-34.469 11.179-48.443 6.521-12.576 18.632-19.098 27.016-29.811 2.795-3.726 2.795-8.85 5.59-12.11 9.316-9.316 18.632-19.098 28.879-27.482 4.658-3.726 10.247 0 17.234-1.397 2.329-8.384 11.645-15.837 20.495-13.508 3.726 0.932 11.179-8.85 13.508-9.782 3.726-1.397 1.863 3.726 1.863 6.987 8.85-6.987 20.961-10.713 32.14-14.906" fill="#374151" fill-rule="nonzero" stroke="none" stroke-width="1" stroke-linecap="butt" stroke-linejoin="miter" stroke-miterlimit="10" stroke-dasharray="" stroke-dashoffset="0" font-family="none" font-weight="none" font-size="none" text-anchor="none" style="mix-blend-mode: normal" data-fill-palette-color="tertiary"></path></g><g transform="matrix(1,0,0,1,64.09966924668176,90)"><svg viewBox="0 0 191.8006615066365 180" height="180" width="191.8006615066365"><g><svg viewBox="0 0 191.8006615066365 180" height="180" width="191.8006615066365"><g><svg viewBox="0 0 192 180.1870740618076" height="180" width="191.8006615066365"><g transform="matrix(1,0,0,1,0,95.16216599572402)"><svg viewBox="0 0 192 85.02490806608358" height="85.02490806608358" width="192"><g><svg viewBox="0 0 192 85.02490806608358" height="85.02490806608358" width="192"><g><svg viewBox="0 0 192 48.202137998056365" height="48.202137998056365" width="192"><g transform="matrix(1,0,0,1,0,0)"><svg width="192" viewBox="1.5 -37.900001525878906 154.33999633789062 38.75" height="48.202137998056365" data-palette-color="#374151"><path d="M16.75-35.5Q22.85-35.5 27.35-31.25L27.35-31.25 23.45-27.15Q21.75-28.5 20.33-29.1 18.9-29.7 17.1-29.7L17.1-29.7Q13.6-29.7 11.7-26.83 9.8-23.95 9.8-17.35L9.8-17.35Q9.8-12.6 10.45-9.93 11.1-7.25 12.4-6.15 13.7-5.05 15.85-5.05L15.85-5.05Q18.1-5.05 19.85-6.15L19.85-6.15 19.85-14.25 16-14.25 15.25-19.9 27.45-19.9 27.45-2.75Q25-1.05 22-0.1 19 0.85 16 0.85L16 0.85Q8.65 0.85 5.08-3.68 1.5-8.2 1.5-17.35L1.5-17.35Q1.5-23.25 3.5-27.35 5.5-31.45 8.95-33.48 12.4-35.5 16.75-35.5L16.75-35.5ZM42.85-27.4Q48.45-27.4 51.62-23.78 54.8-20.15 54.8-13.25L54.8-13.25Q54.8-6.65 51.6-2.9 48.4 0.85 42.85 0.85L42.85 0.85Q37.25 0.85 34.1-2.8 30.95-6.45 30.95-13.3L30.95-13.3Q30.95-19.95 34.12-23.68 37.3-27.4 42.85-27.4L42.85-27.4ZM42.85-21.7Q40.8-21.7 39.85-19.75 38.9-17.8 38.9-13.3L38.9-13.3Q38.9-8.7 39.85-6.75 40.8-4.8 42.85-4.8L42.85-4.8Q44.9-4.8 45.87-6.78 46.85-8.75 46.85-13.25L46.85-13.25Q46.85-17.85 45.9-19.78 44.95-21.7 42.85-21.7L42.85-21.7ZM73-27.4Q77.25-27.4 79.52-23.78 81.8-20.15 81.8-13.25L81.8-13.25Q81.8-9.05 80.65-5.85 79.5-2.65 77.35-0.9 75.2 0.85 72.25 0.85L72.25 0.85Q70.35 0.85 68.75-0.03 67.15-0.9 66-2.5L66-2.5 65.65 0 58.8 0 58.8-37.1 66.5-37.9 66.5-23.95Q67.6-25.55 69.3-26.48 71-27.4 73-27.4L73-27.4ZM70-4.75Q71.85-4.75 72.85-6.68 73.85-8.6 73.85-13.25L73.85-13.25Q73.85-18.2 72.95-19.98 72.05-21.75 70.35-21.75L70.35-21.75Q69.25-21.75 68.27-20.95 67.3-20.15 66.5-18.75L66.5-18.75 66.5-7.25Q67.9-4.75 70-4.75L70-4.75ZM105.49-7.35Q105.49-6 105.84-5.35 106.19-4.7 107.04-4.35L107.04-4.35 105.44 0.7Q103.14 0.5 101.69-0.35 100.24-1.2 99.44-3L99.44-3Q96.99 0.85 92.29 0.85L92.29 0.85Q88.69 0.85 86.57-1.43 84.44-3.7 84.44-7.45L84.44-7.45Q84.44-11.8 87.37-14.1 90.29-16.4 95.84-16.4L95.84-16.4 97.94-16.4 97.94-17.65Q97.94-20 97.09-20.93 96.24-21.85 94.09-21.85L94.09-21.85Q91.64-21.85 87.84-20.5L87.84-20.5 86.09-25.45Q88.29-26.4 90.79-26.9 93.29-27.4 95.44-27.4L95.44-27.4Q100.59-27.4 103.04-25.1 105.49-22.8 105.49-18.1L105.49-18.1 105.49-7.35ZM94.59-4.65Q95.64-4.65 96.52-5.3 97.39-5.95 97.94-7.15L97.94-7.15 97.94-12.1 96.54-12.1Q94.19-12.1 93.09-11.13 91.99-10.15 91.99-8.1L91.99-8.1Q91.99-6.4 92.67-5.53 93.34-4.65 94.59-4.65L94.59-4.65ZM121.69-27.4Q124.19-27.4 126.19-26.6 128.19-25.8 129.94-24.15L129.94-24.15 126.74-19.75Q125.59-20.65 124.54-21.08 123.49-21.5 122.29-21.5L122.29-21.5Q119.99-21.5 118.84-19.6 117.69-17.7 117.69-13.1L117.69-13.1Q117.69-8.7 118.87-6.95 120.04-5.2 122.24-5.2L122.24-5.2Q123.39-5.2 124.34-5.58 125.29-5.95 126.59-6.85L126.59-6.85 129.94-2.3Q126.49 0.85 121.79 0.85L121.79 0.85Q116.09 0.85 112.87-2.8 109.64-6.45 109.64-13.05L109.64-13.05Q109.64-17.4 111.12-20.65 112.59-23.9 115.32-25.65 118.04-27.4 121.69-27.4L121.69-27.4ZM132.59-37.1L140.29-37.9 140.29 0 132.59 0 132.59-37.1ZM147.74-26.55L155.29-26.55 148.19-14.9 155.84 0 147.44 0 140.54-14.5 147.74-26.55Z" opacity="1" transform="matrix(1,0,0,1,0,0)" fill="#374151" class="undefined-text-0" data-fill-palette-color="primary" id="text-0"></path></svg></g></svg></g><g transform="matrix(1,0,0,1,0,55.235986783284744)"><svg viewBox="0 0 192 29.78892128279883" height="29.78892128279883" width="192"><g transform="matrix(1,0,0,1,0,0)"><svg width="192" viewBox="1.600000023841858 -34.599998474121094 226.54998779296875 35.14999771118164" height="29.78892128279883" data-palette-color="#374151"><path d="M17.6 0.45Q15.95 0.45 13.88 0.38 11.8 0.3 10.65 0.25L10.65 0.25 7.8-0.05 7.8-30.7Q6.5-30.7 6-30.25L6-30.25Q5.45-29.8 5.35-28.6L5.35-28.6 1.6-28.65Q1.6-31.65 3.45-33.25L3.45-33.25Q4.95-34.6 7.85-34.6L7.85-34.6 21.15-34.55Q25.9-34.4 29.5-32.15 33.1-29.9 35.1-26 37.1-22.1 37.1-17.1L37.1-17.1Q37.1-8.25 32.27-3.9 27.45 0.45 17.6 0.45L17.6 0.45ZM18.25-3.3Q25.55-3.3 29.28-6.78 33-10.25 33-17.1L33-17.1Q33-21.25 31.48-24.33 29.95-27.4 27.15-29.08 24.35-30.75 20.6-30.75L20.6-30.75 11.9-30.75 11.9-3.55Q12.9-3.45 14.85-3.38 16.8-3.3 18.25-3.3L18.25-3.3ZM56.4 0.5Q52.7 0.5 50.08-1.13 47.45-2.75 46.1-5.53 44.75-8.3 44.75-11.75L44.75-11.75Q44.75-15.15 46.05-18.35 47.35-21.55 49.95-23.65 52.55-25.75 56.35-25.75L56.35-25.75Q58.85-25.75 61-24.78 63.15-23.8 64.43-21.98 65.7-20.15 65.7-17.75L65.7-17.75Q65.7-13.9 62.55-11.7 59.4-9.5 54.35-9.6L54.35-9.6 49.15-9.7Q49.7-6.6 51.58-4.93 53.45-3.25 56.55-3.25L56.55-3.25Q60.6-3.25 64.25-5.95L64.25-5.95 66.5-3.1Q61.75 0.5 56.4 0.5L56.4 0.5ZM54.35-13.2Q57.7-13.2 59.65-14.35 61.6-15.5 61.6-17.8L61.6-17.8Q61.6-19.85 60.13-20.95 58.65-22.05 56.6-22.05L56.6-22.05Q54.3-22.05 52.6-20.68 50.9-19.3 50-17.25 49.1-15.2 48.95-13.2L48.95-13.2 54.35-13.2ZM74.45-20.45Q74.05-21.35 73.25-22.13 72.45-22.9 71.65-23.1L71.65-23.1 73.85-26.45Q76.95-24.7 78.5-20.55L78.5-20.55 84-6 91.05-25.4 95.15-25.4 85.85 0.05 82.2 0.05 74.45-20.45ZM109-30.5L102.05-30.5Q101.5-30.5 101.18-30.18 100.85-29.85 100.85-29.35L100.85-29.35Q100.85-29.2 100.95-28.8L100.95-28.8 97.05-28.8Q96.95-29.9 97.3-30.98 97.65-32.05 98.45-32.85L98.45-32.85Q99.15-33.55 100.05-33.93 100.95-34.3 101.9-34.3L101.9-34.3 124.4-34.3 124.4-30.5 113.1-30.5 113.1 0.05 109 0.05 109-30.5ZM138.1 0.5Q134.4 0.5 131.78-1.13 129.15-2.75 127.8-5.53 126.45-8.3 126.45-11.75L126.45-11.75Q126.45-15.15 127.75-18.35 129.05-21.55 131.65-23.65 134.25-25.75 138.05-25.75L138.05-25.75Q140.55-25.75 142.7-24.78 144.85-23.8 146.13-21.98 147.4-20.15 147.4-17.75L147.4-17.75Q147.4-13.9 144.25-11.7 141.1-9.5 136.05-9.6L136.05-9.6 130.85-9.7Q131.4-6.6 133.28-4.93 135.15-3.25 138.25-3.25L138.25-3.25Q142.3-3.25 145.95-5.95L145.95-5.95 148.2-3.1Q143.45 0.5 138.1 0.5L138.1 0.5ZM136.05-13.2Q139.4-13.2 141.35-14.35 143.3-15.5 143.3-17.8L143.3-17.8Q143.3-19.85 141.83-20.95 140.35-22.05 138.3-22.05L138.3-22.05Q136-22.05 134.3-20.68 132.6-19.3 131.7-17.25 130.8-15.2 130.65-13.2L130.65-13.2 136.05-13.2ZM166 0.5Q162.65 0.5 160.23-1.28 157.8-3.05 156.53-6.05 155.25-9.05 155.25-12.55L155.25-12.55Q155.25-16.35 156.7-19.35 158.15-22.35 160.98-24.1 163.8-25.85 167.75-25.85L167.75-25.85Q168.9-25.85 170.63-25.73 172.35-25.6 173.55-25.4L173.55-25.4 176.9-25.4 176.9-4.65Q176.9-3.95 177.23-3.58 177.55-3.2 178.2-3.2L178.2-3.2Q179.05-3.2 179.55-4.05L179.55-4.05 182.35-2.2Q181.7-0.95 180.48-0.23 179.25 0.5 177.85 0.5L177.85 0.5Q176 0.5 174.68-0.58 173.35-1.65 173.25-3.1L173.25-3.1 173.25-3.05Q172.4-1.4 170.4-0.45 168.4 0.5 166 0.5L166 0.5ZM166.3-3.2Q168.3-3.2 169.85-4.25 171.4-5.3 172.2-6.9L172.2-6.9Q172.65-7.75 172.73-8.35 172.8-8.95 172.8-9.7L172.8-9.7 172.8-21.8 170.7-21.95Q168.2-22.15 167.35-22.15L167.35-22.15Q163.55-22.15 161.45-19.45 159.35-16.75 159.35-12.6L159.35-12.6Q159.35-8.75 161.2-5.98 163.05-3.2 166.3-3.2L166.3-3.2ZM225.2-4.05L228.15-2.2Q227.45-0.9 226.33-0.18 225.2 0.55 223.7 0.55L223.7 0.55Q221.35 0.55 219.98-0.83 218.6-2.2 218.6-4.6L218.6-4.6 218.6-17.5Q218.4-19.95 217.4-20.95 216.4-21.95 214.4-21.95L214.4-21.95Q212.4-21.95 210.83-20.98 209.25-20 208.05-17.65L208.05-17.65 208.05 0.05 203.95 0.05 203.95-16.85Q203.95-19.3 202.9-20.63 201.85-21.95 199.8-21.95L199.8-21.95Q197.75-21.95 196-20.78 194.25-19.6 193.45-17.8L193.45-17.8 193.45 0.05 189.35 0.05 189.35-17.5Q189.35-21.4 187.25-23.2L187.25-23.2 190-25.75Q190.8-25.3 191.6-24.33 192.4-23.35 192.9-22.1L192.9-22.1Q194.3-23.75 196.15-24.7 198-25.65 200.05-25.65L200.05-25.65Q202.25-25.65 204.1-24.55 205.95-23.45 206.95-21.6L206.95-21.6Q208.4-23.45 210.35-24.55 212.3-25.65 214.45-25.65L214.45-25.65Q218.2-25.65 220.45-23.6 222.7-21.55 222.7-17.6L222.7-17.6 222.7-4.45Q222.7-3.9 223.05-3.53 223.4-3.15 223.95-3.15L223.95-3.15Q224.75-3.15 225.2-4.05L225.2-4.05Z" opacity="1" transform="matrix(1,0,0,1,0,0)" fill="#374151" class="undefined-text-1" data-fill-palette-color="secondary" id="text-1"></path></svg></g></svg></g></svg></g></svg></g><g transform="matrix(1,0,0,1,51.935841394752174,0)"><svg viewBox="0 0 88.12831721049565 88.12831721049565" height="88.12831721049565" width="88.12831721049565"><g><svg xmlns="http://www.w3.org/2000/svg" xmlns:xlink="http://www.w3.org/1999/xlink" version="1.1" x="0" y="0" viewBox="5 5 90 90" enable-background="new 0 0 100 100" xml:space="preserve" height="88.12831721049565" width="88.12831721049565" class="icon-icon-0" data-fill-palette-color="accent" id="icon-0"><path fill="#374151" d="M95 52c0-12.871-5.692-24.431-14.682-32.318C72.431 10.692 60.871 5 48 5 24.29 5 5 24.29 5 48c0 12.868 5.69 24.426 14.677 32.313C27.564 89.306 39.126 95 52 95c0.084 0 0.166-0.006 0.25-0.006S52.416 95 52.5 95C75.972 95 95 75.972 95 52.5c0-0.084-0.006-0.166-0.006-0.25S95 52.084 95 52zM21.828 73.371c-4.245-5.978-6.77-13.259-6.822-21.121 0.135-20.511 16.732-37.109 37.244-37.244 7.862 0.052 15.144 2.577 21.121 6.822C80.224 28.473 84.5 37.758 84.5 48c0 20.126-16.374 36.5-36.5 36.5C37.758 84.5 28.473 80.224 21.828 73.371zM6 48C6 24.841 24.841 6 48 6c9.858 0 18.926 3.422 26.1 9.13C67.637 11.242 60.076 9 52 9 28.29 9 9 28.29 9 52c0 8.074 2.241 15.633 6.127 22.095C9.421 66.923 6 57.856 6 48zM52 89c-10.08 0-19.227-4.055-25.905-10.615C32.269 82.854 39.838 85.5 48 85.5c20.678 0 37.5-16.822 37.5-37.5 0-8.162-2.646-15.731-7.115-21.905C84.945 32.773 89 41.92 89 52 89 72.402 72.402 89 52 89z" data-fill-palette-color="accent"></path></svg></g></svg></g><g></g></svg></g></svg></g></svg></g></svg></g><defs></defs></svg><rect width="320" height="360" fill="none" stroke="none" visibility="hidden"></rect></g></svg></g></svg>