<?xml version="1.0" encoding="utf-8"?>
<!-- Generator: Adobe Illustrator 22.1.0, SVG Export Plug-In . SVG Version: 6.00 Build 0)  -->
<svg version="1.1" id="Layer_1" xmlns="http://www.w3.org/2000/svg" xmlns:xlink="http://www.w3.org/1999/xlink" x="0px" y="0px"
	 viewBox="0 0 1920 1080" style="enable-background:new 0 0 1920 1080;" xml:space="preserve">
<style type="text/css">
	.st0{fill:#FFFFFF;}
</style>
<g>
	<path d="M1306,782.8h-100.5V543.3c0-76.7-62.4-139-139-139h-92.3v378.6H873.7v-479h192.8c132.1,0,239.5,107.4,239.5,239.5V782.8z"
		/>
	<polygon points="664.5,308.4 567.6,308.4 567.6,114.5 467.1,114.5 467.1,785.1 567.6,785.1 567.6,408.9 664.5,408.9 	"/>
	<g>
		<polygon points="768.9,781.5 718.3,303.8 818.8,303.8 		"/>
		<rect x="719.5" y="112.1" class="st0" width="100.5" height="102.8"/>
	</g>
	<path d="M1609.1,967.9c126.6,0,229.7-103,229.7-230.1c0,0,0-194,0-194.5c0-132.1-107.4-239.5-239.5-239.5s-239.5,107.4-239.5,239.5
		s107.4,239.5,239.5,239.5c52,0,100.1-16.7,139.4-44.9l-0.3,0.3c0,71.2-58,129.2-129.2,129.2h-204.9v96.9L1609.1,967.9z
		 M1599.2,682.3c-76.7,0-139-62.4-139-139s62.4-139,139-139s139,62.4,139,139S1675.9,682.3,1599.2,682.3z"/>
	<path d="M395.7,575.7L395.7,575.7c-11.7-18.3-26.7-32.1-44.7-41c-17.2-8.5-35.9-16.3-55.6-23.2c-19.6-6.8-38.2-12.6-55.1-17.2
		c-16.2-4.3-29.7-10.7-40.3-19c-9.9-7.7-14.7-17-14.7-28.4c0-10.7,5-19.9,15.4-28.2c10.6-8.4,25.4-12.7,44-12.7l165.6,0.5v-95.5
		H244.8c-46.3,0-85.5,13.7-116.5,40.9c-31.2,27.3-47.1,59.3-47.1,95c0,25.8,5.9,48.2,17.7,66.8c11.7,18.5,26.7,32.3,44.7,41.1
		c17.2,8.4,35.9,16.1,55.5,23c19.6,6.8,38.1,12.7,55.1,17.4c16.2,4.5,29.8,10.9,40.3,19c9.9,7.6,14.7,16.8,14.7,28.1
		c0,15.4-5.4,27.3-16.6,36.4c-11.4,9.3-29,14-52.4,14H91.7v94.6h148.5c50.8,0,92.7-14.2,124.7-42.2c32.1-28.2,48.4-62.8,48.4-102.7
		C413.3,616.4,407.4,594,395.7,575.7z"/>
</g>
</svg>
