<svg width="14" height="14" viewBox="0 0 14 14" fill="none" xmlns="http://www.w3.org/2000/svg">
<path d="M10.5 5.6875H9.625C9.62465 5.33951 9.48626 5.00587 9.24019 4.75981C8.99413 4.51374 8.66049 4.37535 8.3125 4.375V3.5C8.89245 3.50069 9.44844 3.73139 9.85853 4.14147C10.2686 4.55156 10.4993 5.10755 10.5 5.6875Z" fill="white"/>
<path d="M12.25 5.6875H11.375C11.3741 4.87556 11.0511 4.09714 10.477 3.52301C9.90286 2.94888 9.12444 2.62593 8.3125 2.625V1.75C9.35643 1.75116 10.3573 2.16637 11.0955 2.90455C11.8336 3.64272 12.2488 4.64357 12.25 5.6875Z" fill="white"/>
<path d="M8.89576 9.39838L9.87576 8.41838C10.0069 8.28717 10.1737 8.19733 10.3555 8.16001C10.5372 8.12268 10.7259 8.1395 10.8982 8.20838L12.0917 8.68613C12.2676 8.75651 12.4184 8.87799 12.5246 9.03489C12.6308 9.19179 12.6876 9.37691 12.6876 9.56638V11.7368C12.6879 11.8658 12.6619 11.9935 12.6111 12.1121C12.5603 12.2307 12.4859 12.3377 12.3924 12.4265C12.2988 12.5154 12.1881 12.5842 12.0671 12.6288C11.946 12.6733 11.8171 12.6927 11.6883 12.6858C3.32244 12.1651 1.63282 5.07938 1.31913 2.366C1.30394 2.23335 1.317 2.09899 1.35746 1.97175C1.39792 1.8445 1.46486 1.72727 1.55388 1.62776C1.6429 1.52824 1.75198 1.4487 1.87394 1.39436C1.9959 1.34003 2.12799 1.31213 2.26151 1.3125H4.39344C4.58291 1.3125 4.76804 1.36926 4.92494 1.47547C5.08183 1.58168 5.20331 1.73247 5.27369 1.90838L5.75101 3.10188C5.81989 3.27416 5.83671 3.46286 5.79938 3.6446C5.76205 3.82634 5.67222 3.99314 5.54101 4.12432L4.56101 5.10432C4.56101 5.10432 5.10438 8.92457 8.89576 9.39838Z" fill="white"/>
</svg>
