<svg width="13" height="13" viewBox="0 0 13 13" fill="none" xmlns="http://www.w3.org/2000/svg">
<path d="M11.6027 12.6346C11.8162 12.854 12.1672 12.8588 12.3867 12.6452C12.6061 12.4317 12.6109 12.0807 12.3973 11.8613L11.6027 12.6346ZM9.80017 9.1924C9.58663 8.97296 9.23563 8.96818 9.01618 9.18173C8.79674 9.39527 8.79197 9.74628 9.00551 9.96572L9.80017 9.1924ZM1 6.01226H0.445584H1ZM5.92105 0.964355V0.40994V0.964355ZM12.3973 11.8613L9.80017 9.1924L9.00551 9.96572L11.6027 12.6346L12.3973 11.8613ZM10.2877 6.01226C10.2877 7.2085 9.8243 8.35299 9.00377 9.19466L9.79775 9.96869C10.823 8.91703 11.3965 7.49361 11.3965 6.01226H10.2877ZM9.00377 9.19466C8.18372 10.0359 7.07454 10.5058 5.92105 10.5058V11.6146C7.37786 11.6146 8.77205 11.0208 9.79775 9.96869L9.00377 9.19466ZM5.92105 10.5058C4.76757 10.5058 3.65838 10.0359 2.83833 9.19466L2.04436 9.96869C3.07005 11.0208 4.46425 11.6146 5.92105 11.6146V10.5058ZM2.83833 9.19466C2.01781 8.35299 1.55442 7.2085 1.55442 6.01226H0.445584C0.445584 7.49361 1.01912 8.91703 2.04436 9.96869L2.83833 9.19466ZM1.55442 6.01226C1.55442 4.81603 2.01781 3.67154 2.83833 2.82987L2.04436 2.05584C1.01912 3.1075 0.445584 4.53092 0.445584 6.01226H1.55442ZM2.83833 2.82987C3.65838 1.98867 4.76757 1.51877 5.92105 1.51877V0.40994C4.46425 0.40994 3.07005 1.0037 2.04436 2.05584L2.83833 2.82987ZM5.92105 1.51877C7.07454 1.51877 8.18372 1.98867 9.00377 2.82987L9.79775 2.05584C8.77205 1.0037 7.37786 0.40994 5.92105 0.40994V1.51877ZM9.00377 2.82987C9.8243 3.67154 10.2877 4.81603 10.2877 6.01226H11.3965C11.3965 4.53092 10.823 3.1075 9.79775 2.05584L9.00377 2.82987Z" fill="#A37C7C"/>
</svg>
