<svg width="12" height="13" viewBox="0 0 12 13" fill="none" xmlns="http://www.w3.org/2000/svg">
<path d="M1.3125 12.125C1.3125 12.125 0.375 12.125 0.375 11.1875C0.375 10.25 1.3125 7.4375 6 7.4375C10.6875 7.4375 11.625 10.25 11.625 11.1875C11.625 12.125 10.6875 12.125 10.6875 12.125H1.3125ZM6 6.5C6.74592 6.5 7.46129 6.20368 7.98874 5.67624C8.51618 5.14879 8.8125 4.43342 8.8125 3.6875C8.8125 2.94158 8.51618 2.22621 7.98874 1.69876C7.46129 1.17132 6.74592 0.875 6 0.875C5.25408 0.875 4.53871 1.17132 4.01126 1.69876C3.48382 2.22621 3.1875 2.94158 3.1875 3.6875C3.1875 4.43342 3.48382 5.14879 4.01126 5.67624C4.53871 6.20368 5.25408 6.5 6 6.5Z" fill="#976464"/>
</svg>
