<svg width="10" height="15" viewBox="0 0 10 15" fill="none" xmlns="http://www.w3.org/2000/svg">
<path d="M5 14.0637C5 14.0637 10 9.20321 10 5.51554C10 4.15528 9.47322 2.85073 8.53553 1.88887C7.59785 0.927021 6.32608 0.386658 5 0.386658C3.67392 0.386658 2.40215 0.927021 1.46447 1.88887C0.526784 2.85073 1.97602e-08 4.15528 0 5.51554C0 9.20321 5 14.0637 5 14.0637ZM5 8.07999C4.33696 8.07999 3.70107 7.8098 3.23223 7.32888C2.76339 6.84795 2.5 6.19568 2.5 5.51554C2.5 4.83541 2.76339 4.18313 3.23223 3.70221C3.70107 3.22128 4.33696 2.9511 5 2.9511C5.66304 2.9511 6.29893 3.22128 6.76777 3.70221C7.23661 4.18313 7.5 4.83541 7.5 5.51554C7.5 6.19568 7.23661 6.84795 6.76777 7.32888C6.29893 7.8098 5.66304 8.07999 5 8.07999Z" fill="white"/>
</svg>
